<svg width="174" height="48" viewBox="0 0 174 48" fill="none" xmlns="http://www.w3.org/2000/svg">
<g clip-path="url(#clip0_4_157)">
<path d="M123.601 5.30978H13.2525C7.85378 5.30978 3.47723 9.73557 3.47723 15.195V32.7908C3.47723 38.2503 7.85378 42.6761 13.2525 42.6761H123.601C129 42.6761 133.377 38.2503 133.377 32.7908V15.195C133.377 9.73557 129 5.30978 123.601 5.30978Z" stroke="white" stroke-miterlimit="10"/>
<path d="M25.7927 6.18535C21.1984 4.12357 15.0818 5.14034 11.074 7.85172C7.0661 10.5631 4.92951 14.6867 4.07766 18.8102C3.22582 22.9338 3.50511 27.1421 3.56097 31.3222C3.60286 34.0759 3.70061 37.1403 6.17236 39.075C7.87606 40.4025 10.3478 40.8685 12.6939 41.2498C58.0651 48.4519 105.056 40.8826 151.224 43.4387C154.435 43.6222 157.689 43.8482 160.831 43.3116C163.973 42.7749 167.06 41.3769 168.47 39.0891C170.146 36.3778 169.126 33.1721 169.043 30.15C168.847 23.6964 172.883 16.6496 168.638 11.128C165.468 7.01854 158.876 5.56399 152.871 4.84378C141.392 3.47397 129.718 3.48809 118.099 3.51633C102.11 3.54457 86.1062 3.58694 70.1586 4.37776C53.6104 5.19682 36.9366 6.82083 20.542 4.84378" fill="white"/>
<path d="M26.7284 2.78202C21.3101 0.508415 14.4115 1.48282 9.52386 4.67435C4.30107 8.09182 1.2428 13.7123 0.390957 19.8412C-0.111772 23.3434 -5.43601e-05 26.8315 0.0558044 30.3478C0.111663 33.3416 0.139592 36.4484 1.64778 39.1174C4.9993 45.0062 13.5038 44.9921 19.341 45.7405C47.452 49.3275 75.8561 47.7741 104.079 46.8985C118.211 46.4608 132.357 46.1783 146.49 46.7573C153.234 47.0398 160.524 48.2119 166.822 45.0486C169.559 43.6788 171.849 41.2639 172.576 38.1995C173.302 35.1351 172.422 32.1554 172.534 29.0768C172.743 23.1598 175.438 17.4828 172.939 11.6646C170.439 5.84646 164.658 3.53048 159.128 2.31601C152.536 0.86146 145.638 0.522537 138.921 0.240101C131.757 -0.0282133 124.579 3.02738e-05 117.401 3.02738e-05C102.92 0.0282739 88.4383 0.0706393 73.9709 0.677877C59.5035 1.28511 45.3433 2.69729 31.0155 2.13242C27.5104 1.9912 24.0192 1.72289 20.542 1.31336C18.6707 1.08741 17.0508 3.0927 17.0508 4.84381C17.0508 6.93383 18.6568 8.14831 20.542 8.37426C33.6409 9.91353 46.8235 9.23569 59.9364 8.47311C73.0492 7.71053 86.6369 7.24451 100.015 7.13154C113.393 7.01857 126.674 6.75025 139.954 7.35749C145.889 7.6258 152.006 7.89412 157.815 9.24981C161.711 10.1677 166.696 11.8341 167.073 16.5649C167.269 19.0786 166.599 21.5781 166.18 24.0212C165.677 26.8597 165.454 29.5711 165.733 32.4519C165.956 34.5984 166.417 36.8862 164.448 38.2984C162.339 39.8094 159.533 40.0777 157.019 40.1201C150.595 40.233 144.129 39.5552 137.692 39.4422C131.254 39.3292 124.565 39.3575 118.016 39.4846C91.9435 39.9647 65.8434 41.7864 39.7574 40.459C33.2638 40.1342 26.7982 39.5976 20.3465 38.8067C17.386 38.4396 14.3696 38.1006 11.451 37.4652C9.34232 37.0133 7.63863 36.4343 7.21969 34.1042C6.75885 31.534 6.96832 28.6673 6.96832 26.0548C6.96832 23.1598 7.1359 20.3072 8.04361 17.5393C9.56576 12.8932 13.3362 9.65934 18.0842 8.81203C20.4163 8.38838 22.6926 8.68494 24.885 9.58873C26.6306 10.3231 28.7253 8.79791 29.1861 7.11742C29.7447 5.08388 28.5019 3.50224 26.7423 2.7679L26.7284 2.78202Z" fill="white"/>
<path d="M56.0124 15.068C55.6633 19.2198 55.5655 23.3998 55.7331 27.5657C55.8169 29.6699 55.747 32.0141 56.2498 34.0759C56.8503 36.5755 59.1684 37.0273 61.3608 37.1827C65.0336 37.4369 69.3347 36.6884 72.4628 34.6408C74.2084 33.4969 75.4652 31.887 75.6467 29.7405C75.8283 27.594 74.7949 25.6875 73.566 24.1341C71.0803 21.0132 67.1562 19.7281 63.3159 20.3071L65.8575 24.7273C66.3462 24.12 66.6535 24.0212 67.5053 23.767C68.5387 23.4563 69.5302 23.2021 70.5077 22.722C72.77 21.6346 74.1665 19.361 73.7475 16.8049C72.8259 11.2127 66.3183 11.1421 61.9893 10.6761C60.5788 10.5207 59.3639 12.0035 59.3639 13.331C59.3639 14.8844 60.5649 15.8305 61.9893 15.9859C63.6231 16.1553 65.3268 16.2118 66.9048 16.6072C67.4913 16.7484 68.036 16.9603 68.3432 17.2851C68.4968 17.4545 68.5666 17.5958 68.6085 17.6946C68.6923 17.8923 68.5387 18.0335 68.6365 17.6946C68.7063 17.4122 68.3711 17.9206 68.6225 17.7229C68.3991 17.9347 68.3572 17.977 68.5108 17.8217C68.3572 17.9206 68.1896 18.0194 68.008 18.1041C68.2734 17.977 67.5472 18.2595 67.5612 18.2595C67.1841 18.3866 66.8071 18.4713 66.43 18.5843C64.852 19.0362 63.2321 19.6575 62.1708 20.985C60.4671 23.1315 62.0731 25.8005 64.7124 25.4051C64.4191 25.4475 65.3408 25.4051 65.4665 25.4051C65.662 25.4051 65.8575 25.4192 66.039 25.4475C65.8156 25.4192 65.8714 25.4475 66.2066 25.4898C66.9048 25.6452 67.2539 25.7582 67.7567 26.0406C68.832 26.6196 69.5442 27.2833 70.1027 28.3283C70.2424 28.5966 70.396 28.8508 70.4379 29.2321C70.4798 29.6134 70.382 29.6699 70.4658 29.4298C70.3262 29.8252 69.8933 30.0653 69.4324 30.3195C68.036 31.1244 66.3462 31.5763 64.7682 31.8023C63.9583 31.9153 63.1204 31.9576 62.2965 31.9435C61.9194 31.9435 61.5564 31.9153 61.1793 31.887C60.9279 31.8729 60.6766 31.8447 60.4392 31.8164C60.8861 31.7599 61.1793 32.0847 61.3329 32.8191C61.3608 33.1439 61.3469 33.0591 61.305 32.579C61.2771 32.2965 61.2491 32.0282 61.2352 31.7458C61.2072 31.3363 61.1653 30.9126 61.1374 30.5031C61.0676 29.4581 61.0117 28.4272 60.9698 27.3822C60.8162 23.2868 60.914 19.1774 61.2631 15.0962C61.3888 13.6699 59.9783 12.4413 58.6377 12.4413C57.1156 12.4413 56.1381 13.6558 56.0124 15.0962V15.068Z" fill="black"/>
<path d="M84.0535 13.1898C82.1822 14.3619 82.3777 16.3531 82.4475 18.2877C82.5034 19.8411 82.5453 21.4087 82.671 22.9621C82.9084 26.1536 83.6066 29.3875 85.8828 31.7599C88.1591 34.1324 91.9016 34.9232 94.9739 34.09C98.2137 33.2004 99.1772 29.8253 99.4146 26.8314C99.7079 23.0892 99.5962 19.3186 99.1214 15.5905C98.9538 14.2207 98.0461 12.8791 96.496 12.9356C95.2252 12.9921 93.6891 14.1077 93.8706 15.5905C94.2058 18.2736 94.3594 20.9709 94.3035 23.6681C94.2756 24.925 94.1779 26.1677 94.108 27.4245C94.136 26.9444 94.108 27.3539 94.0801 27.594C94.0382 27.8058 93.9963 28.0318 93.9265 28.2436C93.8567 28.4554 93.8008 28.6531 93.717 28.865C93.9125 28.3848 93.6472 28.8791 93.5495 29.0627C93.4238 29.3169 93.6193 28.9497 93.6472 28.9215C93.6053 28.9638 93.3819 29.218 93.6193 28.9779C93.8427 28.7661 93.6332 28.9779 93.5634 29.0062C93.6332 28.9779 94.0243 28.8932 93.6891 28.9497C93.5634 28.9779 93.4238 29.0203 93.2981 29.0486C93.3679 29.0486 93.6193 29.0062 93.3121 29.0203C92.9909 29.0203 92.6697 29.0486 92.3485 29.0344C92.167 29.0344 91.9854 29.0344 91.8039 29.0203C91.8039 29.0203 91.357 28.9921 91.6084 29.0203C91.7201 29.0203 91.1615 28.9356 91.0219 28.8932C90.8962 28.865 90.7565 28.8226 90.6308 28.7802C90.8962 28.9073 90.6727 28.7802 90.6308 28.7802C90.3655 28.6531 90.156 28.5119 89.9186 28.3707C90.2678 28.5825 89.8488 28.3142 89.7231 28.1871C89.5556 28.0177 89.4019 27.8482 89.2483 27.6646C89.5276 27.9894 89.1785 27.5658 89.0947 27.4245C88.9411 27.1845 88.8154 26.9444 88.6897 26.6902C88.6339 26.5772 88.592 26.4784 88.5361 26.3654C88.5641 26.4219 88.6479 26.7326 88.578 26.4501C88.5082 26.1818 88.3965 25.9276 88.3267 25.6593C88.2568 25.391 88.187 25.1086 88.1312 24.8261C88.1032 24.699 87.9775 23.9365 88.0194 24.2471C87.8239 22.835 87.796 21.3945 87.7402 19.9682C87.7122 19.248 87.6843 18.5278 87.6564 17.8217C87.6564 17.4687 87.6284 17.1015 87.6145 16.7485C87.6145 16.6214 87.6284 16.466 87.6145 16.3531C87.5586 16.113 87.4609 16.8473 87.6424 16.4237L86.9721 17.5958L86.6928 17.7794C87.8519 17.045 88.4105 15.3787 87.6284 14.1501C86.8464 12.9215 85.2963 12.4131 84.0395 13.2039L84.0535 13.1898Z" fill="black"/>
<path d="M105.922 14.4607C105.741 17.2003 105.769 20.3919 106.872 22.9338C107.975 25.4757 110.321 26.5913 112.793 26.9585C115.656 27.3822 118.546 27.2268 120.236 24.4872C121.8 21.9594 121.912 18.7114 121.479 15.8588C121.046 13.0062 115.963 13.5993 116.34 16.5649C116.633 18.8667 115.991 20.985 115.544 23.2162C115.055 25.6593 114.79 28.1589 114.804 30.6443C114.804 31.8023 114.901 32.9462 115.013 34.1041C115.041 34.3583 115.069 34.5984 115.069 34.8526C115.069 34.9797 115.069 35.1068 115.069 35.2339C115.055 35.474 115.069 35.4881 115.097 35.2762C115.376 34.9514 114.734 35.3751 114.706 35.3892C113.617 35.9259 111.983 36.1377 111.019 35.3469C109.916 34.4431 108.394 34.2595 107.319 35.3469C106.397 36.2789 106.215 38.1853 107.319 39.0891C109.609 40.9532 112.43 41.5463 115.292 40.7838C118.309 39.9647 120.529 37.8182 120.278 34.4854C120.054 31.6187 119.901 28.7802 120.362 25.9135C120.864 22.8208 121.982 19.7423 121.577 16.5649L116.438 17.271C116.633 18.5419 116.549 20.406 115.893 21.5216C115.628 21.9735 115.683 21.9029 114.999 21.8747C114.315 21.8464 113.826 21.8182 113.226 21.677C112.625 21.5357 112.248 21.4369 111.815 21.0838C111.983 21.2251 111.634 20.8155 111.676 20.8861C111.494 20.5755 111.438 20.1377 111.368 19.7705C111.033 18.0335 111.047 16.2118 111.159 14.4607C111.257 13.0344 109.888 11.8058 108.534 11.8058C107.039 11.8058 106.006 13.0203 105.908 14.4607H105.922Z" fill="black"/>
</g>
<defs>
<clipPath id="clip0_4_157">
<rect width="174" height="48" fill="white"/>
</clipPath>
</defs>
</svg>
