<svg width="114" height="31" viewBox="0 0 114 31" fill="none" xmlns="http://www.w3.org/2000/svg">
<g clip-path="url(#clip0_3_149)">
<path d="M17.78 1.76999C13.39 2.30999 8.22001 3.19999 4.71001 6.10999C2.97001 7.54999 1.99001 9.62999 1.15001 11.67C0.310008 13.71 -0.179992 15.82 0.0600081 17.99C0.530008 22.21 3.08001 25.97 6.71001 28.14C10.6 30.47 15.22 30.81 19.61 30.11C20.94 29.9 21.69 28.23 21.36 27.03C20.97 25.61 19.62 25.07 18.28 25.28C12.91 26.14 5.73001 23.9 5.02001 17.62C4.85001 16.12 5.27001 14.65 5.85001 13.28C6.37001 12.05 6.98001 10.66 8.04001 9.78999C9.27001 8.76999 11.01 8.30999 12.5 7.86999C14.22 7.36999 15.99 6.96999 17.78 6.74999C19.12 6.58999 20.28 5.71999 20.28 4.24999C20.28 3.02999 19.13 1.57999 17.78 1.74999V1.76999Z" fill="white"/>
<path d="M28.26 2.68001C28.11 10.74 28.15 18.81 28.36 26.87C28.4 28.22 29.48 29.37 30.86 29.37C32.34 29.37 33.2 28.22 33.36 26.87C33.62 24.69 33.88 22.51 34.26 20.35C34.38 19.7 34.4 18.61 34.78 18.07C35.13 17.58 35.46 17.67 36.11 17.64C36.57 17.62 37.31 17.46 37.71 17.76C38.19 18.12 38.36 19.19 38.5 19.72C39.05 21.9 39.29 24.11 39.32 26.35C39.37 29.56 44.37 29.57 44.32 26.35C44.28 23.35 44.01 20.06 42.97 17.22C42.49 15.9 41.83 14.68 40.7 13.81C39.37 12.77 37.75 12.56 36.1 12.64C34.45 12.72 32.94 12.95 31.7 14.01C30.67 14.89 30.06 16.15 29.74 17.45C28.98 20.51 28.72 23.74 28.35 26.87H33.35C33.14 18.81 33.11 10.74 33.25 2.68001C33.31 -0.539985 28.31 -0.539985 28.25 2.68001H28.26Z" fill="white"/>
<path d="M54.34 25.29C53.66 21.15 53.3 16.96 53.24 12.76C53.21 10.55 53.26 8.34001 53.4 6.13001C53.42 5.83001 53.71 5.09001 53.32 5.58001C53.48 5.38001 53.7 5.27001 53.93 5.17001C54.41 4.97001 54.99 4.96001 55.49 5.03001C58.64 5.50001 59.85 9.18001 60.12 11.9C60.54 16.1 60.2 20.45 60.17 24.66C60.14 27.88 65.14 27.88 65.17 24.66C65.2 20.64 65.45 16.55 65.17 12.54C64.93 8.93001 63.95 5.15001 61.23 2.58001C58.51 0.0100062 54.19 -0.989994 50.95 1.10001C49 2.36001 48.51 4.14001 48.38 6.34001C48.26 8.40001 48.21 10.46 48.23 12.52C48.28 17.24 48.74 21.94 49.51 26.6C49.73 27.93 51.38 28.68 52.59 28.35C54 27.96 54.56 26.61 54.34 25.27V25.29Z" fill="white"/>
<path d="M52.46 18.07C53.47 17.79 54.49 17.58 55.53 17.43L54.87 17.52C56.58 17.29 58.31 17.26 60.03 17.41C60.63 17.47 61.38 17.09 61.8 16.68C62.22 16.27 62.56 15.53 62.53 14.91C62.5 14.29 62.29 13.59 61.8 13.14C61.31 12.69 60.73 12.47 60.03 12.41C57.06 12.14 54.01 12.44 51.13 13.25C49.87 13.6 48.97 15.04 49.38 16.33C49.79 17.62 51.11 18.45 52.46 18.08V18.07Z" fill="white"/>
<path d="M68.73 3.10999L68.53 25.93H73.53C73.42 22.27 73.68 18.61 74.42 15.02C74.88 12.79 75.77 9.72999 78.62 10.31C79.94 10.58 81.32 9.92999 81.7 8.55999C82.04 7.32999 81.28 5.74999 79.95 5.47999C77.83 5.04999 75.6 5.30999 73.75 6.49999C71.9 7.68999 70.66 9.64999 70.03 11.83C68.72 16.32 68.39 21.27 68.53 25.91C68.62 29.12 73.5 29.14 73.53 25.91L73.73 3.08999C73.76 -0.130012 68.76 -0.130012 68.73 3.08999V3.10999Z" fill="white"/>
<path d="M95.24 7.93001C95.24 14.12 95.24 20.31 95.24 26.5C95.24 29.72 100.24 29.72 100.24 26.5C100.24 20.31 100.24 14.12 100.24 7.93001C100.24 4.71001 95.24 4.71001 95.24 7.93001Z" fill="white"/>
<path d="M88.38 6.51001C95.86 6.49001 103.33 6.82001 110.78 7.50001C112.13 7.62001 113.28 6.26001 113.28 5.00001C113.28 3.55001 112.13 2.62001 110.78 2.50001C103.33 1.82001 95.86 1.49001 88.38 1.51001C85.16 1.51001 85.16 6.52001 88.38 6.51001Z" fill="white"/>
</g>
<defs>
<clipPath id="clip0_3_149">
<rect width="113.28" height="30.44" fill="white"/>
</clipPath>
</defs>
</svg>
