<svg width="896" height="642" viewBox="0 0 896 642" fill="none" xmlns="http://www.w3.org/2000/svg">
<g clip-path="url(#clip0_16_81)">
<path d="M452.42 268.41C452.42 268.41 427.68 386.97 438.09 433.1C448.5 479.23 572.09 538.03 640.17 539.31C720.26 540.82 789.53 446.75 861.23 345.88C912.29 274.05 709.31 184.33 651.56 179.53C593.81 174.73 573.61 167.8 561.73 163.02C549.86 158.24 446.45 270.63 451.89 270.08" fill="#F9F5E2"/>
<path d="M452.42 268.41C452.42 268.41 427.68 386.97 438.09 433.1C448.5 479.23 572.09 538.03 640.17 539.31C720.26 540.82 789.53 446.75 861.23 345.88C912.29 274.05 709.31 184.33 651.56 179.53C593.81 174.73 573.61 167.8 561.73 163.02C549.86 158.24 446.45 270.63 451.89 270.08" stroke="black" stroke-width="4" stroke-miterlimit="10"/>
<path d="M263.25 119.29C260.99 121.27 235.96 161.82 235.74 179.31C235.52 196.8 224.66 197.98 248.51 217.06C272.37 236.14 322.91 247.46 360.04 232.7C399.57 216.98 403.59 229.34 426.54 220.04C472.1 201.58 468.41 224.55 487.87 230.99C516.74 240.55 527.85 233.57 541.17 224.65C554.49 215.73 573.03 211.88 570.52 193.67C568.01 175.46 581.47 168.77 549.87 158.25C518.27 147.73 496.76 126.71 474.52 122.31C452.28 117.91 445.8 128.64 429.39 110.42C412.98 92.2 421.05 78.24 391.54 79.24C362.03 80.24 342.17 50.14 263.26 119.3L263.25 119.29Z" fill="#F9F5E2" stroke="black" stroke-width="4" stroke-miterlimit="10"/>
<path d="M249.17 183.95C249.17 183.95 250.81 157.38 275.85 156.82C300.89 156.26 302.07 172.69 304.06 175.64C306.05 178.59 310.8 161.1 321.86 161.27C332.92 161.44 365.14 174.95 365.35 192.26C365.56 209.57 355.74 220.31 348.61 220.96C341.48 221.61 334.48 219.07 334.48 219.07C334.48 219.07 231.38 221.21 249.17 183.96V183.95Z" fill="#E8395C" stroke="black" stroke-width="4" stroke-miterlimit="10"/>
<path d="M279.42 143.2C279.05 143.26 279.72 143.42 279.94 143.54C280.43 143.8 280.91 144.09 281.4 144.36C282.26 144.84 283.11 145.32 283.97 145.81C285.9 146.89 287.82 147.98 289.75 149.06C291.68 150.14 293.46 151.15 295.31 152.19C296.98 153.13 298.71 154.03 300.16 155.3C301 156.04 302.19 156.28 303.19 155.69C304.08 155.17 304.73 153.89 304.34 152.87C303.3 150.17 301.4 148.11 299.45 146.04C297.5 143.97 295.41 141.9 293.26 139.96C291.11 138.02 289.01 136.26 286.78 134.53C284.41 132.69 281.5 131.02 278.57 132.74C277.3 133.48 276.78 135.64 278.06 136.67C281.69 139.57 285.31 142.47 288.94 145.37C289.82 146.07 290.93 146.37 291.97 145.76C292.89 145.22 293.46 143.98 293.12 142.94C291.46 137.93 287.88 133.66 283.07 131.4C281.34 130.58 279.4 131.56 279.31 133.56L279.26 134.64C279.13 137.44 283.54 138.06 284.17 135.3C284.8 132.54 282.31 130.53 279.8 131.42C277.73 132.15 276.27 135.03 276.05 137.11C275.82 139.36 277.16 141.63 279.45 142.14C281.92 142.69 283.84 140.72 284.25 138.44C284.62 136.38 284.3 133.97 282.36 132.78C280.29 131.51 277.64 132.7 276.25 134.4C273.39 137.91 275.24 143.49 279.82 144.28C281.15 144.51 282.51 143.93 282.9 142.53C283.23 141.33 282.49 139.68 281.15 139.45C280.53 139.34 279.89 139.11 279.8 138.4C279.77 138.13 279.84 137.94 279.99 137.71C280.47 136.94 280.96 137.6 279.55 136.87C279.22 136.7 279.47 136.33 279.42 136.83C279.42 136.85 279.4 137.17 279.39 137.29C279.39 137.32 279.33 137.87 279.28 137.77C279.28 137.76 280.76 137.38 280.8 137.37C281.33 137.2 280.62 137.86 281.12 137.22C281.28 137.01 281.39 136.72 281.52 136.49C281.62 136.32 281.72 136.15 281.83 135.99C282.29 135.34 281.68 135.32 279.99 135.91L279.35 134.81L279.42 135.06V133.73L279.36 133.99L284.27 134.65L284.32 133.57L280.56 135.73C284.2 137.44 287.04 140.44 288.31 144.28L292.49 141.85C288.86 138.95 285.24 136.05 281.61 133.15L281.1 137.08C282 136.55 284.7 139.22 285.35 139.75C287.19 141.25 288.98 142.8 290.72 144.42C292.46 146.04 294.14 147.71 295.77 149.43C297.1 150.84 298.81 152.36 299.52 154.22L303.7 151.79C300.12 148.66 295.53 146.6 291.42 144.29C289.28 143.08 287.14 141.88 285 140.67C282.86 139.46 280.77 137.98 278.1 138.4C276.77 138.61 276.03 140.28 276.35 141.48C276.74 142.9 278.09 143.44 279.43 143.23L279.42 143.2Z" fill="black"/>
<path d="M318.82 156.02C321.28 154.5 324.14 154.02 326.92 153.42C330.15 152.72 333.36 151.92 336.55 151.02C339.74 150.12 342.74 149.19 345.8 148.13C348.63 147.16 352.43 146.46 353.49 143.26C354.33 140.73 351.06 139.29 349.31 140.83C348.89 141.2 348.46 141.13 347.94 141.07L350.35 144.23C350.53 143.72 350.94 143.24 351.46 143.04C352.75 142.55 353.56 141.38 353.21 139.96C352.31 136.36 348.06 136.61 345.2 137.07C341.83 137.6 338.66 139 335.61 140.48C329.08 143.64 322.62 146.97 316.14 150.22L318.66 154.54C323 152.24 326.91 149.2 331.34 147.08C335.77 144.96 341.07 144.45 346.09 144.06L344.83 139.4C341.01 141.22 337.19 143.04 333.37 144.85C332.15 145.43 331.83 147.18 332.47 148.27C333.2 149.52 334.67 149.75 335.89 149.17C339.71 147.35 343.53 145.53 347.35 143.72C349.56 142.67 348.52 138.88 346.09 139.06C340.43 139.49 334.83 140.06 329.59 142.4C324.84 144.52 320.72 147.79 316.14 150.22C313.28 151.74 315.8 155.97 318.66 154.54C324.19 151.77 329.73 149 335.26 146.23C337.69 145.02 340.11 143.75 342.68 142.87C343.92 142.45 345.21 142.08 346.52 141.89C347.2 141.79 347.9 141.85 348.57 141.78C348.35 141.81 348.81 141.76 348.8 141.83C348.77 141.95 348.19 140.54 348.39 141.3L350.14 138.22C347.89 139.08 346.34 140.62 345.54 142.9C344.95 144.6 346.47 145.88 347.95 146.06C349.8 146.29 351.49 145.56 352.86 144.36L348.68 141.93C348.85 141.41 348.82 141.71 348.26 141.96C347.55 142.28 346.77 142.51 346.04 142.77C344.63 143.27 343.21 143.75 341.79 144.22C338.87 145.17 335.92 146.04 332.95 146.83C329.98 147.62 327.21 148.26 324.32 148.88C321.43 149.5 318.75 150.2 316.3 151.71C313.57 153.4 316.08 157.73 318.82 156.03V156.02Z" fill="black"/>
<path d="M264.31 212.24C264.31 212.24 237.44 217.47 240.1 229.36C242.76 241.25 245.01 253.27 252.88 251.29C260.76 249.31 265.32 246.29 273.88 241.66C282.43 237.04 278.4 269.92 290.7 262.74C303 255.56 324.33 233.01 326.97 224.41C329.61 215.81 310.32 195.85 264.31 212.24Z" fill="#E8395C" stroke="black" stroke-width="4" stroke-miterlimit="10"/>
<path d="M331.13 90.2C331.13 90.2 356.12 26.18 381.35 27.04C406.58 27.9 407.54 48.4 416.88 50.29C426.22 52.17 437.82 67.36 442.07 80.93C446.32 94.5 468.94 122.31 452.61 124.15C436.28 125.99 350.14 77.29 331.14 90.2H331.13Z" fill="#E8395C" stroke="black" stroke-width="4" stroke-miterlimit="10"/>
<path d="M269.19 170.11C266.56 171.9 249.94 197.51 263.76 203.19C277.58 208.87 301.51 209.31 302.17 198.73C302.84 188.15 291.62 154.83 269.19 170.11Z" fill="#FAD8D9" stroke="#010101" stroke-width="4" stroke-miterlimit="10"/>
<path d="M278.04 191.57C277.47 191.77 276.87 192.04 276.64 192.64C276.41 193.24 276.7 193.82 277.1 194.29C277.6 194.87 278.22 195.32 278.84 195.75C279.18 195.98 279.54 196.19 279.87 196.43C279.99 196.52 280.33 196.71 280.3 196.92C280.3 197.03 280.1 197.21 280.04 197.29C279.68 197.77 279.38 198.23 279.5 198.84C279.63 199.58 280.17 199.99 280.66 200.5C281.28 201.16 281.1 202.04 281.25 202.86C281.4 203.68 281.75 204.42 282.23 205.06C282.71 205.7 283.79 205.08 283.31 204.43C282.88 203.86 282.58 203.24 282.46 202.53C282.34 201.89 282.43 201.22 282.2 200.6C281.97 199.98 281.47 199.61 281.04 199.12C280.49 198.51 280.93 198.25 281.27 197.7C282.03 196.52 281.04 195.69 280.1 195.07C279.52 194.69 278.93 194.32 278.43 193.85C278.29 193.72 277.74 193.28 277.78 193.09C277.82 192.9 278.19 192.8 278.36 192.75C279.12 192.48 278.79 191.27 278.04 191.54V191.57Z" fill="#E31919"/>
<path d="M274.76 189.69C274.32 190.14 273.26 189.87 272.66 190.04C272.06 190.21 271.55 190.55 271.15 191.01C270.96 191.24 270.8 191.49 270.67 191.77C270.54 192.05 270.48 192.58 270.21 192.75C269.75 193.06 268.72 192.7 268.21 192.75C267 192.86 265.6 193.63 264.77 194.51C264.46 194.84 264.34 195.28 264.6 195.67C264.85 196.04 265.36 195.94 265.59 196.23L265.48 195.47C265 196.33 264.2 196.96 263.2 197.12C262.3 197.26 261.56 197.17 260.8 197.78C260.18 198.28 261.07 199.15 261.69 198.66C262.09 198.33 262.78 198.44 263.27 198.37C263.76 198.3 264.18 198.18 264.59 197.98C265.43 197.58 266.1 196.9 266.56 196.09C266.7 195.82 266.63 195.56 266.45 195.33C266.32 195.16 266.17 195.08 265.98 194.99C265.89 194.95 265.79 194.92 265.7 194.9C265.52 194.82 265.5 194.85 265.67 195.01L265.61 195.48C265.79 195.07 266.56 194.69 266.93 194.48C267.45 194.18 267.99 193.96 268.6 193.97C269.46 193.97 270.35 194.28 271.08 193.64C271.87 192.93 271.72 191.75 272.83 191.3C273.81 190.9 274.82 191.4 275.65 190.55C276.2 189.97 275.31 189.1 274.76 189.67V189.69Z" fill="#E31919"/>
<path d="M269.77 192.28C269.44 191.36 268.88 190.57 268.09 189.98C267.68 189.67 267.23 189.43 266.75 189.25C266.54 189.17 266.32 189.12 266.1 189.07C265.98 189.05 265.8 189 265.67 189.01H265.53C265.63 189.17 265.7 189.2 265.73 189.09C265.87 189 265.98 188.62 266.02 188.47C266.08 188.24 266.08 187.98 266.02 187.75C265.91 187.3 265.61 186.9 265.27 186.59C264.93 186.28 264.52 185.93 264.09 185.72C263.88 185.61 263.65 185.52 263.41 185.48C263.28 185.46 263.15 185.45 263.03 185.44H262.95C262.82 185.39 262.81 185.39 262.92 185.44C262.53 184.74 261.45 185.37 261.84 186.07C262.08 186.51 262.5 186.62 262.96 186.69C263.42 186.76 263.79 187 264.15 187.29C264.38 187.48 264.84 187.81 264.81 188.17C264.79 188.34 264.63 188.53 264.56 188.69C264.45 188.94 264.4 189.21 264.46 189.49C264.58 190.01 264.97 190.23 265.48 190.28C265.93 190.33 266.36 190.44 266.77 190.65C267.58 191.07 268.24 191.77 268.55 192.63C268.82 193.39 270.03 193.06 269.76 192.31L269.74 192.28H269.77Z" fill="#E31919"/>
<path d="M278.59 184.13C279.2 183.58 280.02 182.77 280.23 181.94C280.44 181.11 279.79 180.54 279.04 180.34C278.86 180.29 278.68 180.3 278.5 180.24C278.24 180.15 278.27 180.21 278.29 179.98C278.32 179.68 278.65 179.32 278.73 179.01C278.9 178.38 278.8 177.73 278.73 177.1C278.66 176.47 278.59 175.83 279.24 175.45C279.97 175.03 280.68 174.83 281.02 173.98C281.33 173.23 281.21 172.41 280.81 171.72C280.56 171.3 280.22 170.99 279.88 170.64C279.54 170.29 279.7 170.03 279.91 169.63C280.05 169.36 279.98 169.1 279.8 168.87C279.64 168.68 279.49 168.48 279.34 168.29C278.84 167.67 277.97 168.56 278.46 169.18C278.62 169.37 278.77 169.57 278.92 169.76L278.81 169C278.48 169.6 278.2 170.33 278.55 170.99C278.97 171.77 279.98 172.11 279.93 173.14C279.89 174.08 278.72 174.16 278.13 174.68C277.64 175.11 277.43 175.72 277.42 176.37C277.41 177.02 277.57 177.65 277.55 178.28C277.53 178.91 276.98 179.42 276.96 180.08C276.93 180.91 277.61 181.32 278.33 181.47C278.45 181.5 278.82 181.5 278.89 181.6C278.99 181.75 278.87 181.84 278.76 182.01C278.45 182.48 278.08 182.88 277.66 183.25C277.06 183.79 277.96 184.66 278.55 184.13H278.56H278.59Z" fill="#E31919"/>
<path d="M280.61 175.41C281.06 175.29 281.68 175.67 282.14 175.72C282.74 175.79 283.34 175.71 283.88 175.47C284.19 175.34 284.23 175.26 284.53 175.44C284.76 175.58 284.99 175.71 285.24 175.81C285.78 176.04 286.34 176.17 286.93 176.2C287.52 176.23 288.04 176.13 288.57 176C288.95 175.9 289.14 175.94 289.46 176.14C289.73 176.31 290 176.49 290.27 176.64C291.33 177.21 292.64 177.27 293.39 176.19C293.85 175.53 292.75 174.92 292.3 175.57C291.68 176.47 290.05 174.93 289.4 174.74C288.83 174.58 288.35 174.8 287.8 174.91C287.25 175.02 286.71 174.98 286.19 174.84C285.67 174.7 285.31 174.42 284.84 174.21C284.29 173.96 283.89 174.13 283.37 174.34C282.85 174.55 282.31 174.55 281.77 174.38C281.26 174.22 280.8 174.07 280.27 174.21C279.49 174.42 279.81 175.63 280.59 175.42V175.4L280.61 175.41Z" fill="#E31919"/>
<path d="M284.37 188.73L286.89 188.27L288.1 188.05C288.42 187.99 288.82 187.84 289.12 188.02C289.61 188.3 289.83 189 290.26 189.37C290.69 189.74 291.23 189.88 291.78 189.89C292.33 189.9 292.92 189.76 293.46 189.64C293.73 189.57 294.07 189.45 294.34 189.53C294.61 189.61 294.84 189.87 295.05 190.03C296.14 190.87 297.57 190.44 298.75 191.09C299.45 191.48 300.07 190.39 299.37 190C298.75 189.65 298.1 189.47 297.4 189.4C297.06 189.38 296.71 189.4 296.39 189.31C296.07 189.22 295.82 189.03 295.56 188.82C295.01 188.38 294.48 188.18 293.77 188.29C293.16 188.39 292.56 188.61 291.93 188.63C290.57 188.67 290.42 186.88 289.1 186.71C288.36 186.61 287.52 186.89 286.79 187.03L284.05 187.53C283.26 187.68 283.59 188.88 284.37 188.74V188.73Z" fill="#E31919"/>
<path d="M293.86 188.45C293.86 188.05 293.99 187.67 294.27 187.38C294.42 187.22 294.56 187.11 294.77 187.02C294.97 186.94 295.26 186.86 295.48 186.75C295.75 186.62 295.97 186.4 296.1 186.12C296.16 185.97 296.19 185.82 296.21 185.66C296.22 185.56 296.21 185.43 296.23 185.34C296.27 185.23 296.45 185.16 296.58 185.09C296.87 184.95 297.15 184.82 297.44 184.68C297.75 184.53 297.82 184.1 297.66 183.83C297.48 183.52 297.11 183.47 296.81 183.61C296.24 183.87 295.51 184.1 295.18 184.66C295.01 184.94 294.99 185.26 294.97 185.58C294.97 185.62 294.92 185.69 294.97 185.62C295.01 185.55 295 185.6 294.93 185.63C294.82 185.67 294.72 185.72 294.61 185.75C293.45 186.14 292.6 187.19 292.63 188.45C292.65 189.25 293.9 189.25 293.88 188.45H293.86Z" fill="#E31919"/>
<path d="M281.82 197.17C282.41 196.71 282.67 197.72 283.14 198C283.54 198.24 284 198.29 284.45 198.29C284.98 198.29 285.48 198.22 285.97 198.44C286.61 198.73 287.25 199.12 287.83 199.52C288.41 199.92 288.95 200.43 289.24 201.08C289.48 201.63 289.5 202.3 289.95 202.74C290.4 203.18 290.9 203.08 291.46 203.16C292.02 203.24 292.41 203.68 292.53 204.22C292.71 205.01 293.91 204.69 293.74 203.9C293.6 203.28 293.25 202.74 292.73 202.37C292.49 202.2 292.23 202.06 291.94 201.99C291.65 201.92 291.27 201.99 290.98 201.9C290.62 201.78 290.61 201.21 290.5 200.88C290.38 200.53 290.21 200.2 289.99 199.9C289.53 199.25 288.92 198.75 288.26 198.32C287.64 197.91 286.96 197.48 286.25 197.22C285.63 196.98 285.01 197.05 284.37 197.05C284.11 197.05 283.89 197.05 283.69 196.86C283.43 196.61 283.34 196.26 283.02 196.05C282.46 195.68 281.71 195.69 281.18 196.11C280.55 196.59 281.17 197.68 281.81 197.19H281.82V197.17Z" fill="#E31919"/>
<path d="M289.76 199.99C290.73 199.9 291.34 199.3 292.16 198.88C293.05 198.43 293.76 199.23 294.61 199.39C295.02 199.46 295.46 199.45 295.82 199.25C296.25 199.02 296.43 198.49 296.94 198.43C297.45 198.37 298.05 198.5 298.57 198.56C299.19 198.63 299.8 198.7 300.42 198.77C301.22 198.86 301.22 197.61 300.42 197.52C299.84 197.45 299.26 197.39 298.67 197.32C298.14 197.26 297.57 197.15 297.03 197.17C296.54 197.19 296.05 197.32 295.69 197.66C295.53 197.81 295.42 198.06 295.22 198.14C295.05 198.2 294.83 198.14 294.66 198.1C293.79 197.81 293.13 197.26 292.15 197.53C291.3 197.77 290.64 198.64 289.77 198.72C288.97 198.79 288.97 200.04 289.77 199.97H289.76V199.99Z" fill="#E31919"/>
<path d="M276.27 184.89C275.34 184.18 274.38 183.46 273.22 183.14C272.84 183.04 272.06 183.09 271.88 182.67C271.69 182.23 271.91 181.54 271.88 181.07C271.76 179.77 270.72 179.13 269.71 178.5C269.16 178.16 268.72 177.65 268.15 177.36C267.9 177.23 267.64 177.14 267.35 177.11C267.21 177.09 267.08 177.1 266.93 177.11C266.89 177.11 266.57 177.18 266.61 177.2L266.99 177.49L266.95 177.42C266.61 176.69 265.53 177.32 265.88 178.04C266.15 178.61 266.64 178.36 267.1 178.34C267.7 178.3 268.25 179.02 268.7 179.34C269.21 179.7 269.82 179.96 270.25 180.41C270.71 180.88 270.63 181.42 270.6 182.02C270.54 183.14 270.99 184 272.17 184.22C273.43 184.45 274.38 185.04 275.38 185.8C276.01 186.28 276.89 185.39 276.26 184.91L276.27 184.89Z" fill="#E31919"/>
<path d="M271.09 179.62C271.71 179.13 272.32 178.44 272.25 177.59C272.18 176.82 271.58 176.09 270.76 176.13L271.3 177.06C271.63 176.6 271.78 176.05 271.9 175.51C272.02 174.97 272.14 174.4 272.18 173.83C272.2 173.52 272.18 173.2 272 172.93C271.93 172.81 271.82 172.71 271.7 172.63C271.65 172.6 271.6 172.57 271.55 172.55C271.58 172.6 271.59 172.61 271.56 172.57C271.5 172.47 271.52 172.3 271.49 172.18C271.46 172.05 271.41 171.92 271.34 171.8C271.19 171.55 270.96 171.36 270.67 171.29C269.88 171.11 269.57 172.32 270.35 172.49C270.38 172.49 270.26 172.44 270.26 172.42C270.29 172.51 270.3 172.59 270.32 172.68C270.36 172.9 270.42 173.12 270.56 173.31C270.64 173.43 270.74 173.53 270.87 173.6C270.91 173.62 270.94 173.65 270.99 173.66C271.06 173.7 271.05 173.68 270.95 173.59C270.9 173.74 270.94 173.97 270.92 174.12C270.87 174.55 270.76 174.98 270.66 175.4C270.57 175.79 270.47 176.14 270.23 176.46C269.95 176.84 270.34 177.42 270.77 177.39C270.86 177.39 270.88 177.37 270.94 177.49C270.98 177.56 271.02 177.67 271.02 177.74C270.99 178.17 270.5 178.52 270.2 178.75C269.94 178.96 269.99 179.42 270.2 179.64C270.47 179.9 270.81 179.84 271.09 179.64V179.62Z" fill="#E31919"/>
<path d="M269.19 170.11C266.56 171.9 249.94 197.51 263.76 203.19C277.58 208.87 301.51 209.31 302.17 198.73C302.83 188.15 291.62 154.83 269.19 170.11Z" stroke="#010101" stroke-width="4" stroke-miterlimit="10"/>
<path d="M280.49 185.93C280 185.73 279.6 185.57 279.06 185.57C278.67 185.57 278.35 185.66 278 185.8C277.83 185.87 277.69 185.91 277.55 186C277.12 186.29 276.75 186.64 276.51 187.11C276.19 187.75 276.07 188.49 276.25 189.19C276.39 189.7 276.66 190.15 277.01 190.53C277.04 190.57 277.09 190.6 277.13 190.64C277.33 190.81 277.56 190.99 277.8 191.11C278.25 191.33 278.73 191.48 279.24 191.48C279.71 191.48 280.1 191.38 280.52 191.21C281.1 190.97 281.61 190.6 282.03 190.13C282.25 189.89 282.47 189.62 282.62 189.32C282.86 188.87 283.01 188.33 282.99 187.82C282.96 187.17 282.76 186.6 282.36 186.09C282.08 185.73 281.77 185.43 281.35 185.22C280.68 184.88 280.06 184.8 279.32 184.73C278.81 184.68 278.26 184.66 277.77 184.8C276.69 185.08 275.88 186 275.64 187.08C275.49 187.82 275.49 188.43 275.63 189.16C275.77 189.89 276.12 190.46 276.57 191C276.61 191.05 276.65 191.09 276.7 191.14C276.88 191.3 277.11 191.48 277.32 191.6C277.78 191.85 278.3 192.01 278.83 192.01C279.55 192.01 280.16 191.73 280.79 191.44C281.56 191.09 282.24 190.56 282.75 189.88C282.91 189.67 283.05 189.48 283.15 189.25C283.39 188.69 283.49 188.33 283.56 187.73C283.61 187.17 283.45 186.58 283.19 186.1C283.07 185.87 282.87 185.61 282.69 185.43C282.4 185.16 282.11 184.99 281.76 184.85C280.95 184.52 280.14 184.53 279.3 184.68C278.74 184.77 278.24 185.05 277.75 185.31L278.37 185.06C278.37 185.06 278.31 185.08 278.28 185.08L278.92 184.99H278.87L280.1 185.31L280.06 185.29L280.99 186.21L280.96 186.17L281.21 186.79V186.74V188.01V187.96L280.98 188.55C280.98 188.55 281.02 188.47 281.04 188.44L280.65 188.96C280.95 188.61 281.28 188.3 281.6 187.98C282.02 187.55 282.34 186.84 282.31 186.24C282.28 185.6 282.07 184.89 281.55 184.45C281.13 184.08 280.78 183.88 280.26 183.7C280.1 183.64 279.96 183.64 279.78 183.62C279.63 183.6 279.46 183.56 279.3 183.57C278.58 183.58 278.05 183.78 277.41 184.07C276.36 184.55 275.44 185.46 275.18 186.61C275.11 186.89 275.07 187.22 275.08 187.51C275.08 187.82 275.13 188.17 275.22 188.47C275.43 189.13 275.72 189.61 276.18 190.13C276.33 190.3 276.5 190.42 276.69 190.56C276.88 190.7 277.04 190.83 277.25 190.93C277.89 191.22 278.5 191.38 279.2 191.4C280.19 191.4 281.2 191.09 282.05 190.61C283.21 189.96 284.05 188.85 284.23 187.53C284.34 186.74 284.2 185.99 283.83 185.29C283.74 185.14 283.63 185.01 283.53 184.88C283.43 184.75 283.33 184.6 283.21 184.5C282.98 184.28 282.68 184.05 282.39 183.9C282.1 183.75 281.77 183.61 281.44 183.55C281.11 183.49 280.76 183.43 280.42 183.45C279.67 183.5 279.05 183.68 278.37 184.03C278.23 184.11 278.08 184.2 277.96 184.29C277.67 184.51 277.37 184.73 277.1 184.99C276.75 185.34 276.44 185.76 276.18 186.2C275.68 187.08 275.38 188.16 275.42 189.18C275.44 189.84 275.69 190.5 276.18 190.97C276.61 191.39 277.32 191.71 277.92 191.68C278.58 191.66 279.26 191.43 279.71 190.92C280.14 190.44 280.44 189.83 280.42 189.18C280.41 189 280.42 188.82 280.44 188.65L280.36 189.29C280.4 189 280.47 188.73 280.58 188.46L280.34 189.05C280.45 188.79 280.59 188.53 280.77 188.3L280.38 188.82C280.55 188.61 280.73 188.42 280.94 188.25L280.42 188.66C280.63 188.5 280.85 188.36 281.09 188.27L280.47 188.52C280.63 188.46 280.8 188.41 280.97 188.38L280.33 188.47C280.47 188.46 280.62 188.45 280.76 188.47L280.12 188.39C280.23 188.41 280.33 188.44 280.44 188.48L279.85 188.24C279.96 188.28 280.05 188.34 280.13 188.41L279.61 188.02C279.68 188.07 279.74 188.14 279.8 188.21L279.39 187.69L279.52 187.91L279.27 187.29C279.3 187.38 279.32 187.46 279.34 187.54L279.25 186.9C279.25 187.01 279.25 187.11 279.25 187.23L279.33 186.59C279.31 186.7 279.28 186.8 279.24 186.91L279.48 186.32C279.43 186.44 279.36 186.57 279.28 186.67L279.67 186.15C279.57 186.28 279.46 186.37 279.34 186.48L279.86 186.07C279.64 186.25 279.39 186.38 279.13 186.49L279.75 186.24C279.47 186.36 279.18 186.44 278.88 186.48L279.52 186.39C279.32 186.42 279.11 186.42 278.91 186.39L279.55 186.47C279.4 186.44 279.25 186.4 279.09 186.34L279.68 186.58C279.57 186.53 279.47 186.48 279.37 186.41L279.89 186.8C279.79 186.72 279.69 186.62 279.61 186.52L280.02 187.04C279.94 186.94 279.87 186.83 279.82 186.7L280.07 187.32C280.02 187.2 279.99 187.08 279.97 186.95L280.06 187.59C280.06 187.5 280.05 187.41 280.06 187.32L279.98 187.96C280 187.87 280.02 187.79 280.05 187.7L279.81 188.29C279.85 188.21 279.89 188.14 279.94 188.06L279.55 188.58C279.63 188.49 279.71 188.4 279.82 188.32L279.3 188.73C279.51 188.57 279.74 188.45 279.98 188.35L279.36 188.6C279.51 188.54 279.66 188.5 279.82 188.47L279.18 188.56C279.28 188.55 279.37 188.56 279.46 188.56L278.82 188.48C278.82 188.48 278.92 188.5 278.98 188.53L278.39 188.29C278.39 188.29 278.49 188.34 278.53 188.37L278.01 187.98L278.05 188.01L278.01 184.47C277.79 184.7 277.57 184.92 277.35 185.16C277.26 185.26 277.16 185.35 277.07 185.45C276.66 185.91 276.41 186.42 276.33 187.04C276.29 187.37 276.29 187.72 276.38 188.05C276.48 188.41 276.65 188.69 276.87 188.98C277.09 189.27 277.28 189.46 277.63 189.66C277.98 189.86 278.48 189.99 278.9 189.99C279.38 189.99 279.88 189.85 280.3 189.6C280.43 189.52 280.55 189.45 280.68 189.4L280.06 189.65C280.25 189.58 280.45 189.52 280.65 189.49L280.01 189.58C280.18 189.56 280.36 189.56 280.54 189.58L279.9 189.5C280 189.51 280.08 189.53 280.18 189.56L279.59 189.32C279.59 189.32 279.67 189.36 279.7 189.39L279.18 189L279.22 189.06C279.1 188.87 278.96 188.7 278.83 188.53L278.9 188.64L278.65 188.02C278.65 188.02 278.68 188.11 278.68 188.15L278.59 187.51C278.59 187.58 278.59 187.65 278.59 187.72L278.67 187.08C278.65 187.18 278.62 187.28 278.59 187.38L278.83 186.79C278.78 186.92 278.71 187.04 278.62 187.15L279.01 186.63C278.89 186.78 278.76 186.9 278.61 187.02L279.13 186.61C278.8 186.86 278.43 187.05 278.04 187.21L278.66 186.96C278.53 187.01 278.41 187.06 278.27 187.08L278.91 186.99C278.91 186.99 278.82 186.99 278.78 186.99L279.42 187.07C279.42 187.07 279.34 187.06 279.31 187.04L279.9 187.28C279.84 187.26 279.8 187.22 279.75 187.2L280.27 187.59C280.2 187.54 280.15 187.48 280.1 187.41L280.51 187.93C280.45 187.84 280.4 187.75 280.35 187.65L280.6 188.27C280.54 188.11 280.49 187.95 280.47 187.78L280.56 188.42C280.54 188.22 280.53 188.03 280.56 187.83L280.48 188.47C280.5 188.32 280.53 188.18 280.59 188.05L280.35 188.64L280.38 188.58L279.99 189.1C279.99 189.1 280.05 189.02 280.09 188.99L279.57 189.4L279.63 189.36L279.01 189.61C279.01 189.61 279.1 189.58 279.15 189.57L278.51 189.66C278.88 189.64 279.27 189.66 279.63 189.72L278.99 189.64C279.16 189.67 279.32 189.7 279.48 189.76L278.89 189.52C278.95 189.55 279.01 189.58 279.08 189.62L278.56 189.23C278.56 189.23 278.65 189.31 278.69 189.36L278.28 188.84L278.34 188.94L278.09 188.32V188.38L278.02 187.74C278.02 187.74 278.03 187.82 278.02 187.87L278.1 187.23C278.1 187.23 278.09 187.31 278.08 187.35L278.32 186.76C278.28 186.84 278.24 186.91 278.2 186.98L278.59 186.46C278.46 186.63 278.3 186.79 278.13 186.92L278.65 186.51C278.55 186.59 278.44 186.65 278.33 186.7L278.95 186.45C278.88 186.48 278.81 186.49 278.74 186.5L279.38 186.41C279.33 186.41 279.27 186.41 279.21 186.41L279.85 186.49C279.85 186.49 279.74 186.46 279.69 186.45L280.28 186.69C280.28 186.69 280.18 186.64 280.13 186.61L280.65 187C280.65 187 280.57 186.93 280.53 186.89L280.94 187.41L280.86 187.27L281.11 187.89C281.11 187.89 281.09 187.82 281.09 187.79L281.18 188.43C281.18 188.43 281.18 188.36 281.18 188.32L281.1 188.96V188.91L280.87 189.5C280.87 189.5 280.9 189.44 280.92 189.4L280.53 189.92C280.53 189.92 280.58 189.87 280.6 189.84L280.08 190.25L280.22 190.17L279.6 190.42C279.6 190.42 279.67 190.4 279.7 190.4L279.06 190.49C279.06 190.49 279.13 190.49 279.17 190.49L278.53 190.41H278.58L277.99 190.18L278.04 190.2C278.32 190.37 278.63 190.47 278.95 190.48C279.27 190.55 279.59 190.54 279.91 190.44C280.51 190.28 281.16 189.81 281.45 189.25C281.74 188.69 281.88 188 281.69 187.38C281.5 186.76 281.11 186.1 280.5 185.84V185.9L280.49 185.93Z" fill="#010101"/>
<path d="M321.09 179.24C318.46 181.03 301.84 206.64 315.66 212.32C329.48 218 353.41 218.44 354.07 207.86C354.73 197.28 343.52 163.96 321.09 179.24Z" fill="#FAD8D9" stroke="#010101" stroke-width="4" stroke-miterlimit="10"/>
<path d="M329.93 200.7C329.36 200.9 328.76 201.17 328.53 201.77C328.3 202.37 328.59 202.95 328.99 203.42C329.49 204 330.11 204.45 330.73 204.88C331.07 205.11 331.43 205.32 331.76 205.56C331.88 205.65 332.22 205.84 332.19 206.05C332.19 206.16 331.99 206.34 331.93 206.42C331.57 206.9 331.27 207.36 331.39 207.97C331.52 208.71 332.06 209.12 332.55 209.63C333.17 210.29 332.99 211.17 333.14 211.99C333.29 212.81 333.64 213.55 334.12 214.19C334.6 214.83 335.68 214.21 335.2 213.56C334.77 212.99 334.47 212.37 334.35 211.66C334.23 211.02 334.32 210.35 334.09 209.73C333.86 209.11 333.36 208.74 332.93 208.25C332.38 207.64 332.82 207.38 333.16 206.83C333.92 205.65 332.93 204.82 331.99 204.2C331.41 203.82 330.82 203.45 330.32 202.98C330.18 202.85 329.63 202.41 329.67 202.22C329.71 202.03 330.08 201.93 330.25 201.88C331.01 201.61 330.68 200.4 329.93 200.67V200.7Z" fill="#E31919"/>
<path d="M326.66 198.82C326.22 199.27 325.16 199 324.56 199.17C323.96 199.34 323.45 199.68 323.05 200.14C322.86 200.37 322.7 200.62 322.57 200.9C322.44 201.18 322.38 201.71 322.11 201.88C321.65 202.19 320.62 201.83 320.11 201.88C318.9 201.99 317.5 202.76 316.67 203.64C316.36 203.97 316.24 204.41 316.5 204.8C316.75 205.17 317.26 205.07 317.49 205.36L317.38 204.6C316.9 205.46 316.1 206.09 315.1 206.25C314.2 206.39 313.46 206.3 312.7 206.91C312.08 207.41 312.97 208.28 313.59 207.79C313.99 207.46 314.68 207.57 315.17 207.5C315.66 207.43 316.08 207.31 316.49 207.11C317.33 206.71 318 206.03 318.46 205.22C318.6 204.95 318.53 204.69 318.35 204.46C318.22 204.29 318.07 204.21 317.88 204.12C317.79 204.08 317.69 204.05 317.6 204.03C317.42 203.95 317.4 203.98 317.57 204.14L317.51 204.61C317.69 204.2 318.46 203.82 318.83 203.61C319.35 203.31 319.89 203.09 320.5 203.1C321.36 203.1 322.25 203.41 322.98 202.77C323.77 202.06 323.62 200.88 324.73 200.43C325.71 200.03 326.72 200.53 327.55 199.68C328.1 199.1 327.21 198.23 326.66 198.8V198.82Z" fill="#E31919"/>
<path d="M321.67 201.4C321.34 200.48 320.78 199.69 319.99 199.1C319.58 198.79 319.13 198.55 318.65 198.37C318.44 198.29 318.22 198.24 318 198.19C317.88 198.17 317.7 198.12 317.57 198.13H317.43C317.53 198.29 317.6 198.32 317.63 198.21C317.77 198.12 317.88 197.74 317.92 197.59C317.98 197.36 317.98 197.1 317.92 196.87C317.81 196.42 317.51 196.02 317.17 195.71C316.83 195.4 316.42 195.05 315.99 194.84C315.78 194.73 315.55 194.64 315.31 194.6C315.18 194.58 315.05 194.57 314.93 194.56H314.85C314.72 194.51 314.71 194.51 314.82 194.56C314.43 193.86 313.35 194.49 313.74 195.19C313.98 195.63 314.4 195.74 314.86 195.81C315.32 195.88 315.69 196.12 316.05 196.41C316.28 196.6 316.74 196.93 316.71 197.29C316.69 197.46 316.53 197.65 316.46 197.81C316.35 198.06 316.3 198.33 316.36 198.61C316.48 199.13 316.87 199.35 317.38 199.4C317.83 199.45 318.26 199.56 318.67 199.77C319.48 200.19 320.14 200.89 320.45 201.75C320.72 202.51 321.93 202.18 321.66 201.43L321.64 201.4H321.67Z" fill="#E31919"/>
<path d="M330.5 193.26C331.11 192.71 331.93 191.9 332.14 191.07C332.35 190.24 331.7 189.67 330.95 189.47C330.77 189.42 330.59 189.43 330.41 189.37C330.15 189.28 330.18 189.34 330.2 189.11C330.23 188.81 330.56 188.45 330.64 188.14C330.81 187.51 330.71 186.86 330.64 186.23C330.57 185.6 330.5 184.96 331.15 184.58C331.88 184.16 332.59 183.96 332.93 183.11C333.24 182.36 333.12 181.54 332.72 180.85C332.47 180.43 332.13 180.12 331.79 179.77C331.45 179.42 331.61 179.16 331.82 178.76C331.96 178.49 331.89 178.23 331.71 178C331.55 177.81 331.4 177.61 331.25 177.42C330.75 176.8 329.88 177.69 330.37 178.31C330.53 178.5 330.68 178.7 330.83 178.89L330.72 178.13C330.39 178.73 330.11 179.46 330.46 180.12C330.88 180.9 331.89 181.24 331.84 182.27C331.8 183.21 330.63 183.29 330.04 183.81C329.55 184.24 329.34 184.85 329.33 185.5C329.32 186.15 329.48 186.78 329.46 187.41C329.44 188.04 328.89 188.55 328.87 189.21C328.84 190.04 329.52 190.45 330.24 190.6C330.36 190.63 330.73 190.63 330.8 190.73C330.9 190.88 330.78 190.97 330.67 191.14C330.36 191.61 329.99 192.01 329.57 192.38C328.97 192.92 329.87 193.79 330.46 193.26H330.47H330.5Z" fill="#E31919"/>
<path d="M332.5 184.54C332.95 184.42 333.57 184.8 334.03 184.85C334.63 184.92 335.23 184.84 335.77 184.6C336.08 184.47 336.12 184.39 336.42 184.57C336.65 184.71 336.88 184.84 337.13 184.94C337.67 185.17 338.23 185.3 338.82 185.33C339.41 185.36 339.93 185.26 340.46 185.13C340.84 185.03 341.03 185.07 341.35 185.27C341.62 185.44 341.89 185.62 342.16 185.77C343.22 186.34 344.53 186.4 345.28 185.32C345.74 184.66 344.64 184.05 344.19 184.7C343.57 185.6 341.94 184.06 341.29 183.87C340.72 183.71 340.24 183.93 339.69 184.04C339.14 184.15 338.6 184.11 338.08 183.97C337.56 183.83 337.2 183.55 336.73 183.34C336.18 183.09 335.78 183.26 335.26 183.47C334.74 183.68 334.2 183.68 333.66 183.51C333.15 183.35 332.69 183.2 332.16 183.34C331.38 183.55 331.7 184.76 332.48 184.55V184.53L332.5 184.54Z" fill="#E31919"/>
<path d="M336.26 197.86L338.78 197.4L339.99 197.18C340.31 197.12 340.71 196.97 341.01 197.15C341.5 197.43 341.72 198.13 342.15 198.5C342.58 198.87 343.12 199.01 343.67 199.02C344.22 199.03 344.81 198.89 345.35 198.77C345.62 198.7 345.96 198.58 346.23 198.66C346.5 198.74 346.73 199 346.94 199.16C348.03 200 349.46 199.57 350.64 200.22C351.34 200.61 351.96 199.52 351.26 199.13C350.64 198.78 349.99 198.6 349.29 198.53C348.95 198.51 348.6 198.53 348.28 198.44C347.96 198.35 347.71 198.16 347.45 197.95C346.9 197.51 346.37 197.31 345.66 197.42C345.05 197.52 344.45 197.74 343.82 197.76C342.46 197.8 342.31 196.01 340.99 195.84C340.25 195.74 339.41 196.02 338.68 196.16L335.94 196.66C335.15 196.81 335.48 198.01 336.26 197.87V197.86Z" fill="#E31919"/>
<path d="M345.75 197.58C345.75 197.18 345.88 196.8 346.16 196.51C346.31 196.35 346.45 196.24 346.66 196.15C346.86 196.07 347.15 195.99 347.37 195.88C347.64 195.75 347.86 195.53 347.99 195.25C348.05 195.1 348.08 194.95 348.1 194.79C348.11 194.69 348.1 194.56 348.12 194.47C348.16 194.36 348.34 194.29 348.47 194.22C348.76 194.08 349.04 193.95 349.33 193.81C349.64 193.66 349.71 193.23 349.55 192.96C349.37 192.65 349 192.6 348.7 192.74C348.13 193 347.4 193.23 347.07 193.79C346.9 194.07 346.88 194.39 346.86 194.71C346.86 194.75 346.81 194.82 346.86 194.75C346.9 194.68 346.89 194.73 346.82 194.76C346.71 194.8 346.61 194.85 346.5 194.88C345.34 195.27 344.49 196.32 344.52 197.58C344.54 198.38 345.79 198.38 345.77 197.58H345.75Z" fill="#E31919"/>
<path d="M333.72 206.3C334.31 205.84 334.57 206.85 335.04 207.13C335.44 207.37 335.9 207.42 336.35 207.42C336.88 207.42 337.38 207.35 337.87 207.57C338.51 207.86 339.15 208.25 339.73 208.65C340.31 209.05 340.85 209.56 341.14 210.21C341.38 210.76 341.4 211.43 341.85 211.87C342.3 212.31 342.8 212.21 343.36 212.29C343.92 212.37 344.31 212.81 344.43 213.35C344.61 214.14 345.81 213.82 345.64 213.03C345.5 212.41 345.15 211.87 344.63 211.5C344.39 211.33 344.13 211.19 343.84 211.12C343.55 211.05 343.17 211.12 342.88 211.03C342.52 210.91 342.51 210.34 342.4 210.01C342.28 209.66 342.11 209.33 341.89 209.03C341.43 208.38 340.82 207.88 340.16 207.45C339.54 207.04 338.86 206.61 338.15 206.35C337.53 206.11 336.91 206.18 336.27 206.18C336.01 206.18 335.79 206.18 335.59 205.99C335.33 205.74 335.24 205.39 334.92 205.18C334.36 204.81 333.61 204.82 333.08 205.24C332.45 205.72 333.07 206.81 333.71 206.32H333.72V206.3Z" fill="#E31919"/>
<path d="M341.65 209.12C342.62 209.03 343.23 208.43 344.05 208.01C344.94 207.56 345.65 208.36 346.5 208.52C346.91 208.59 347.35 208.58 347.71 208.38C348.14 208.15 348.32 207.62 348.83 207.56C349.34 207.5 349.94 207.63 350.46 207.69C351.08 207.76 351.69 207.83 352.31 207.9C353.11 207.99 353.11 206.74 352.31 206.65C351.73 206.58 351.15 206.52 350.56 206.45C350.03 206.39 349.46 206.28 348.92 206.3C348.43 206.32 347.94 206.45 347.58 206.79C347.42 206.94 347.31 207.19 347.11 207.27C346.94 207.33 346.72 207.27 346.55 207.23C345.68 206.94 345.02 206.39 344.04 206.66C343.19 206.9 342.53 207.77 341.66 207.85C340.86 207.92 340.86 209.17 341.66 209.1H341.65V209.12Z" fill="#E31919"/>
<path d="M328.16 194.02C327.23 193.31 326.27 192.59 325.11 192.27C324.73 192.17 323.95 192.22 323.77 191.8C323.58 191.36 323.8 190.67 323.77 190.2C323.65 188.9 322.61 188.26 321.6 187.63C321.05 187.29 320.61 186.78 320.04 186.49C319.79 186.36 319.53 186.27 319.24 186.24C319.1 186.22 318.97 186.23 318.82 186.24C318.78 186.24 318.46 186.31 318.5 186.33L318.88 186.62L318.84 186.55C318.5 185.82 317.42 186.45 317.77 187.17C318.04 187.74 318.53 187.49 318.99 187.47C319.59 187.43 320.14 188.15 320.59 188.47C321.1 188.83 321.71 189.09 322.14 189.54C322.6 190.01 322.52 190.55 322.49 191.15C322.43 192.27 322.88 193.13 324.06 193.35C325.32 193.58 326.27 194.17 327.27 194.93C327.9 195.41 328.78 194.52 328.15 194.04L328.16 194.02Z" fill="#E31919"/>
<path d="M322.99 188.75C323.61 188.26 324.22 187.57 324.15 186.72C324.08 185.95 323.48 185.22 322.66 185.26L323.2 186.19C323.53 185.73 323.68 185.18 323.8 184.64C323.92 184.1 324.04 183.53 324.08 182.96C324.1 182.65 324.08 182.33 323.9 182.06C323.83 181.94 323.72 181.84 323.6 181.76C323.55 181.73 323.5 181.7 323.45 181.68C323.48 181.73 323.49 181.74 323.46 181.7C323.4 181.6 323.42 181.43 323.39 181.31C323.36 181.18 323.31 181.05 323.24 180.93C323.09 180.68 322.86 180.49 322.57 180.42C321.78 180.24 321.47 181.45 322.25 181.62C322.28 181.62 322.16 181.57 322.16 181.55C322.19 181.64 322.2 181.72 322.22 181.81C322.26 182.03 322.32 182.25 322.46 182.44C322.54 182.56 322.64 182.66 322.77 182.73C322.81 182.75 322.84 182.78 322.89 182.79C322.96 182.83 322.95 182.81 322.85 182.72C322.8 182.87 322.84 183.1 322.82 183.25C322.77 183.68 322.66 184.11 322.56 184.53C322.47 184.92 322.37 185.27 322.13 185.59C321.85 185.97 322.24 186.55 322.67 186.52C322.76 186.52 322.78 186.5 322.84 186.62C322.88 186.69 322.92 186.8 322.92 186.87C322.89 187.3 322.4 187.65 322.1 187.88C321.84 188.09 321.89 188.55 322.1 188.77C322.37 189.03 322.71 188.97 322.99 188.77V188.75Z" fill="#E31919"/>
<path d="M321.09 179.24C318.46 181.03 301.84 206.64 315.66 212.32C329.48 218 353.41 218.44 354.07 207.86C354.73 197.28 343.52 163.96 321.09 179.24Z" stroke="#010101" stroke-width="4" stroke-miterlimit="10"/>
<path d="M332.38 195.06C331.89 194.86 331.49 194.7 330.95 194.7C330.56 194.7 330.24 194.79 329.89 194.93C329.72 195 329.58 195.04 329.44 195.13C329.01 195.42 328.64 195.77 328.4 196.24C328.08 196.88 327.96 197.62 328.14 198.32C328.28 198.83 328.55 199.28 328.9 199.66C328.93 199.7 328.98 199.73 329.02 199.77C329.22 199.94 329.45 200.12 329.69 200.24C330.14 200.46 330.62 200.61 331.13 200.61C331.6 200.61 331.99 200.51 332.41 200.34C332.99 200.1 333.5 199.73 333.92 199.26C334.14 199.02 334.36 198.75 334.51 198.45C334.75 198 334.9 197.46 334.88 196.95C334.85 196.3 334.65 195.73 334.25 195.22C333.97 194.86 333.66 194.56 333.24 194.35C332.57 194.01 331.95 193.93 331.21 193.86C330.7 193.81 330.15 193.79 329.66 193.93C328.58 194.21 327.77 195.13 327.53 196.21C327.38 196.95 327.38 197.56 327.52 198.29C327.66 199.02 328.01 199.59 328.46 200.13C328.5 200.18 328.54 200.22 328.59 200.27C328.77 200.43 329 200.61 329.21 200.73C329.67 200.98 330.19 201.14 330.72 201.14C331.44 201.14 332.05 200.86 332.68 200.57C333.45 200.22 334.13 199.69 334.64 199.01C334.8 198.8 334.94 198.61 335.04 198.38C335.28 197.82 335.38 197.46 335.45 196.86C335.5 196.3 335.34 195.71 335.08 195.23C334.96 195 334.76 194.74 334.58 194.56C334.29 194.29 334 194.12 333.65 193.98C332.84 193.65 332.03 193.66 331.19 193.81C330.63 193.9 330.13 194.18 329.64 194.44L330.26 194.19C330.26 194.19 330.2 194.21 330.17 194.21L330.81 194.12H330.76L331.99 194.44L331.95 194.42L332.88 195.34L332.85 195.3L333.1 195.92V195.87V197.14V197.09L332.87 197.68C332.87 197.68 332.91 197.6 332.93 197.57L332.54 198.09C332.84 197.74 333.17 197.43 333.49 197.11C333.91 196.68 334.23 195.97 334.2 195.37C334.17 194.73 333.96 194.02 333.44 193.58C333.02 193.21 332.67 193.01 332.15 192.83C331.99 192.77 331.85 192.77 331.67 192.75C331.52 192.73 331.35 192.69 331.19 192.7C330.47 192.71 329.94 192.91 329.3 193.2C328.25 193.68 327.33 194.59 327.07 195.74C327 196.02 326.96 196.35 326.97 196.64C326.97 196.95 327.02 197.3 327.11 197.6C327.32 198.26 327.61 198.74 328.07 199.26C328.22 199.43 328.39 199.55 328.58 199.69C328.77 199.83 328.93 199.96 329.14 200.06C329.78 200.35 330.39 200.51 331.09 200.53C332.08 200.53 333.09 200.22 333.94 199.74C335.1 199.09 335.94 197.98 336.12 196.66C336.23 195.87 336.09 195.12 335.72 194.42C335.63 194.27 335.52 194.14 335.43 194.01C335.34 193.88 335.23 193.73 335.11 193.63C334.88 193.41 334.58 193.18 334.29 193.03C334 192.88 333.67 192.74 333.34 192.68C333.01 192.62 332.66 192.56 332.32 192.58C331.57 192.63 330.95 192.81 330.27 193.16C330.13 193.24 329.98 193.33 329.86 193.42C329.57 193.64 329.27 193.86 329 194.12C328.65 194.47 328.34 194.89 328.08 195.33C327.58 196.21 327.28 197.29 327.32 198.31C327.34 198.97 327.59 199.63 328.08 200.1C328.51 200.52 329.22 200.84 329.82 200.81C330.48 200.79 331.16 200.56 331.61 200.05C332.04 199.57 332.34 198.96 332.32 198.31C332.31 198.13 332.32 197.95 332.34 197.78L332.26 198.42C332.3 198.13 332.37 197.86 332.48 197.59L332.24 198.18C332.35 197.92 332.49 197.66 332.67 197.43L332.28 197.95C332.45 197.74 332.63 197.55 332.84 197.38L332.32 197.79C332.53 197.63 332.75 197.49 332.99 197.4L332.37 197.65C332.53 197.59 332.7 197.54 332.87 197.51L332.23 197.6C332.37 197.59 332.52 197.58 332.66 197.6L332.02 197.52C332.13 197.54 332.23 197.57 332.34 197.61L331.75 197.37C331.86 197.41 331.95 197.47 332.03 197.54L331.51 197.15C331.58 197.2 331.64 197.27 331.7 197.34L331.29 196.82L331.42 197.04L331.17 196.42C331.2 196.51 331.22 196.59 331.24 196.67L331.15 196.03C331.15 196.14 331.15 196.24 331.15 196.36L331.23 195.72C331.21 195.83 331.18 195.93 331.14 196.04L331.38 195.45C331.33 195.57 331.26 195.7 331.18 195.8L331.57 195.28C331.47 195.41 331.36 195.5 331.24 195.61L331.76 195.2C331.54 195.38 331.29 195.51 331.03 195.62L331.65 195.37C331.37 195.49 331.08 195.57 330.78 195.61L331.42 195.52C331.22 195.55 331.01 195.55 330.81 195.52L331.45 195.6C331.3 195.57 331.15 195.53 330.99 195.47L331.58 195.71C331.47 195.66 331.37 195.61 331.27 195.54L331.79 195.93C331.69 195.85 331.59 195.75 331.51 195.65L331.92 196.17C331.84 196.07 331.77 195.96 331.72 195.83L331.97 196.45C331.92 196.33 331.89 196.21 331.87 196.08L331.96 196.72C331.96 196.63 331.95 196.54 331.96 196.45L331.88 197.09C331.9 197 331.92 196.92 331.95 196.83L331.71 197.42C331.75 197.34 331.79 197.27 331.84 197.19L331.45 197.71C331.53 197.62 331.61 197.53 331.72 197.45L331.2 197.86C331.41 197.7 331.64 197.58 331.88 197.48L331.26 197.73C331.41 197.67 331.56 197.63 331.72 197.6L331.08 197.69C331.18 197.68 331.27 197.69 331.36 197.69L330.72 197.61C330.72 197.61 330.82 197.63 330.88 197.66L330.29 197.42C330.29 197.42 330.39 197.47 330.43 197.5L329.91 197.11L329.95 197.14L329.91 193.6C329.69 193.83 329.47 194.05 329.25 194.29C329.16 194.39 329.06 194.48 328.97 194.58C328.56 195.04 328.31 195.55 328.23 196.17C328.19 196.5 328.19 196.85 328.28 197.18C328.38 197.54 328.55 197.82 328.77 198.11C328.99 198.4 329.18 198.59 329.53 198.79C329.88 198.99 330.38 199.12 330.8 199.12C331.28 199.12 331.78 198.98 332.2 198.73C332.33 198.65 332.45 198.58 332.58 198.53L331.96 198.78C332.15 198.71 332.35 198.65 332.55 198.62L331.91 198.71C332.08 198.69 332.26 198.69 332.44 198.71L331.8 198.63C331.9 198.64 331.98 198.66 332.08 198.69L331.49 198.45C331.49 198.45 331.57 198.49 331.6 198.52L331.08 198.13L331.12 198.19C331 198 330.86 197.83 330.73 197.66L330.8 197.77L330.55 197.15C330.55 197.15 330.58 197.24 330.58 197.28L330.49 196.64C330.49 196.71 330.49 196.78 330.49 196.85L330.57 196.21C330.55 196.31 330.52 196.41 330.49 196.51L330.73 195.92C330.68 196.05 330.61 196.17 330.52 196.28L330.91 195.76C330.79 195.91 330.66 196.03 330.51 196.15L331.03 195.74C330.7 195.99 330.33 196.18 329.94 196.34L330.56 196.09C330.43 196.14 330.31 196.19 330.17 196.21L330.81 196.12C330.81 196.12 330.72 196.12 330.68 196.12L331.32 196.2C331.32 196.2 331.24 196.19 331.21 196.17L331.8 196.41C331.74 196.39 331.7 196.35 331.65 196.33L332.17 196.72C332.1 196.67 332.05 196.61 332 196.54L332.41 197.06C332.35 196.97 332.3 196.88 332.25 196.78L332.5 197.4C332.44 197.24 332.39 197.08 332.37 196.91L332.46 197.55C332.44 197.35 332.43 197.16 332.46 196.96L332.38 197.6C332.4 197.45 332.43 197.31 332.49 197.18L332.25 197.77L332.28 197.71L331.89 198.23C331.89 198.23 331.95 198.15 331.99 198.12L331.47 198.53L331.53 198.49L330.91 198.74C330.91 198.74 331 198.71 331.05 198.7L330.41 198.79C330.78 198.77 331.17 198.79 331.53 198.85L330.89 198.77C331.06 198.8 331.22 198.83 331.38 198.89L330.79 198.65C330.85 198.68 330.91 198.71 330.98 198.75L330.46 198.36C330.46 198.36 330.55 198.44 330.59 198.49L330.18 197.97L330.24 198.07L329.99 197.45V197.51L329.92 196.87C329.92 196.87 329.93 196.95 329.92 197L330 196.36C330 196.36 329.99 196.44 329.98 196.48L330.22 195.89C330.18 195.97 330.14 196.04 330.1 196.11L330.49 195.59C330.36 195.76 330.2 195.92 330.03 196.05L330.55 195.64C330.45 195.72 330.34 195.78 330.23 195.83L330.85 195.58C330.78 195.61 330.71 195.62 330.64 195.63L331.28 195.54C331.23 195.54 331.17 195.54 331.11 195.54L331.75 195.62L331.59 195.58L332.18 195.82C332.18 195.82 332.08 195.77 332.03 195.74L332.55 196.13C332.55 196.13 332.47 196.06 332.43 196.02L332.84 196.54L332.76 196.4L333.01 197.02C333.01 197.02 332.99 196.95 332.99 196.92L333.08 197.56C333.08 197.56 333.08 197.49 333.08 197.45L333 198.09V198.04L332.77 198.63C332.77 198.63 332.8 198.57 332.82 198.53L332.43 199.05C332.43 199.05 332.48 199 332.5 198.97L331.98 199.38L332.12 199.3L331.5 199.55C331.5 199.55 331.57 199.53 331.6 199.53L330.96 199.62C330.96 199.62 331.03 199.62 331.07 199.62L330.43 199.54H330.48L329.89 199.31L329.94 199.33C330.22 199.5 330.53 199.6 330.85 199.61C331.17 199.68 331.49 199.67 331.81 199.57C332.41 199.41 333.06 198.94 333.35 198.38C333.64 197.82 333.78 197.13 333.59 196.51C333.4 195.89 333.01 195.23 332.4 194.97V195.03L332.38 195.06Z" fill="#010101"/>
<path d="M280.46 244.57C280.46 244.57 296.03 247.24 305.9 236.7C315.77 226.16 316.78 220.31 316.78 220.31C316.78 220.31 309.23 217.39 280.46 244.57Z" fill="#F6A032" stroke="black" stroke-width="3" stroke-miterlimit="10"/>
<path d="M314.6 209.4C314.6 209.4 269 202.23 263.69 222.96C258.8 242.05 260.84 255.12 262.55 258.11C264.27 261.1 309.71 215.53 314.62 221.39C319.53 227.25 314.6 209.41 314.6 209.41V209.4Z" fill="#F6A032" stroke="black" stroke-width="3" stroke-miterlimit="10"/>
<path d="M416.88 50.29C416.88 50.29 432.41 94.53 412.72 87.14" stroke="black" stroke-width="4" stroke-miterlimit="10"/>
<path d="M503.67 275.44L506.89 284.25C507.8 286.74 509.2 289.71 512.32 289.65C514.98 289.6 516.56 287.22 516.97 284.83C517.5 281.71 517.44 278.42 517.62 275.27L515.12 277.77C514.84 277.74 514.58 277.65 514.35 277.49C514.19 277.31 514.2 277.35 514.37 277.61C514.46 277.93 514.71 278.3 514.87 278.6C515.28 279.37 515.82 280.08 516.55 280.58C517.36 281.13 518.21 281.31 519.14 281.47C519.36 281.51 520.09 281.67 520.07 281.66C520.04 281.65 520.75 282.09 520.49 281.89C521.48 282.67 522.06 284.17 522.62 285.43C523.28 286.91 523.94 288.34 524.94 289.63C527.54 292.94 531.8 294.39 535.5 296.07C539.96 298.09 544.42 300.11 548.88 302.13C550.03 302.65 551.67 302.55 552.3 301.23C554.68 296.25 555.98 290.85 556.01 285.33C556.02 282.62 555.73 279.9 555.15 277.25C554.88 276 554.54 274.76 554.12 273.55C553.7 272.34 553.03 271.05 552.89 269.74C552.71 268.13 553.94 267.89 555.42 267.93C557.42 267.99 559.15 269.27 560.96 270.31C563.05 271.52 565.43 272.67 567.91 272.55C569.18 272.49 570.51 272.07 571.43 271.16C572.67 269.95 572.8 268.34 572.74 266.71C572.49 259.85 572.2 253 571.93 246.14C571.8 242.93 566.8 242.92 566.93 246.14C567.16 252.1 567.4 258.06 567.63 264.02C567.64 264.39 567.55 267.75 567.77 267.84C567.53 267.74 568.55 267.6 568.04 267.5C568.23 267.54 567.1 267.58 567.58 267.56C567.06 267.57 566.53 267.41 566.04 267.25C563.88 266.56 562.07 265 560.02 264.06C556.21 262.3 550.41 262.31 548.44 266.76C547.24 269.47 548.32 272.08 549.22 274.68C550.06 277.08 550.64 279.59 550.87 282.13C551.37 287.8 550.44 293.56 547.98 298.7L551.4 297.8C546.86 295.75 542.33 293.69 537.79 291.64C534.41 290.11 529.98 288.82 528.09 285.35C526.54 282.51 525.74 279.1 522.71 277.4C521.88 276.93 521.02 276.75 520.1 276.58C519.18 276.41 519.47 276.63 519.11 275.94C518.2 274.22 517.23 272.85 515.11 272.76C513.7 272.7 512.69 273.96 512.61 275.26C512.47 277.59 512.34 279.91 512.2 282.24C512.15 283.09 512.2 283.63 511.92 284.41C511.71 285.01 511.51 284.83 512.35 284.64C512.84 284.53 512.67 285.16 512.43 284.54C512.31 284.22 512.08 283.91 511.94 283.58C511.51 282.55 511.17 281.47 510.78 280.42L508.47 274.09C508.01 272.82 506.77 271.97 505.39 272.34C504.17 272.68 503.18 274.14 503.64 275.42L503.67 275.44Z" fill="black"/>
<path d="M486.8 364.54C487.43 368.94 488.95 373.22 492.22 376.35C495.18 379.19 499.04 380.83 502.09 383.54C505.14 386.25 506.97 389.67 507.73 393.52C507.92 394.46 508 395.41 508.01 396.37C508.01 396.55 507.89 397.22 507.98 397.31C508.03 397.36 507.89 397.26 508.2 397.18C508.76 397.03 507.99 396.98 508.26 397.09C507.89 396.94 507.38 396.9 506.91 396.55C506.22 396.05 505.64 395.28 505 394.68C503.34 393.15 501.25 392.01 498.92 392.55C496.89 393.02 495.44 394.64 494.69 396.52C493.89 398.53 494.06 400.72 494.8 402.72C495.54 404.72 496.83 406.54 497.24 408.63C497.47 409.81 497.35 411.3 495.98 411.51C494.42 411.75 492.52 410.87 491.06 410.27C490.04 409.85 489.12 409.42 487.98 409.52C486.72 409.63 485.68 410.37 485.04 411.45C483.88 413.44 483.95 416.06 483.99 418.28C484.02 420.06 484.22 422.35 483.08 423.88C481.94 425.41 479.21 424.81 477.55 424.53C472.47 423.66 467.7 421.79 463.36 419.02C460.64 417.28 458.13 421.61 460.84 423.34C464.95 425.96 469.53 427.91 474.29 428.97C479.05 430.03 484.62 430.93 487.49 426.24C488.61 424.41 488.97 422.19 489.01 420.08C489.03 418.88 488.95 417.69 488.98 416.49C488.99 415.97 489.01 415.46 489.1 414.95C489.21 414.33 489.66 413.87 488.8 414.33C487.94 414.79 488.43 414.39 488.62 414.64C488.79 414.86 489.28 414.92 489.55 415.03C490.01 415.22 490.47 415.41 490.94 415.58C491.92 415.94 492.92 416.23 493.96 416.39C496.3 416.74 498.66 416.34 500.4 414.62C502 413.04 502.5 410.69 502.24 408.52C501.94 405.97 500.63 403.92 499.69 401.59C499.16 400.28 498.74 398.53 499.81 397.56C499.89 397.48 500.17 397.4 500.06 397.41C500.07 397.41 500.4 397.47 500.55 397.54C501.37 397.92 502 398.75 502.63 399.38C504.1 400.85 505.96 402.02 508.11 402.07C510.49 402.13 512.45 400.54 512.88 398.19C513.31 395.84 512.88 393.27 512.29 391.03C511.75 388.93 510.88 386.87 509.76 385.02C508.43 382.83 506.73 380.84 504.73 379.24C502.73 377.64 500.65 376.41 498.58 375.02C496.72 373.77 494.97 372.34 493.81 370.39C492.52 368.21 491.97 365.68 491.62 363.2C491.43 361.86 489.73 361.13 488.54 361.45C487.1 361.84 486.6 363.18 486.79 364.53L486.8 364.54Z" fill="black"/>
<path d="M694.07 220.08C693.57 225 693.07 229.92 692.57 234.83C692.13 239.14 691.53 244.6 696.11 247C698 247.99 700.22 248.03 702.01 246.81C702.73 246.32 703.3 245.68 703.93 245.09C704.01 245.02 704.25 244.76 704.26 244.79C704.27 244.81 704.15 244.83 704.15 244.83C704.35 245.04 703.38 244.74 703.41 244.64C703.41 244.61 703.73 245.07 703.75 245.1C705.74 248.16 704.94 252.53 704.88 255.96C704.82 259.39 704.92 266.75 709.98 266.18C711.16 266.05 712.14 265.42 713.14 264.83C714.28 264.16 715.41 263.48 716.55 262.81C717.54 262.22 718.54 261.63 719.53 261.04C720.03 260.75 720.52 260.45 721.02 260.16C721.29 260 721.55 259.84 721.82 259.69C721.92 259.63 722.03 259.57 722.14 259.51C722.38 259.4 722.35 259.39 722.07 259.49C722.09 259.51 721.47 259.33 721.72 259.34C721.27 259.32 721.62 259.13 721.64 259.36C721.64 259.44 721.73 259.62 721.79 259.83C721.98 260.55 721.98 261.27 722.03 262.09C722.14 264.13 722.41 266.19 722.93 268.17C723.95 272.07 726.06 276.01 729.47 278.3C731.54 279.7 734.29 280.32 736.61 279.16C738.93 278 740.09 275.29 741.34 273.17C744.15 268.39 746.96 263.62 749.77 258.84C751.4 256.06 747.08 253.54 745.45 256.32C743.14 260.25 740.82 264.19 738.51 268.12C737.36 270.07 736.33 272.19 735.01 274.03C734.15 275.23 732.99 274.75 731.93 273.95C729.21 271.92 727.96 268.32 727.36 265.12C726.76 261.92 727.56 257.81 724.83 255.51C723.1 254.05 720.98 254.39 719.13 255.45C717.13 256.6 715.15 257.81 713.16 258.99C712.24 259.54 711.31 260.08 710.39 260.63C710.35 260.65 709.33 261.24 709.32 261.23C709.32 261.23 710.51 261.66 710.5 261.67C710.54 261.63 710.3 261.01 710.28 260.93C709.84 259.24 709.83 257.48 709.86 255.74C709.93 252.07 710.36 248.2 709.04 244.69C708.33 242.81 707.2 240.61 705.11 240.01C703.13 239.44 701.5 240.42 700.13 241.76C699.3 242.58 698.76 243.22 697.82 242.1C696.53 240.55 697.25 237.58 697.43 235.79C697.96 230.54 698.5 225.3 699.03 220.05C699.17 218.7 697.78 217.55 696.53 217.55C695.06 217.55 694.17 218.7 694.03 220.05L694.07 220.08Z" fill="black"/>
<path d="M660.46 538.39L678.98 601.77L696.97 593.69C696.97 593.69 669.84 537.66 680.36 534.75C690.88 531.84 660.46 538.39 660.46 538.39Z" fill="#F6A032" stroke="black" stroke-width="4" stroke-miterlimit="10"/>
<path d="M607.71 537.45L602.83 603.3L622.52 602.04C622.52 602.04 616.76 540.05 627.63 541.02C638.5 541.99 607.72 537.46 607.72 537.46L607.71 537.45Z" fill="#F6A032" stroke="black" stroke-width="4" stroke-miterlimit="10"/>
<path d="M678.98 601.77C678.98 601.77 632.78 605.55 634.58 622.81C636.38 640.07 693.08 644.7 705.08 632.06C717.07 619.42 704.84 590.15 696.98 593.68" fill="#C72E57"/>
<path d="M678.98 601.77C678.98 601.77 632.78 605.55 634.58 622.81C636.38 640.07 693.08 644.7 705.08 632.06C717.07 619.42 704.84 590.15 696.98 593.68" stroke="black" stroke-width="4" stroke-miterlimit="10"/>
<path d="M604.52 600.24C604.52 600.24 561.02 584.24 555.39 600.66C549.76 617.07 599.26 645.12 615.46 638.7C631.66 632.28 632.87 600.58 624.25 600.47" fill="#C72E57"/>
<path d="M604.52 600.24C604.52 600.24 561.02 584.24 555.39 600.66C549.76 617.07 599.26 645.12 615.46 638.7C631.66 632.28 632.87 600.58 624.25 600.47" stroke="black" stroke-width="4" stroke-miterlimit="10"/>
<path d="M759.8 216.84C759.8 216.84 686.17 120.98 734.03 54.61C781.89 -11.75 755.06 1.14 794.27 7.13C833.48 13.12 855.17 36.19 857.89 78.57C860.61 120.95 868.15 171.57 842.93 168.38C817.71 165.18 825.63 210.22 852.29 213.13C878.95 216.04 900.3 233.81 890.99 246.11C881.68 258.41 885.77 272.51 885.6 286.35C885.43 300.19 868.8 328.39 868.8 328.39C868.8 328.39 864.41 264.67 759.8 216.85V216.84Z" fill="#F9F5E2" stroke="black" stroke-width="4" stroke-miterlimit="10"/>
<path d="M104.86 349.66C100.59 351.77 30.88 467.15 49.87 475.46C68.86 483.77 149.56 393.57 143.63 372.21C137.7 350.85 136.11 334.23 104.86 349.66Z" fill="#79471E" stroke="black" stroke-width="4" stroke-miterlimit="10"/>
<path d="M153.53 415.84C149.26 417.95 79.55 533.33 98.54 541.64C117.53 549.95 198.23 459.75 192.3 438.39C186.37 417.03 184.78 400.41 153.53 415.84Z" fill="#79471E" stroke="black" stroke-width="4" stroke-miterlimit="10"/>
<path d="M272.76 368.33C270.49 384.22 336.52 506 346.01 472.77C355.5 439.54 324.12 350.53 304.8 352.9C285.48 355.27 276.65 341.03 272.76 368.33Z" fill="#79471E" stroke="black" stroke-width="4" stroke-miterlimit="10"/>
<path d="M228.34 431.94C226.07 447.83 292.1 569.61 301.59 536.38C311.08 503.15 279.7 414.14 260.38 416.51C241.06 418.88 232.23 404.64 228.34 431.94Z" fill="#79471E" stroke="black" stroke-width="4" stroke-miterlimit="10"/>
<path d="M198.39 457.86C306.853 457.86 394.78 425.083 394.78 384.65C394.78 344.217 306.853 311.44 198.39 311.44C89.9268 311.44 2 344.217 2 384.65C2 425.083 89.9268 457.86 198.39 457.86Z" fill="#533217" stroke="black" stroke-width="4" stroke-miterlimit="10"/>
<path d="M281.96 361.21C279.59 360.68 271.41 364.11 268.51 364.11C265.61 364.11 266.66 364.58 262.71 362.63C258.76 360.68 256.64 360.94 253.48 362.66C250.32 364.38 250.05 367.54 243.46 365.43C236.87 363.32 237.39 358.46 231.86 361.16C226.33 363.86 225.53 367.81 223.95 368.07C222.37 368.33 216.04 367.28 211.82 366.22C207.6 365.16 207.34 357.24 202.85 364.23C198.36 371.22 196.52 370.44 191.51 369.38C186.5 368.32 184.39 364.9 183.33 368.06C182.27 371.22 176.47 376.76 179.11 378.08C181.75 379.4 191.51 376.23 194.41 376.5C197.31 376.77 197.05 378.35 200.48 379.66C203.91 380.97 206.02 382.56 207.86 380.71C209.7 378.86 210.5 374.91 213.66 377.28C216.82 379.65 218.67 383.18 221.57 381.55C224.47 379.92 224.21 377.02 226.58 376.75C228.95 376.48 229.83 377.28 233.09 378.33C236.35 379.38 236.61 380.97 238.72 379.12C240.83 377.27 244.72 372 247.12 374.9C249.52 377.8 246.63 377.54 250.85 378.33C255.07 379.12 261.93 378.33 262.45 375.43C262.97 372.53 263.14 372.27 265.83 374.38C268.52 376.49 273.79 377.02 275.9 374.12C278.01 371.22 275.55 367.53 280.47 369.9C285.39 372.27 291.72 375.44 294.1 373.86C296.48 372.28 301.05 369.9 298.63 367.53C296.21 365.16 293.57 360.82 289.61 360.35C285.65 359.88 283.57 361.99 283.57 361.99L281.96 361.2V361.21Z" fill="white"/>
<path d="M277.84 333.71C275.47 333.18 267.29 336.61 264.39 336.61C261.49 336.61 262.54 337.08 258.59 335.13C254.64 333.18 252.52 333.44 249.36 335.16C246.2 336.88 245.93 340.04 239.34 337.93C232.75 335.82 233.27 330.96 227.74 333.66C222.21 336.36 221.41 340.31 219.83 340.57C218.25 340.83 211.92 339.78 207.7 338.72C203.48 337.66 203.22 329.74 198.73 336.73C194.24 343.72 192.4 342.94 187.39 341.88C182.38 340.82 180.27 337.4 179.21 340.56C178.15 343.72 172.35 349.26 174.99 350.58C177.63 351.9 187.39 348.73 190.29 349C193.19 349.27 192.93 350.85 196.36 352.16C199.79 353.47 201.9 355.06 203.74 353.21C205.58 351.36 206.38 347.41 209.54 349.78C212.7 352.15 214.55 355.68 217.45 354.05C220.35 352.42 220.09 349.52 222.46 349.25C224.83 348.98 225.71 349.78 228.97 350.83C232.23 351.88 232.49 353.47 234.6 351.62C236.71 349.77 240.6 344.5 243 347.4C245.4 350.3 242.51 350.04 246.73 350.83C250.95 351.62 257.81 350.83 258.33 347.93C258.85 345.03 259.02 344.77 261.71 346.88C264.4 348.99 269.67 349.52 271.78 346.62C273.89 343.72 271.43 340.03 276.35 342.4C281.27 344.77 287.6 347.94 289.98 346.36C292.36 344.78 296.93 342.4 294.51 340.03C292.09 337.66 289.45 333.32 285.49 332.85C281.53 332.38 279.45 334.49 279.45 334.49L277.84 333.7V333.71Z" fill="white"/>
<path d="M290.2 392.6C287.83 392.07 279.65 395.5 276.75 395.5C273.85 395.5 274.9 395.97 270.95 394.02C267 392.07 264.88 392.33 261.72 394.05C258.56 395.77 258.29 398.93 251.7 396.82C245.11 394.71 245.63 389.85 240.1 392.55C234.57 395.25 233.77 399.2 232.19 399.46C230.61 399.72 224.28 398.67 220.06 397.61C215.84 396.55 215.58 388.63 211.09 395.62C206.6 402.61 204.76 401.83 199.75 400.77C194.74 399.71 192.63 396.29 191.57 399.45C190.51 402.61 184.71 408.15 187.35 409.47C189.99 410.79 199.75 407.62 202.65 407.89C205.55 408.16 205.29 409.74 208.72 411.05C212.15 412.36 214.26 413.95 216.1 412.1C217.94 410.25 218.74 406.3 221.9 408.67C225.06 411.04 226.91 414.57 229.81 412.94C232.71 411.31 232.45 408.41 234.82 408.14C237.19 407.87 238.07 408.67 241.33 409.72C244.59 410.77 244.85 412.36 246.96 410.51C249.07 408.66 252.96 403.39 255.36 406.29C257.76 409.19 254.87 408.93 259.09 409.72C263.31 410.51 270.17 409.72 270.69 406.82C271.21 403.92 271.38 403.66 274.07 405.77C276.76 407.88 282.03 408.41 284.14 405.51C286.25 402.61 283.79 398.92 288.71 401.29C293.63 403.66 299.96 406.83 302.34 405.25C304.72 403.67 309.29 401.29 306.87 398.92C304.45 396.55 301.81 392.21 297.85 391.74C293.89 391.27 291.81 393.38 291.81 393.38L290.2 392.59V392.6Z" fill="#F2F2F2"/>
<path d="M101.56 364.38C97.79 366.27 93.65 393.92 99.19 397.08C104.73 400.24 124.24 402.35 128.99 398.66C133.74 394.97 133.21 368.07 131.36 364.37C129.51 360.67 114.74 357.78 101.56 364.37V364.38Z" fill="#7F9395" stroke="black" stroke-miterlimit="10"/>
<path d="M100.85 365.02C100.85 365.02 93.78 360.03 99.05 357.65C104.32 355.27 131.37 353.69 132.69 357.91C134.01 362.13 134.29 366.09 132.69 366.09C131.09 366.09 103.83 362.62 100.84 365.02H100.85Z" fill="#7F9395" stroke="black" stroke-miterlimit="10"/>
<path d="M97.1 385.61C97.1 385.61 102.98 382.94 104.76 383.93C106.54 384.92 109.85 385.41 111.98 385.07C114.11 384.73 115.54 385.61 117.32 386.21C119.1 386.81 121.37 386.61 122.91 386.85C124.45 387.09 124.79 386.85 125.68 387.44C126.57 388.03 128 388.92 128.65 389.02C129.3 389.12 130.33 389.86 130.43 390.01C130.53 390.16 131.37 390.75 131.37 391.05C131.37 391.35 129.99 397.68 128.7 398.37C127.41 399.06 122.47 400.55 118.46 400.15C114.26 400 105.75 398.71 102.24 397.73C100.21 396.99 98.28 397.04 97.74 394.02C97.2 391 96.77 390.31 97.1 385.61Z" fill="white"/>
<path d="M263.79 244.18C264.09 245.96 264.97 248.14 265.81 247.05C266.65 245.96 267.35 243.59 267.35 242.4C267.35 241.21 264.78 240.72 264.09 241.61C263.4 242.5 263.79 244.18 263.79 244.18Z" fill="white"/>
<path d="M264.66 237.39C264.96 239.17 265.84 241.35 266.68 240.26C267.52 239.17 268.22 236.8 268.22 235.61C268.22 234.42 265.65 233.93 264.96 234.82C264.27 235.71 264.66 237.39 264.66 237.39Z" fill="white"/>
<path d="M268.1 223.24C268.4 225.02 269.28 227.2 270.12 226.11C270.96 225.02 271.66 222.65 271.66 221.46C271.66 220.27 269.09 219.78 268.4 220.67C267.71 221.56 268.1 223.24 268.1 223.24Z" fill="white"/>
<path d="M272.37 227.66C272.67 229.44 273.55 231.62 274.39 230.53C275.23 229.44 275.93 227.07 275.93 225.88C275.93 224.69 273.36 224.2 272.67 225.09C271.98 225.98 272.37 227.66 272.37 227.66Z" fill="white"/>
<path d="M267.56 229.65C266.05 230.63 264.4 232.31 265.74 232.65C267.08 232.99 269.53 232.68 270.62 232.21C271.71 231.74 271.14 229.18 270.05 228.9C268.96 228.62 267.57 229.65 267.57 229.65H267.56Z" fill="white"/>
<path d="M274.91 221.65C276.73 223.74 279.64 225.87 279.86 223.77C280.08 221.67 279.08 218.01 278.12 216.46C277.16 214.91 273.41 216.33 273.22 218.05C273.03 219.77 274.9 221.65 274.9 221.65H274.91Z" fill="white"/>
</g>
<defs>
<clipPath id="clip0_16_81">
<rect width="895.21" height="641.63" fill="white"/>
</clipPath>
</defs>
</svg>
