<svg width="853" height="816" viewBox="0 0 853 816" fill="none" xmlns="http://www.w3.org/2000/svg">
<g clip-path="url(#clip0_16_302)">
<path d="M226.047 87.7448C209.925 87.1963 254.757 3.83158 201.025 4.2052C147.292 4.57882 -0.0953491 18.7128 0.0476837 49.9457C0.190716 81.1787 -5.68158 499.696 77.6986 507.836C161.079 515.976 287.925 564.515 284.063 524.132C280.209 483.749 276.697 418.962 276.697 418.962C276.697 418.962 245.77 88.4126 226.047 87.7369V87.7448Z" fill="black"/>
<path d="M387.357 194.187C391.115 192.016 272.279 167.421 266.836 176.014C261.392 184.608 251.563 198.455 216.52 228.337C181.477 258.218 92.0893 410.297 158.345 432.985C251.388 464.846 339.711 493.448 390.694 455.322C434.041 422.913 486.534 327.632 471.865 293.021C457.196 258.417 386.26 193.352 386.26 193.352" fill="#F9F5E2"/>
<path d="M387.357 194.187C391.115 192.016 272.279 167.421 266.836 176.014C261.392 184.608 251.563 198.455 216.52 228.337C181.477 258.218 92.0893 410.297 158.345 432.985C251.388 464.846 339.711 493.448 390.694 455.322C434.041 422.913 486.534 327.632 471.865 293.021C457.196 258.417 386.26 193.352 386.26 193.352" stroke="black" stroke-width="4" stroke-miterlimit="10"/>
<path d="M439.198 9.33251C356.207 1.28778 357.352 29.9293 337.844 42.9741C318.335 56.019 330.016 61.2894 327.871 80.662C325.725 100.035 316.571 96.1155 304.263 109.272C291.954 122.428 287.814 145.982 272.295 167.429C256.784 188.876 268.568 186.953 275.394 199.87C282.212 212.796 295.967 206.683 308.697 206.262C321.427 205.84 331.836 205.204 346.036 185.633C355.603 172.445 342.572 159.321 380.539 150.115C399.658 145.481 396.527 135.632 429.329 127.444C460.137 119.749 487.504 89.0008 494.051 65.6139C500.599 42.2269 493.042 46.5036 484.786 35.3189C476.53 24.1262 441.566 9.5551 439.198 9.33251Z" fill="#F9F5E2" stroke="black" stroke-width="4" stroke-miterlimit="10"/>
<path d="M478.262 44.5561C507.012 60.3514 439.484 106.791 439.484 106.791C439.484 106.791 436.147 111.68 431.244 114.566C426.341 117.452 415.034 115.075 407.143 103.803C399.252 92.5224 413.778 68.8572 420.834 63.6186C427.891 58.3879 439.079 67.474 438.992 64.6361C438.904 61.7982 432.047 50.6532 448.471 39.3969C464.888 28.1407 478.262 44.5322 478.262 44.5322V44.5561Z" fill="#E8395C" stroke="black" stroke-width="4" stroke-miterlimit="10"/>
<path d="M439.874 32.2505C440.843 31.7735 441.439 30.756 441.026 29.6828C440.668 28.7448 439.421 28.0532 438.459 28.5302C436.616 29.4364 436.004 31.2091 435.169 32.9818C434.335 34.7545 433.517 36.5272 432.698 38.2999C431.093 41.7658 429.027 45.2874 428.161 49.0236L431.975 48.6579C431.53 46.8931 432.031 44.882 432.293 43.0457C432.555 41.2094 432.873 39.381 433.262 37.5686C433.652 35.7561 434.081 33.9516 434.581 32.171C434.804 31.3919 434.987 30.589 435.328 29.8498C435.44 29.6033 435.654 29.3648 435.765 29.1184C435.702 29.0628 435.765 29.0071 435.956 28.9753C435.583 29.0866 435.567 29.1105 435.924 29.0548L433.779 26.7336C432.786 30.287 431.784 33.8483 430.791 37.4016L434.605 37.036C433.652 33.9834 434.097 30.7401 435.638 27.9658L432.221 28.2917L432.746 28.9594L435.622 26.2646L435.487 26.1533L436.075 26.9721L435.718 28.3394L434.748 28.705C435.154 28.6256 435.575 29.023 435.972 29.1661C436.369 29.3092 436.004 29.2853 436.218 29.1661C436.346 29.0946 436.345 28.872 436.552 28.7607C436.814 28.6256 437.235 28.7607 437.275 28.562C437.275 28.562 436.79 27.9976 436.822 28.0135C436.798 28.7766 436.647 29.0787 436.338 28.9038C436.29 28.8879 436.338 28.8799 436.465 28.8879C436.576 28.9356 436.743 28.8879 436.87 28.9356C437.069 29.0151 437.243 29.1502 437.355 29.3251C437.649 29.81 437.331 30.2631 436.989 30.6129C436.234 31.384 436.489 32.7751 437.259 33.4111C438.141 34.1344 439.309 33.9119 440.056 33.1408C442.71 30.438 441.217 25.7797 437.553 25.0086C435.908 24.6588 433.842 25.1278 433.103 26.8608C432.364 28.5938 433.405 30.5016 434.74 31.6145C436.179 32.8069 438.316 32.9023 439.508 31.3204C440.541 29.9531 440.319 28.0214 439.238 26.7813C438.157 25.5412 436.02 24.4601 434.367 24.7463C432.213 25.1199 431.363 27.9181 433.088 29.3251C434.812 30.7321 437.386 28.4268 435.964 26.6303L435.44 25.9625C434.47 24.7383 432.762 24.9689 432.023 26.2884C429.965 30.0087 429.631 34.4127 430.886 38.4509C431.141 39.2777 432.102 39.8023 432.929 39.7228C433.858 39.6354 434.454 38.9359 434.693 38.0853C435.686 34.5319 436.687 30.9706 437.68 27.4173C438.038 26.1454 436.719 25.0007 435.535 25.096C433.326 25.2789 432.007 27.1231 431.363 29.0787C430.648 31.2806 430.084 33.5065 429.567 35.7879C429.051 38.0694 428.638 40.3906 428.312 42.7118C427.97 45.1681 427.62 47.6165 428.248 50.057C428.463 50.8917 429.496 51.4084 430.29 51.3289C431.188 51.2414 431.864 50.5498 432.054 49.6913C432.42 48.1412 433.151 46.7024 433.819 45.2635C434.534 43.7293 435.241 42.1951 435.956 40.6609C436.671 39.1266 437.379 37.5924 438.094 36.0582C438.475 35.2315 438.864 34.4047 439.246 33.578C439.397 33.26 439.524 32.9182 439.699 32.6161C439.818 32.4094 440.223 32.0517 439.858 32.2346L439.874 32.2505Z" fill="black"/>
<path d="M420.366 58.8092C422.916 58.6264 422.535 54.6755 419.984 54.8504C417.592 55.0174 415.367 55.9236 413.206 56.8616C411.045 57.7996 408.931 58.6661 406.658 59.5326C404.386 60.3991 402.097 61.194 399.785 61.9254C398.696 62.2751 397.591 62.609 396.487 62.927C395.947 63.0939 395.39 63.2767 394.834 63.396C394.755 63.4119 394.516 63.4119 394.445 63.4596C394.254 63.5709 394.389 63.4357 394.596 63.5788L392.991 67.0686C394.445 67.2117 395.875 66.9016 396.972 65.8921C397.83 65.0971 398.243 63.547 397.075 62.7441C395.462 61.6233 393.801 61.353 391.894 61.8459L394.461 62.9985C394.937 64.2863 394.222 63.5152 394.524 63.4437C394.675 63.4119 394.906 63.1654 395.033 63.086C395.462 62.7998 395.899 62.5454 396.36 62.3387C397.29 61.9094 398.259 61.5676 399.236 61.2814C401.247 60.7091 403.345 60.415 405.411 60.0811C410.202 59.31 414.994 58.5389 419.785 57.7758C422.296 57.3783 421.955 53.4752 419.404 53.817C415.065 54.3973 410.544 54.2065 406.372 55.1684C402.2 56.1303 398.529 58.3004 394.906 60.5024C393.253 61.504 394.341 64.4373 396.257 64.0955C399.57 63.4993 402.868 62.8952 406.181 62.299C407.238 62.1082 408.081 61.2815 407.969 60.1288C407.874 59.1272 406.865 58.1494 405.8 58.3402C402.486 58.9364 399.189 59.5405 395.875 60.1367L397.226 63.7298C400.444 61.7664 403.758 59.7552 407.501 58.9602C411.529 58.1097 415.709 58.3243 419.785 57.7758L419.404 53.817C413.794 54.7232 408.16 55.5738 402.55 56.5277C399.967 56.965 397.329 57.5055 394.945 58.6184C392.72 59.6598 389.661 61.4881 390.742 64.4135C391.147 65.5185 392.283 65.8285 393.308 65.5662C393.698 65.4628 394.214 65.59 394.54 65.8126L394.643 62.6646C394.349 62.9349 394.087 63.1893 393.666 63.1495C392.784 63.0621 391.91 63.4357 391.521 64.2704C391.171 65.0335 391.354 66.1306 392.061 66.6393C394.183 68.1815 396.773 66.9891 399.014 66.3213C401.461 65.59 403.829 64.8189 406.285 63.9286C408.74 63.0383 411.18 62.0764 413.587 61.043C415.78 60.097 417.95 58.992 420.366 58.8172V58.8013V58.8092Z" fill="black"/>
<path d="M481.607 69.835C444.316 80.5825 441.121 102.427 446.819 106.752C452.516 111.076 476.736 115.75 487.996 114.677C499.264 113.604 481.409 94.2474 489.069 93.2617C496.729 92.276 501.084 92.109 507.083 89.7322C513.083 87.3553 508.958 78.5554 505.168 69.6521C501.378 60.7489 481.607 69.827 481.607 69.827V69.835Z" fill="#E8395C" stroke="black" stroke-width="4" stroke-miterlimit="10"/>
<path d="M381.914 22.0435C363.661 22.5205 330.652 93.9135 319.257 100.297C307.87 106.68 309.571 78.2295 306.019 67.5058C302.475 56.7742 302.912 41.5909 308.069 36.0503C313.226 30.5016 304.342 16.8208 320.219 4.56291C336.095 -7.70293 381.906 22.0435 381.906 22.0435H381.914Z" fill="#E8395C" stroke="black" stroke-width="4" stroke-miterlimit="10"/>
<path d="M458.929 44.882C437.363 45.4225 445.571 72.1403 450.911 78.6587C456.243 85.1851 471.484 73.7937 477.769 63.7219C484.055 53.6501 461.456 44.8184 458.929 44.8899V44.882Z" fill="#FAD8D9" stroke="#010101" stroke-width="4" stroke-miterlimit="10"/>
<path d="M463.172 62.8554C462.56 63.0303 462.91 63.9683 463.522 63.7855C463.657 63.7378 463.935 63.6344 464.054 63.7378C464.173 63.8411 464.022 64.3817 463.983 64.5248C463.871 65.0653 463.665 65.5741 463.466 66.0908C463.148 66.9255 462.894 67.9191 463.927 68.3325C464.404 68.5233 464.801 68.4994 464.729 69.1433C464.674 69.6601 464.523 70.1291 464.666 70.6378C464.809 71.1466 465.174 71.5361 465.397 72.0051C465.643 72.5139 465.739 73.0624 465.731 73.6268C465.723 74.2627 466.708 74.1753 466.716 73.5314C466.724 72.8875 466.613 72.2595 466.327 71.6553C466.041 71.0512 465.524 70.5663 465.612 69.8588C465.683 69.3023 465.842 68.7856 465.588 68.2451C465.373 67.792 464.968 67.633 464.515 67.4899C464.443 67.466 464.229 67.4342 464.173 67.3706C464.054 67.2435 464.189 66.9732 464.229 66.8539C464.332 66.5439 464.467 66.2418 464.579 65.9318C464.777 65.3674 464.968 64.7871 465.024 64.183C465.063 63.6901 464.984 63.1813 464.555 62.9031C464.126 62.6249 463.609 62.7282 463.156 62.8634L463.172 62.8554Z" fill="#E31919"/>
<path d="M464.404 60.1049C463.776 59.9937 463.609 60.9714 464.237 61.0907C465.174 61.2576 465.588 60.4627 466.406 60.2719C467.336 60.0493 467.781 60.884 468.623 60.9714C469.394 61.0509 469.823 60.4388 470.379 60.0334C470.769 59.7472 471.222 59.6359 471.69 59.5882C472.024 59.5564 472.7 59.4451 473.002 59.62L472.747 59.3498C472.787 59.1669 472.763 59.159 472.676 59.2941C472.628 59.3498 472.572 59.4134 472.533 59.4849C472.453 59.628 472.39 59.7552 472.382 59.9221C472.374 60.1526 472.445 60.3514 472.668 60.4627C473.335 60.7727 474.082 60.8999 474.813 60.7727C475.171 60.7091 475.497 60.5978 475.846 60.407C476.196 60.2162 476.593 59.8347 476.999 59.8585C477.634 59.8824 477.801 58.9125 477.165 58.8728C476.395 58.833 475.965 59.2385 475.314 59.5644C474.599 59.9221 473.788 59.8824 473.081 59.5564L473.367 60.097C473.383 59.8108 473.756 59.628 473.741 59.2782C473.733 58.9046 473.447 58.6741 473.097 58.6025C472.151 58.4197 470.888 58.5707 470.061 59.0636C469.704 59.2703 469.211 59.9857 468.766 59.9937C468.512 60.0016 468.226 59.6836 468.019 59.5723C467.813 59.461 467.582 59.3657 467.352 59.31C466.883 59.1987 466.39 59.2146 465.929 59.3816C465.468 59.5485 464.904 60.2162 464.412 60.1288H464.404V60.1049Z" fill="#E31919"/>
<path d="M468.838 59.4769V59.5008C469.013 60.1129 469.95 59.7631 469.767 59.151C469.569 58.4515 469.664 57.6883 469.998 57.0444C470.165 56.7185 470.395 56.4482 470.657 56.2098C470.959 55.9395 471.11 55.6136 470.943 55.224C470.848 55.0174 470.697 54.8663 470.506 54.755C470.387 54.6835 470.189 54.6437 470.101 54.5404C469.918 54.3258 470.061 53.8965 470.125 53.666C470.22 53.3083 470.34 52.9823 470.61 52.728C470.88 52.4736 471.086 52.2033 471.047 51.8058C470.967 51.1778 469.982 51.2653 470.061 51.9012C470.109 51.8138 470.101 51.8138 470.038 51.9012L469.998 51.9489C469.926 52.0125 469.847 52.0841 469.767 52.1556C469.632 52.2987 469.521 52.4577 469.434 52.6246C469.259 52.9585 469.148 53.3798 469.076 53.7375C469.005 54.0952 468.997 54.4848 469.132 54.8345C469.203 55.0094 469.322 55.1764 469.473 55.2956C469.569 55.3751 469.807 55.5659 469.942 55.5579C470.022 55.6136 470.046 55.5579 470.03 55.4069L469.95 55.4784C469.871 55.5341 469.767 55.6454 469.704 55.7169C469.585 55.852 469.465 55.9872 469.37 56.1303C469.14 56.4641 468.965 56.8219 468.846 57.2193C468.615 57.9586 468.615 58.7377 468.83 59.4769H468.838Z" fill="#E31919"/>
<path d="M459.366 58.3004C459.994 58.364 460.176 57.3863 459.533 57.3147C459.088 57.267 458.659 57.1796 458.245 57.0206C458.094 56.965 457.983 56.957 457.967 56.8139C457.967 56.7185 458.206 56.5516 458.269 56.4721C458.659 56.0428 458.905 55.4625 458.508 54.9379C458.19 54.5245 457.602 54.453 457.292 54.0475C456.982 53.6421 456.791 53.1572 456.489 52.7518C456.187 52.3464 455.766 52.0443 455.25 51.9887C454.63 51.9251 453.835 52.4179 453.374 51.8297C452.866 51.1937 453.358 50.4942 453.271 49.8026C453.191 49.2143 452.667 48.8725 452.174 48.634L452.46 49.1746C452.476 48.9838 452.476 48.7851 452.492 48.5863C452.516 47.9504 451.547 47.7835 451.507 48.4194C451.491 48.6102 451.491 48.8089 451.475 49.0077C451.467 49.2382 451.539 49.4369 451.761 49.5482C452.087 49.7072 452.309 49.8105 452.254 50.1842C452.198 50.5578 452.119 50.9235 452.151 51.313C452.222 51.9489 452.524 52.5292 453.064 52.871C453.676 53.2606 454.232 53.0539 454.892 52.9903C455.488 52.9346 455.726 53.3798 455.989 53.817C456.251 54.2542 456.481 54.7232 456.879 55.0492C457.077 55.2081 457.451 55.2876 457.61 55.4625C457.729 55.6056 457.721 55.55 457.594 55.7249C457.506 55.8441 457.387 55.9315 457.3 56.0428C456.902 56.5198 456.751 57.1875 457.276 57.6247C457.8 58.062 458.698 58.205 459.35 58.2845L459.366 58.3004Z" fill="#E31919"/>
<path d="M454.026 53.6183H454.042C454.646 53.3877 454.288 52.4577 453.692 52.6803C453.287 52.8313 453.056 53.1413 452.802 53.4831C452.532 53.8409 452.182 54.0952 451.753 54.1986C451.324 54.3019 450.99 54.3814 450.752 54.7948C450.545 55.1446 450.442 55.4943 450.172 55.8282C449.902 56.1621 449.568 56.4403 449.163 56.6231C448.757 56.806 448.344 56.8934 448.05 57.2591C447.717 57.6804 447.383 59.4292 446.564 59.1431C445.968 58.9284 445.547 59.8347 446.151 60.0493C447.136 60.3991 447.955 59.7552 448.368 58.8966C448.471 58.6741 448.567 58.4276 448.662 58.1971C448.781 57.9109 448.877 57.7996 449.171 57.6963C449.576 57.5373 449.957 57.3624 450.323 57.0683C450.688 56.7742 450.99 56.4323 451.229 56.0349C451.348 55.8441 451.435 55.6613 451.515 55.4625C451.626 55.2161 451.69 55.2399 451.952 55.1843C452.413 55.081 452.842 54.8584 453.192 54.5404C453.462 54.294 453.684 53.7614 454.034 53.6262L454.026 53.6183Z" fill="#E31919"/>
<path d="M457.776 63.9524C458.349 63.6742 458.007 62.7521 457.427 63.0223L455.424 63.9683C454.892 64.2227 454.217 64.4294 453.78 64.8348C453.001 65.5661 453.74 66.7903 452.842 67.3945C452.429 67.6727 451.936 67.8078 451.499 68.0225C450.99 68.2769 450.736 68.6505 450.593 69.199C450.522 69.4534 450.458 69.6918 450.283 69.8985C450.108 70.1052 449.878 70.2562 449.671 70.4311C449.25 70.7968 448.916 71.2181 448.678 71.7348C448.408 72.3151 449.306 72.7285 449.584 72.1482C450.045 71.1784 451.165 70.7968 451.475 69.7475C451.539 69.5408 451.555 69.2785 451.698 69.0956C451.841 68.9128 452.111 68.8413 452.317 68.7538C452.723 68.5789 453.168 68.3961 453.517 68.1338C453.867 67.8714 454.145 67.5296 454.256 67.1004C454.368 66.6711 454.185 66.1067 454.368 65.7013C454.479 65.4469 454.805 65.3595 455.043 65.2482L455.917 64.8268L457.761 63.9524H457.776Z" fill="#E31919"/>
<path d="M451.507 68.1735V68.1894C451.864 68.7141 452.675 68.1338 452.317 67.6091C451.753 66.7824 450.72 66.4962 449.79 66.7903C449.703 66.8221 449.616 66.838 449.528 66.8619C449.465 66.8778 449.441 66.846 449.496 66.8698C449.56 66.8937 449.497 66.8698 449.481 66.846C449.322 66.6472 449.155 66.4565 448.916 66.3452C448.44 66.1385 447.86 66.3293 447.375 66.4167C447.113 66.4644 446.906 66.6711 446.93 66.9573C446.954 67.2037 447.2 67.4501 447.47 67.4024C447.724 67.3627 447.963 67.307 448.217 67.2673C448.336 67.2514 448.479 67.2117 448.559 67.2673C448.622 67.307 448.67 67.4024 448.718 67.4581C448.805 67.5535 448.893 67.633 449.004 67.7045C449.218 67.8238 449.457 67.8635 449.695 67.8238C449.894 67.792 450.116 67.7045 450.275 67.6648C450.45 67.625 450.593 67.633 450.76 67.6648C451.07 67.7204 451.332 67.9032 451.515 68.1656L451.507 68.1735Z" fill="#E31919"/>
<path d="M463.339 68.2133C463.983 68.2292 463.879 67.2435 463.243 67.2276C462.703 67.2037 462.218 67.5455 462.028 68.0463C461.916 68.3325 462.028 68.5948 461.972 68.881C461.932 69.0957 461.789 69.199 461.622 69.3182C461.209 69.6203 460.78 69.8588 460.486 70.304C460.152 70.7968 459.914 71.3851 459.699 71.9415C459.477 72.5298 459.31 73.1339 459.318 73.7699C459.318 74.064 459.358 74.3581 459.437 74.6363C459.517 74.8987 459.779 75.2643 459.604 75.5187C459.461 75.7095 459.183 75.8367 459.032 76.0195C458.881 76.2024 458.778 76.409 458.698 76.6316C458.539 77.1086 458.563 77.6173 458.754 78.0864C459.008 78.6746 459.938 78.3248 459.684 77.7366C459.509 77.3391 459.564 76.8701 459.882 76.5601C460.2 76.2501 460.574 76.0831 460.661 75.5903C460.748 75.0974 460.454 74.6602 460.351 74.1912C460.232 73.6347 460.351 73.0544 460.534 72.5298C460.717 72.0051 460.947 71.4487 461.233 70.9717C461.456 70.5981 461.805 70.4152 462.147 70.1688C462.441 69.9542 462.719 69.7157 462.862 69.3739C463.029 68.9764 462.735 68.2053 463.331 68.2292L463.339 68.2133Z" fill="#E31919"/>
<path d="M459.501 73.7301C460.049 73.4042 459.469 72.6013 458.921 72.9193C458.317 73.2691 457.483 73.0147 456.831 73.2532C456.076 73.5234 455.909 74.1912 455.472 74.7794C455.385 74.8907 455.273 75.0338 455.13 75.0656C454.964 75.1053 454.773 74.9941 454.606 74.9702C454.209 74.9225 453.835 75.0577 453.509 75.2723C453.152 75.5028 452.834 75.8367 452.524 76.1229C452.182 76.4329 451.833 76.7509 451.491 77.0609C451.022 77.4902 451.594 78.293 452.071 77.8717C452.437 77.5378 452.802 77.2119 453.168 76.8781C453.478 76.5998 453.803 76.2421 454.161 76.0434C454.519 75.8446 454.876 76.099 455.266 76.0434C455.599 76.0036 455.885 75.8049 456.116 75.5744C456.593 75.0736 456.672 74.2309 457.459 74.1037C458.182 73.9924 458.857 74.1037 459.517 73.7063L459.501 73.7301Z" fill="#E31919"/>
<path d="M461.217 57.7201C461.034 58.3243 462.02 58.4912 462.203 57.8871C462.497 56.9332 462.838 56.1064 463.545 55.383C464.205 54.6994 464.102 53.9363 463.545 53.2367C463.243 52.8551 462.942 52.5531 463.021 52.0364C463.093 51.5435 463.363 51.0904 463.522 50.6214C463.665 50.208 463.688 49.4846 464.094 49.2302C464.404 49.0315 464.825 48.9679 464.737 48.4751C464.626 47.8471 463.641 47.9424 463.76 48.5704V48.634L463.871 48.2684C463.895 48.2366 463.657 48.3399 463.625 48.3558C463.53 48.4115 463.434 48.4671 463.355 48.5466C463.188 48.6976 463.061 48.8805 462.957 49.0792C462.727 49.5323 462.679 50.0649 462.481 50.5419C462.123 51.4163 461.75 52.3146 462.274 53.2049C462.465 53.5308 462.926 53.8727 463.013 54.2463C463.093 54.596 462.568 54.9299 462.369 55.1684C461.773 55.9156 461.487 56.8219 461.217 57.7122V57.7201Z" fill="#E31919"/>
<path d="M462.123 51.9092C462.393 51.9092 462.648 51.7979 462.695 51.5038C462.735 51.2573 462.552 50.9394 462.29 50.9314C461.988 50.9235 461.503 50.9314 461.289 50.6611C461.249 50.6134 461.225 50.526 461.225 50.4624C461.217 50.3591 461.225 50.3591 461.289 50.3193C461.583 50.1285 461.559 49.58 461.209 49.4608C460.907 49.3654 460.669 49.1826 460.439 48.9759C460.176 48.7453 459.906 48.5228 459.676 48.2684C459.596 48.1809 459.517 48.014 459.413 47.9425C459.39 48.0458 459.39 48.0617 459.413 48.0061C459.437 47.9822 459.445 47.9504 459.461 47.9107C459.509 47.7994 459.533 47.696 459.525 47.5768C459.525 47.394 459.469 47.2191 459.39 47.0601C459.358 46.9965 459.334 46.9408 459.31 46.8693C459.318 46.8852 459.27 46.9806 459.286 46.9567C459.715 46.4877 458.953 45.8438 458.524 46.3287C458.373 46.5116 458.309 46.7421 458.333 46.9726C458.341 47.0839 458.373 47.1952 458.412 47.2906C458.444 47.386 458.531 47.4814 458.539 47.5768C458.539 47.6165 458.539 47.6086 458.539 47.5609C458.516 47.6006 458.5 47.6483 458.476 47.6881C458.428 47.7994 458.412 47.9107 458.42 48.022C458.436 48.2763 458.571 48.491 458.722 48.6897C459.008 49.0395 459.35 49.3495 459.684 49.6436C460.017 49.9377 460.359 50.2239 460.788 50.367L460.709 49.5085C460.16 49.8662 460.113 50.6134 460.423 51.1381C460.764 51.7184 461.487 51.8853 462.107 51.9092H462.123Z" fill="#E31919"/>
<path d="M458.929 44.882C437.363 45.4225 445.579 72.1323 450.911 78.6587C456.243 85.1851 471.484 73.7937 477.77 63.7219C484.055 53.6501 461.456 44.8184 458.929 44.8899V44.882Z" stroke="#010101" stroke-width="4" stroke-miterlimit="10"/>
<path d="M458.968 60.3514L458.945 60.3037C458.674 60.7489 458.73 61.361 458.889 61.8538C459.048 62.3467 459.469 62.7203 459.914 62.9429C460.359 63.1655 460.995 63.1655 461.464 62.9985C461.718 62.9111 461.932 62.768 462.099 62.5772C462.298 62.4262 462.449 62.2195 462.552 61.9731L462.576 61.9413L462.306 62.3705L462.338 62.3387L461.964 62.6885L462.028 62.6329L461.575 62.8793L461.654 62.8475L461.138 62.9667L461.265 62.9508L460.733 62.927L460.812 62.9429L460.319 62.7918L460.399 62.8316L459.97 62.5613L460.001 62.5931L459.652 62.2195L459.707 62.2831L459.461 61.83L459.493 61.9095L459.374 61.3928L459.39 61.5199L459.413 60.9873C459.406 61.035 459.39 61.1145 459.39 61.1145L459.541 60.6217C459.525 60.6694 459.477 60.7489 459.477 60.7489L459.747 60.3196L459.66 60.4229L460.033 60.0732C460.033 60.0732 459.97 60.1368 459.93 60.1527L460.383 59.9062C460.327 59.938 460.288 59.9539 460.224 59.9698L460.74 59.8506C460.645 59.8744 460.55 59.8824 460.446 59.8824L460.979 59.9062C460.812 59.9062 460.629 59.8665 460.47 59.8188L460.963 59.9698C460.899 59.946 460.836 59.9142 460.78 59.8824L461.209 60.1527L461.138 60.0891L461.487 60.4627L461.432 60.3832L461.678 60.8363L461.654 60.7886L461.773 61.3053V61.2099L461.742 61.7425C461.742 61.6948 461.758 61.6471 461.766 61.5994L461.615 62.0923C461.638 62.0367 461.662 61.989 461.686 61.9413L461.416 62.3705C461.495 62.2592 461.583 62.1638 461.678 62.0685L461.305 62.4182C461.519 62.2115 461.75 62.0128 462.004 61.8538L461.551 62.1002C461.551 62.1002 461.622 62.0605 461.662 62.0605L461.146 62.1797H461.201L460.669 62.1559C460.709 62.1559 460.78 62.1797 460.78 62.1797L460.288 62.0287L460.335 62.0525L459.906 61.7823C460.009 61.8459 460.097 61.9174 460.176 62.0049L459.827 61.6312C459.93 61.7505 460.017 61.8777 460.097 62.0128L459.851 61.5597C459.906 61.6789 459.954 61.8061 459.994 61.9413L459.874 61.4245L459.898 61.6789L459.922 61.1463C459.922 61.2099 459.914 61.2735 459.89 61.3371L460.041 60.8443C460.017 60.884 459.978 60.9714 459.978 60.9714L460.248 60.5422L460.192 60.6137L460.566 60.2639L460.486 60.3275L460.939 60.0811C460.844 60.1288 460.74 60.1527 460.629 60.1845L461.146 60.0652C460.828 60.1447 460.494 60.1924 460.168 60.1845L460.701 60.2083C460.55 60.2004 460.407 60.1765 460.264 60.1368L460.756 60.2878C460.653 60.256 460.55 60.2083 460.454 60.1527L460.884 60.4229C460.812 60.3752 460.756 60.3196 460.693 60.2639L461.042 60.6376C461.003 60.5899 460.971 60.5501 460.939 60.5024L461.185 60.9555L461.146 60.8522L461.265 61.3689V61.2656C461.249 61.4405 461.233 61.6153 461.249 61.7902V61.7346L461.09 62.2274C461.09 62.1956 461.13 62.1241 461.13 62.1241L460.86 62.5534C460.907 62.4898 460.955 62.4421 461.011 62.3864L460.637 62.7362C460.748 62.6408 460.86 62.5534 460.979 62.4898L460.526 62.7362C460.669 62.6567 460.828 62.6011 460.979 62.5613L460.462 62.6805C460.574 62.6567 460.685 62.6408 460.804 62.6329C461.193 62.5931 461.575 62.458 461.893 62.2354C462.163 62.0446 462.417 61.7266 462.56 61.4405C462.703 61.1543 462.727 60.9396 462.743 60.6455C462.759 60.3514 462.727 60.097 462.632 59.8188C462.536 59.5644 462.369 59.3339 462.195 59.1431C461.861 58.7854 461.464 58.5628 460.979 58.4594C460.876 58.4356 460.764 58.4277 460.661 58.4038C460.407 58.3561 460.168 58.3164 459.914 58.2687L461.527 60.574L461.543 60.5342L461.392 61.0271C461.408 60.9873 461.448 60.9078 461.448 60.9078L461.178 61.3371C461.201 61.2974 461.257 61.2338 461.257 61.2338L460.884 61.5835C460.931 61.5358 460.995 61.4961 461.066 61.4563L460.613 61.7028C460.725 61.6471 460.844 61.5994 460.971 61.5756L460.454 61.6948C460.661 61.6471 460.86 61.6153 461.066 61.6233L460.534 61.5994C460.637 61.5994 460.725 61.6233 460.828 61.6471L460.335 61.4961C460.399 61.5199 460.47 61.5438 460.526 61.5835L460.097 61.3133C460.16 61.353 460.208 61.4007 460.264 61.4484L459.914 61.0748C459.97 61.1225 460.001 61.1861 460.041 61.2497L459.795 60.7966C459.843 60.884 459.874 60.9794 459.898 61.0827L459.779 60.566C459.803 60.6694 459.811 60.7727 459.811 60.876L459.835 60.3434C459.835 60.4468 459.811 60.5501 459.787 60.6535L459.938 60.1606C459.906 60.248 459.866 60.3275 459.819 60.415L460.089 59.9857C460.017 60.097 459.938 60.1924 459.851 60.2798L460.224 59.9301C460.105 60.0414 459.97 60.1368 459.827 60.2163L460.28 59.9698C460.065 60.0891 459.843 60.1606 459.612 60.2163L460.129 60.097C459.906 60.1447 459.692 60.1686 459.461 60.1606L459.994 60.1845C459.866 60.1765 459.755 60.1606 459.628 60.1209L460.121 60.2719C460.025 60.2401 459.922 60.1924 459.827 60.1368L460.256 60.407C460.176 60.3593 460.113 60.3116 460.049 60.2401L460.399 60.6137C460.335 60.5501 460.288 60.4786 460.24 60.407L460.486 60.8601C460.454 60.7966 460.438 60.7409 460.415 60.6694L460.534 61.1861L460.518 60.9794L460.494 61.512C460.502 61.4404 460.51 61.3689 460.526 61.2974L460.375 61.7902C460.399 61.7107 460.431 61.6233 460.478 61.5517L460.208 61.981C460.256 61.9015 460.303 61.8379 460.375 61.7743L460.001 62.1241C460.081 62.0446 460.176 61.981 460.28 61.9254L459.827 62.1718C459.946 62.1161 460.081 62.0684 460.216 62.0287L459.7 62.1479C459.906 62.1002 460.105 62.0843 460.319 62.0923L459.787 62.0685C460.001 62.0764 460.208 62.1161 460.415 62.1797L459.922 62.0287C460.144 62.0923 460.351 62.1956 460.55 62.3149L460.121 62.0446C460.319 62.1718 460.486 62.3149 460.653 62.4818L460.303 62.1082C460.399 62.2115 460.494 62.3228 460.566 62.4421C460.852 62.8793 461.336 63.1257 461.829 63.237C462.362 63.3562 462.902 63.1814 463.339 62.8952C463.744 62.6329 464.054 62.1002 464.134 61.6312C464.229 61.1066 464.078 60.5581 463.792 60.1209C463.347 59.4452 462.656 58.8887 461.917 58.5548C461.551 58.3879 461.154 58.2687 460.764 58.2051C460.47 58.1574 460.176 58.1574 459.89 58.1494C459.763 58.1494 459.628 58.1574 459.501 58.1733C458.905 58.2607 458.42 58.4356 457.912 58.7456C457.689 58.8887 457.482 59.0874 457.3 59.2862C457.117 59.4849 456.974 59.7154 456.855 59.9539C456.736 60.1924 456.648 60.4706 456.6 60.7171C456.569 60.8363 456.577 60.9794 456.577 61.1145C456.577 61.2497 456.561 61.3769 456.577 61.512C456.664 62.14 456.918 62.6885 457.355 63.1496C458.086 63.9206 459.135 64.2386 460.184 64.1273C460.955 64.0478 461.758 63.7776 462.393 63.3165C462.838 62.9747 463.156 62.5852 463.434 62.1082C463.522 61.9492 463.569 61.7902 463.625 61.6074C463.681 61.4246 463.736 61.2656 463.752 61.0907C463.808 60.5422 463.776 60.097 463.609 59.5724C463.53 59.3339 463.395 59.0874 463.259 58.8887C463.132 58.69 462.95 58.4992 462.775 58.3482C462.068 57.7281 461.058 57.5612 460.152 57.744C459.604 57.8553 459.167 57.9745 458.698 58.3005C458.595 58.372 458.5 58.4753 458.412 58.5628C458.309 58.6582 458.221 58.7218 458.142 58.8331C457.888 59.1908 457.761 59.4849 457.657 59.9142C457.53 60.4388 457.721 60.9953 457.999 61.4245C458.261 61.83 458.794 62.14 459.262 62.2195C459.612 62.2831 459.978 62.3308 460.327 62.4103L459.835 62.2592L459.93 62.299L459.501 62.0287L459.533 62.0605L458.945 61.2417L458.961 61.2815L458.841 60.7648V60.8045L459.016 59.779L459 59.8108L459.644 59.0318L459.612 59.0556L460.065 58.8092L459.994 58.841L460.51 58.7218C460.073 58.7854 459.62 58.841 459.215 59.0397C458.603 59.3339 458.071 59.7075 457.705 60.2957C457.546 60.5501 457.435 60.7966 457.371 61.0986C457.332 61.3053 457.332 61.5597 457.355 61.7664C457.411 62.2036 457.578 62.6567 457.872 62.9985C458.19 63.3562 458.428 63.547 458.841 63.7935C459.008 63.8968 459.191 63.9524 459.39 64.016C460.033 64.2148 460.717 64.2386 461.376 64.1114C461.917 64.0001 462.441 63.9047 462.902 63.5629C463.244 63.3165 463.506 62.9667 463.689 62.5931C463.768 62.4182 463.832 62.1956 463.871 62.0049C463.879 61.9572 463.895 61.9095 463.887 61.8618C463.927 61.3053 463.895 60.7727 463.641 60.2401C463.387 59.7075 463.108 59.31 462.663 58.9046C462.012 58.3164 461.05 58.1017 460.232 58.4197C459.843 58.5628 459.501 58.8251 459.191 59.0954C458.738 59.4929 458.38 59.8267 458.102 60.3593C457.935 60.6853 457.872 61.0271 457.856 61.3928C457.832 61.9095 457.975 62.3626 458.253 62.7998C458.476 63.1416 458.833 63.4119 459.191 63.5947C459.429 63.714 459.7 63.7855 459.946 63.8412C460.439 63.9445 460.939 63.9445 461.424 63.8412C461.773 63.7617 462.075 63.6424 462.377 63.4198C462.703 63.1814 462.95 62.8634 463.14 62.5057C463.244 62.3228 463.299 62.1002 463.355 61.8936C463.363 61.8459 463.387 61.8061 463.379 61.7664C463.426 61.353 463.395 60.9396 463.244 60.5501C463.029 60.0096 462.616 59.5883 462.115 59.3259C461.742 59.1351 461.344 59.0795 460.931 59.0954C460.796 59.0954 460.685 59.1431 460.55 59.1749C460.264 59.2385 460.017 59.3339 459.763 59.5167C459.413 59.7631 459.223 60.0573 459 60.415L458.968 60.3514Z" fill="#010101"/>
<path d="M429.671 74.851C408.104 75.3916 416.321 102.101 421.653 108.628C426.985 115.154 442.226 103.763 448.511 93.691C454.797 83.6191 432.197 74.7874 429.671 74.859V74.851Z" fill="#FAD8D9" stroke="#010101" stroke-width="4" stroke-miterlimit="10"/>
<path d="M433.914 92.8245C433.302 92.9994 433.652 93.9374 434.264 93.7545C434.399 93.7068 434.677 93.6035 434.796 93.7068C434.915 93.8102 434.764 94.3507 434.724 94.4938C434.613 95.0344 434.407 95.5431 434.208 96.0598C433.89 96.8945 433.636 97.8882 434.669 98.3016C435.146 98.4924 435.543 98.4685 435.471 99.1124C435.416 99.6291 435.265 100.098 435.408 100.607C435.551 101.116 435.916 101.505 436.139 101.974C436.385 102.483 436.481 103.031 436.473 103.596C436.465 104.232 437.45 104.144 437.458 103.5C437.466 102.857 437.355 102.229 437.069 101.624C436.783 101.02 436.266 100.535 436.353 99.8278C436.425 99.2714 436.584 98.7547 436.33 98.2141C436.115 97.761 435.71 97.602 435.257 97.4589C435.185 97.4351 434.971 97.4033 434.915 97.3397C434.796 97.2125 434.931 96.9422 434.971 96.823C435.074 96.513 435.209 96.2109 435.32 95.9009C435.519 95.3365 435.71 94.7562 435.765 94.152C435.805 93.6592 435.726 93.1504 435.297 92.8722C434.867 92.5939 434.351 92.6973 433.898 92.8324L433.914 92.8245Z" fill="#E31919"/>
<path d="M435.153 90.0819C434.526 89.9786 434.359 90.9484 434.987 91.0676C435.924 91.2346 436.337 90.4397 437.156 90.2489C438.086 90.0263 438.531 90.861 439.373 90.9484C440.144 91.0279 440.573 90.4158 441.129 90.0104C441.518 89.7242 441.971 89.6129 442.44 89.5652C442.774 89.5334 443.449 89.4221 443.751 89.597L443.497 89.3267C443.537 89.1439 443.513 89.136 443.426 89.2711C443.378 89.3267 443.322 89.3903 443.283 89.4619C443.203 89.605 443.139 89.7322 443.132 89.8991C443.124 90.1296 443.195 90.3284 443.418 90.4397C444.085 90.7497 444.832 90.8769 445.563 90.7497C445.921 90.6861 446.246 90.5748 446.596 90.384C446.946 90.1932 447.343 89.8117 447.748 89.8355C448.384 89.8594 448.551 88.8895 447.915 88.8498C447.144 88.81 446.715 89.2155 446.064 89.5414C445.349 89.8991 444.538 89.8593 443.831 89.5334L444.117 90.074C444.133 89.7878 444.506 89.605 444.49 89.2552C444.482 88.8816 444.196 88.6511 443.847 88.5795C442.901 88.3967 441.638 88.5477 440.811 89.0406C440.454 89.2473 439.961 89.9627 439.516 89.9706C439.262 89.9786 438.976 89.6606 438.769 89.5493C438.562 89.438 438.332 89.3426 438.102 89.287C437.633 89.1757 437.14 89.1916 436.679 89.3585C436.218 89.5255 435.654 90.1932 435.161 90.1058L435.153 90.0819Z" fill="#E31919"/>
<path d="M439.572 89.4381V89.4619C439.746 90.074 440.684 89.7242 440.501 89.1121C440.303 88.4126 440.398 87.6495 440.732 87.0056C440.899 86.6796 441.129 86.4094 441.391 86.1709C441.693 85.9006 441.844 85.5747 441.677 85.1852C441.582 84.9785 441.431 84.8274 441.24 84.7162C441.121 84.6446 440.923 84.6049 440.835 84.5015C440.652 84.2869 440.795 83.8576 440.859 83.6271C440.954 83.2694 441.073 82.9434 441.344 82.6891C441.614 82.4347 441.828 82.1644 441.781 81.7669C441.701 81.139 440.716 81.2264 440.795 81.8623C440.843 81.7749 440.835 81.7749 440.772 81.8623L440.732 81.91C440.66 81.9736 440.581 82.0452 440.501 82.1167C440.366 82.2598 440.255 82.4188 440.168 82.5857C439.993 82.9196 439.882 83.3409 439.81 83.6986C439.739 84.0564 439.731 84.4459 439.866 84.7956C439.937 84.9705 440.056 85.1375 440.207 85.2567C440.303 85.3362 440.541 85.527 440.676 85.519C440.756 85.5747 440.779 85.519 440.764 85.368L440.684 85.4395C440.605 85.4952 440.501 85.6065 440.438 85.678C440.319 85.8132 440.199 85.9483 440.104 86.0914C439.874 86.4253 439.699 86.783 439.58 87.1805C439.349 87.9197 439.349 88.6988 439.564 89.4381H439.572Z" fill="#E31919"/>
<path d="M430.1 88.2695C430.727 88.3331 430.91 87.3553 430.267 87.2838C429.822 87.2361 429.392 87.1486 428.979 86.9897C428.828 86.934 428.709 86.9261 428.701 86.783C428.701 86.6876 428.94 86.5206 429.003 86.4411C429.392 86.0119 429.639 85.4316 429.242 84.9069C428.924 84.4936 428.336 84.422 428.026 84.0166C427.716 83.6112 427.525 83.1263 427.223 82.7209C426.921 82.3154 426.5 82.0134 425.984 81.9577C425.364 81.8941 424.569 82.387 424.108 81.7987C423.6 81.1628 424.092 80.4632 424.005 79.7716C423.925 79.1834 423.401 78.8416 422.908 78.6031L423.194 79.1436C423.21 78.9529 423.21 78.7541 423.226 78.5554C423.25 77.9195 422.281 77.7525 422.241 78.3885C422.225 78.5792 422.225 78.778 422.209 78.9767C422.201 79.2072 422.273 79.406 422.495 79.5173C422.821 79.6763 423.043 79.7796 422.988 80.1532C422.932 80.5268 422.853 80.8925 422.884 81.282C422.956 81.918 423.258 82.4983 423.798 82.8401C424.41 83.2296 424.966 83.0229 425.626 82.9593C426.222 82.9037 426.46 83.3489 426.723 83.7861C426.985 84.2233 427.215 84.6923 427.613 85.0182C427.811 85.1772 428.185 85.2567 428.344 85.4316C428.463 85.5747 428.455 85.519 428.328 85.6939C428.24 85.8132 428.121 85.9006 428.034 86.0119C427.636 86.4888 427.485 87.1566 428.01 87.5938C428.534 88.031 429.432 88.1741 430.084 88.2536L430.1 88.2695Z" fill="#E31919"/>
<path d="M424.76 83.5873H424.776C425.38 83.3568 425.022 82.4267 424.426 82.6493C424.021 82.8003 423.79 83.1104 423.536 83.4522C423.266 83.8099 422.916 84.0643 422.487 84.1676C422.058 84.271 421.724 84.3505 421.486 84.7638C421.279 85.1136 421.176 85.4634 420.906 85.7972C420.636 86.1311 420.302 86.4093 419.897 86.5922C419.491 86.775 419.078 86.8625 418.784 87.2281C418.45 87.6494 418.117 89.3983 417.298 89.1121C416.702 88.8975 416.281 89.8037 416.885 90.0183C417.87 90.3681 418.689 89.7242 419.102 88.8657C419.205 88.6431 419.301 88.3967 419.396 88.1662C419.515 87.88 419.611 87.7687 419.905 87.6653C420.31 87.5064 420.691 87.3315 421.057 87.0373C421.422 86.7432 421.724 86.4014 421.963 86.0039C422.082 85.8131 422.169 85.6303 422.249 85.4316C422.36 85.1851 422.424 85.209 422.686 85.1534C423.147 85.05 423.576 84.8274 423.925 84.5095C424.196 84.263 424.418 83.7304 424.768 83.5953L424.76 83.5873Z" fill="#E31919"/>
<path d="M428.51 93.9215C429.083 93.6433 428.741 92.7132 428.161 92.9914L426.158 93.9374C425.626 94.1918 424.95 94.3984 424.513 94.8039C423.735 95.5352 424.474 96.7594 423.576 97.3636C423.163 97.6418 422.67 97.7769 422.233 97.9915C421.724 98.2459 421.47 98.6195 421.327 99.1681C421.255 99.4224 421.192 99.6609 421.017 99.8676C420.842 100.074 420.612 100.225 420.405 100.4C419.984 100.766 419.65 101.187 419.412 101.704C419.142 102.284 420.04 102.698 420.318 102.117C420.779 101.147 421.899 100.766 422.209 99.7166C422.273 99.5099 422.288 99.2475 422.432 99.0647C422.575 98.8819 422.845 98.8103 423.051 98.7229C423.457 98.548 423.902 98.3652 424.251 98.1028C424.601 97.8405 424.879 97.4987 424.99 97.0694C425.102 96.6402 424.919 96.0758 425.101 95.6703C425.213 95.416 425.539 95.3285 425.777 95.2172L426.651 94.7959L428.495 93.9215H428.51Z" fill="#E31919"/>
<path d="M422.249 98.1505V98.1664C422.606 98.6911 423.417 98.1108 423.059 97.5861C422.495 96.7594 421.462 96.4732 420.532 96.7674C420.445 96.7992 420.358 96.8151 420.27 96.8389C420.207 96.8548 420.183 96.823 420.238 96.8469C420.302 96.8707 420.238 96.8469 420.223 96.823C420.064 96.6243 419.897 96.4335 419.658 96.3222C419.182 96.1155 418.601 96.3063 418.117 96.3937C417.854 96.4414 417.648 96.6481 417.672 96.9343C417.696 97.1807 417.942 97.4272 418.212 97.3795C418.466 97.3397 418.705 97.2841 418.959 97.2443C419.078 97.2284 419.221 97.1887 419.301 97.2443C419.364 97.2841 419.412 97.3795 419.46 97.4351C419.547 97.5305 419.634 97.61 419.746 97.6815C419.96 97.8008 420.199 97.8405 420.437 97.8008C420.636 97.769 420.858 97.6815 421.017 97.6418C421.192 97.602 421.335 97.61 421.502 97.6418C421.812 97.6974 422.074 97.8803 422.257 98.1426L422.249 98.1505Z" fill="#E31919"/>
<path d="M434.065 98.1823C434.708 98.1982 434.605 97.2125 433.969 97.1887C433.429 97.1648 432.944 97.5066 432.754 98.0075C432.642 98.2936 432.754 98.556 432.698 98.8421C432.658 99.0568 432.515 99.1601 432.348 99.2793C431.935 99.5814 431.506 99.8199 431.212 100.265C430.878 100.758 430.64 101.346 430.425 101.903C430.203 102.491 430.036 103.095 430.044 103.731C430.044 104.025 430.084 104.319 430.163 104.597C430.243 104.86 430.505 105.225 430.33 105.48C430.187 105.671 429.909 105.798 429.758 105.981C429.607 106.163 429.504 106.37 429.424 106.593C429.265 107.07 429.289 107.578 429.48 108.047C429.734 108.636 430.664 108.286 430.41 107.698C430.235 107.3 430.29 106.831 430.608 106.521C430.926 106.211 431.3 106.044 431.387 105.551C431.474 105.059 431.18 104.621 431.077 104.152C430.958 103.596 431.077 103.016 431.26 102.491C431.443 101.966 431.673 101.41 431.959 100.933C432.182 100.559 432.531 100.376 432.873 100.13C433.167 99.9153 433.445 99.6768 433.588 99.335C433.755 98.9375 433.461 98.1664 434.057 98.1903L434.065 98.1823Z" fill="#E31919"/>
<path d="M430.243 103.699C430.791 103.373 430.211 102.57 429.663 102.888C429.059 103.238 428.224 102.984 427.573 103.222C426.818 103.492 426.651 104.16 426.214 104.748C426.127 104.86 426.015 105.003 425.872 105.035C425.705 105.074 425.515 104.963 425.348 104.939C424.951 104.892 424.577 105.027 424.251 105.241C423.894 105.472 423.576 105.806 423.266 106.092C422.924 106.402 422.575 106.72 422.233 107.03C421.764 107.459 422.336 108.262 422.813 107.841C423.179 107.507 423.544 107.181 423.91 106.847C424.219 106.569 424.545 106.211 424.903 106.012C425.26 105.814 425.618 106.068 426.007 106.012C426.341 105.973 426.627 105.774 426.858 105.543C427.334 105.043 427.414 104.2 428.201 104.073C428.924 103.962 429.599 104.073 430.259 103.675L430.243 103.699Z" fill="#E31919"/>
<path d="M431.959 87.6892C431.776 88.2933 432.762 88.4603 432.944 87.8561C433.238 86.9022 433.58 86.0755 434.287 85.3521C434.947 84.6684 434.844 83.9053 434.287 83.2058C433.985 82.8242 433.683 82.5221 433.763 82.0054C433.834 81.5126 434.105 81.0594 434.264 80.5904C434.407 80.1771 434.43 79.4537 434.836 79.1993C435.146 79.0006 435.567 78.937 435.479 78.4441C435.368 77.8161 434.383 77.9115 434.502 78.5395V78.6031L434.613 78.2374C434.637 78.2056 434.399 78.309 434.367 78.3249C434.271 78.3805 434.176 78.4362 434.097 78.5156C433.93 78.6667 433.803 78.8495 433.699 79.0483C433.469 79.5014 433.421 80.034 433.223 80.5109C432.865 81.3854 432.491 82.2836 433.016 83.174C433.207 83.4999 433.668 83.8417 433.755 84.2153C433.834 84.5651 433.31 84.899 433.111 85.1375C432.515 85.8847 432.229 86.7909 431.959 87.6812V87.6892Z" fill="#E31919"/>
<path d="M432.857 81.8782C433.127 81.8782 433.381 81.7669 433.429 81.4728C433.469 81.2264 433.286 80.9084 433.024 80.9005C432.722 80.8925 432.237 80.9005 432.023 80.6302C431.983 80.5825 431.959 80.4951 431.959 80.4315C431.951 80.3281 431.959 80.3281 432.023 80.2884C432.317 80.0976 432.293 79.5491 431.943 79.4298C431.641 79.3344 431.403 79.1516 431.172 78.9449C430.91 78.7144 430.64 78.4918 430.41 78.2374C430.33 78.15 430.251 77.9831 430.147 77.9115C430.123 78.0149 430.123 78.0308 430.147 77.9751C430.171 77.9513 430.179 77.9195 430.195 77.8797C430.243 77.7684 430.259 77.6651 430.259 77.5458C430.259 77.363 430.203 77.1881 430.123 77.0291C430.092 76.9655 430.068 76.9099 430.044 76.8384C430.052 76.8543 430.004 76.9496 430.02 76.9258C430.449 76.4568 429.686 75.8129 429.257 76.2978C429.106 76.4806 429.043 76.7112 429.067 76.9417C429.075 77.053 429.106 77.1643 429.146 77.2597C429.178 77.3551 429.265 77.4505 429.273 77.5458C429.273 77.5856 429.273 77.5776 429.273 77.5299C429.249 77.5697 429.234 77.6174 429.21 77.6571C429.162 77.7684 429.146 77.8797 429.154 77.991C429.17 78.2454 429.305 78.46 429.456 78.6588C429.742 79.0085 430.084 79.3186 430.417 79.6127C430.751 79.9068 431.093 80.193 431.522 80.3361L431.443 79.4775C430.894 79.8353 430.847 80.5825 431.157 81.1072C431.498 81.6875 432.221 81.8544 432.841 81.8782H432.857Z" fill="#E31919"/>
<path d="M429.671 74.851C408.104 75.3916 416.321 102.101 421.653 108.628C426.985 115.154 442.226 103.763 448.511 93.691C454.797 83.6191 432.197 74.7874 429.671 74.859V74.851Z" stroke="#010101" stroke-width="4" stroke-miterlimit="10"/>
<path d="M429.718 90.3204L429.694 90.2727C429.424 90.7179 429.48 91.33 429.639 91.8228C429.798 92.3157 430.219 92.6893 430.664 92.9119C431.109 93.1345 431.745 93.1345 432.213 92.9675C432.468 92.8801 432.682 92.737 432.849 92.5462C433.048 92.3952 433.199 92.1885 433.302 91.9421L433.326 91.9103L433.056 92.3396L433.088 92.3078L432.714 92.6575L432.778 92.6019L432.325 92.8483L432.404 92.8165L431.888 92.9358L432.015 92.9199L431.482 92.896L431.562 92.9119L431.069 92.7609L431.149 92.8006L430.719 92.5303L430.751 92.5621L430.402 92.1885L430.457 92.2521L430.211 91.799L430.243 91.8785L430.124 91.3618L430.139 91.489L430.163 90.9564C430.155 91.0041 430.139 91.0836 430.139 91.0836L430.29 90.5907C430.275 90.6384 430.227 90.7179 430.227 90.7179L430.497 90.2886L430.41 90.392L430.783 90.0422L430.68 90.1217L431.133 89.8753C431.077 89.9071 431.037 89.923 430.974 89.9388L431.49 89.8196C431.395 89.8435 431.3 89.8514 431.196 89.8514L431.729 89.8753C431.562 89.8753 431.379 89.8355 431.22 89.7878L431.713 89.9388C431.649 89.915 431.586 89.8832 431.53 89.8514L431.959 90.1217L431.888 90.0581L432.237 90.4317L432.182 90.3522L432.428 90.8053L432.404 90.7576L432.523 91.2743V91.1789L432.492 91.7116C432.492 91.6639 432.507 91.6162 432.515 91.5685L432.364 92.0613C432.388 92.0057 432.412 91.958 432.436 91.9103L432.166 92.3396C432.245 92.2283 432.333 92.1329 432.428 92.0375L432.054 92.3872C432.269 92.1806 432.499 91.9818 432.754 91.8228L432.301 92.0693L432.412 92.0295L431.896 92.1488H431.951L431.419 92.1249C431.458 92.1249 431.53 92.1488 431.53 92.1488L431.037 91.9977L431.085 92.0216L430.656 91.7513C430.759 91.8149 430.847 91.8864 430.926 91.9739L430.576 91.6003C430.68 91.7195 430.767 91.8467 430.847 91.9818L430.6 91.5287C430.656 91.648 430.704 91.7751 430.743 91.9103L430.624 91.3936C430.632 91.481 430.648 91.5605 430.648 91.648L430.672 91.1154C430.672 91.1789 430.664 91.2425 430.64 91.3061L430.791 90.8133C430.767 90.853 430.727 90.9405 430.727 90.9405L430.998 90.5112L430.942 90.5827L431.315 90.233L431.236 90.2966L431.689 90.0501C431.594 90.0978 431.49 90.1217 431.379 90.1535L431.896 90.0342C431.578 90.1137 431.244 90.1614 430.918 90.1535L431.451 90.1773C431.3 90.1694 431.157 90.1455 431.013 90.1058L431.506 90.2568C431.403 90.225 431.3 90.1773 431.204 90.1217L431.633 90.392C431.562 90.3443 431.506 90.2886 431.443 90.233L431.792 90.6066C431.753 90.5589 431.721 90.5191 431.689 90.4715L431.935 90.9246L431.896 90.8212L432.015 91.3379V91.2346C431.999 91.4095 431.991 91.5844 431.999 91.7592V91.7036L431.84 92.1965C431.84 92.1647 431.88 92.0931 431.88 92.0931L431.609 92.5224C431.657 92.4588 431.705 92.4111 431.76 92.3554L431.387 92.7052C431.498 92.6098 431.609 92.5224 431.729 92.4588L431.276 92.7052C431.419 92.6257 431.578 92.5701 431.729 92.5303L431.212 92.6496C431.323 92.6257 431.435 92.6098 431.554 92.6019C431.943 92.5621 432.325 92.427 432.643 92.2044C432.913 92.0136 433.167 91.6957 433.31 91.4095C433.453 91.1233 433.477 90.9087 433.493 90.6145C433.509 90.3204 433.477 90.066 433.382 89.7878C433.286 89.5334 433.119 89.3029 432.944 89.1121C432.611 88.7544 432.213 88.5318 431.729 88.4285C431.625 88.4046 431.514 88.3967 431.411 88.3728C431.157 88.3251 430.918 88.2854 430.664 88.2377L432.277 90.543L432.293 90.5033L432.142 90.9961C432.158 90.9564 432.198 90.8769 432.198 90.8769L431.927 91.3061C431.951 91.2664 432.007 91.2028 432.007 91.2028L431.633 91.5526C431.681 91.5049 431.745 91.4651 431.816 91.4254L431.363 91.6718C431.474 91.6162 431.594 91.5685 431.721 91.5446L431.204 91.6639C431.411 91.6162 431.609 91.5844 431.816 91.5923L431.284 91.5685C431.387 91.5685 431.474 91.5923 431.578 91.6162L431.085 91.4651C431.149 91.489 431.22 91.5128 431.276 91.5526L430.847 91.2823C430.91 91.322 430.958 91.3697 431.013 91.4174L430.664 91.0438C430.719 91.0915 430.751 91.1551 430.791 91.2187L430.545 90.7656C430.592 90.853 430.624 90.9484 430.648 91.0518L430.529 90.535C430.553 90.6384 430.561 90.7417 430.561 90.8451L430.584 90.3125C430.584 90.4158 430.561 90.5192 430.537 90.6225L430.688 90.1296C430.656 90.2171 430.616 90.2966 430.569 90.384L430.839 89.9548C430.767 90.066 430.688 90.1614 430.6 90.2489L430.974 89.8991C430.855 90.0104 430.719 90.1058 430.576 90.1853L431.029 89.9388C430.815 90.0581 430.592 90.1296 430.362 90.1853L430.878 90.066C430.656 90.1137 430.441 90.1376 430.211 90.1296L430.743 90.1535C430.616 90.1455 430.505 90.1296 430.378 90.0899L430.87 90.2409C430.775 90.2091 430.672 90.1614 430.576 90.1058L431.006 90.3761C430.926 90.3284 430.863 90.2807 430.799 90.2091L431.149 90.5827C431.085 90.5191 431.037 90.4476 430.99 90.3761L431.236 90.8292C431.204 90.7656 431.188 90.7099 431.164 90.6384L431.284 91.1551L431.268 90.9484L431.244 91.481C431.252 91.4095 431.26 91.3379 431.276 91.2664L431.125 91.7592C431.149 91.6798 431.18 91.5923 431.228 91.5208L430.958 91.95C431.006 91.8705 431.053 91.8069 431.125 91.7434L430.751 92.0931C430.831 92.0136 430.926 91.95 431.029 91.8944L430.576 92.1408C430.696 92.0852 430.831 92.0375 430.966 91.9977L430.449 92.117C430.656 92.0693 430.855 92.0534 431.069 92.0613L430.537 92.0375C430.751 92.0454 430.958 92.0852 431.164 92.1488L430.672 91.9977C430.894 92.0613 431.101 92.1647 431.3 92.2839L430.87 92.0136C431.069 92.1408 431.236 92.2839 431.403 92.4508L431.053 92.0772C431.149 92.1806 431.244 92.2919 431.315 92.4111C431.602 92.8483 432.086 93.0947 432.579 93.206C433.111 93.3253 433.652 93.1504 434.089 92.8642C434.494 92.6019 434.804 92.0693 434.883 91.6003C434.979 91.0756 434.828 90.5271 434.542 90.0899C434.097 89.4142 433.405 88.8577 432.666 88.5239C432.301 88.3569 431.903 88.2377 431.514 88.1741C431.22 88.1264 430.926 88.1264 430.64 88.1184C430.513 88.1184 430.378 88.1264 430.251 88.1423C429.655 88.2297 429.17 88.4046 428.661 88.7146C428.439 88.8577 428.232 89.0565 428.05 89.2552C427.867 89.4539 427.724 89.6845 427.605 89.923C427.485 90.1614 427.398 90.4397 427.35 90.6861C427.318 90.8053 427.326 90.9484 427.326 91.0836C427.326 91.2187 427.311 91.3459 427.326 91.481C427.414 92.109 427.668 92.6575 428.105 93.1186C428.836 93.8897 429.885 94.2076 430.934 94.0964C431.705 94.0169 432.507 93.7466 433.143 93.2855C433.588 92.9437 433.906 92.5542 434.184 92.0772C434.272 91.9182 434.319 91.7592 434.375 91.5764C434.43 91.3936 434.486 91.2346 434.502 91.0597C434.55 90.5112 434.518 90.066 434.351 89.5414C434.271 89.3029 434.136 89.0565 434.001 88.8577C433.874 88.659 433.691 88.4682 433.517 88.3172C432.809 87.6971 431.8 87.5302 430.894 87.713C430.346 87.8243 429.909 87.9436 429.44 88.2695C429.337 88.341 429.242 88.4444 429.154 88.5318C429.051 88.6272 428.963 88.6908 428.884 88.8021C428.63 89.1598 428.502 89.4539 428.399 89.8832C428.272 90.4079 428.463 90.9643 428.741 91.3936C429.003 91.799 429.536 92.109 430.004 92.1885C430.354 92.2521 430.719 92.2998 431.069 92.3793L430.576 92.2283L430.672 92.268L430.243 91.9977L430.274 92.0295L429.686 91.2107L429.702 91.2505L429.583 90.7338V90.7735L429.758 89.7481L429.742 89.7799L430.386 89.0008L430.354 89.0247L430.807 88.7782L430.735 88.81L431.252 88.6908C430.815 88.7544 430.362 88.81 429.957 89.0088C429.345 89.3029 428.812 89.6765 428.447 90.2648C428.288 90.5192 428.177 90.7656 428.113 91.0677C428.073 91.2743 428.065 91.5287 428.097 91.7354C428.153 92.1726 428.32 92.6257 428.614 92.9675C428.932 93.3253 429.17 93.5161 429.583 93.7625C429.75 93.8658 429.933 93.9215 430.131 93.9851C430.775 94.1838 431.458 94.2076 432.118 94.0805C432.658 93.9692 433.183 93.8738 433.644 93.532C433.985 93.2855 434.248 92.9358 434.43 92.5621C434.51 92.3872 434.573 92.1647 434.613 91.9739C434.621 91.9262 434.629 91.8785 434.629 91.8308C434.669 91.2743 434.637 90.7417 434.383 90.2091C434.128 89.6765 433.85 89.2791 433.405 88.8736C432.754 88.2854 431.792 88.0708 430.974 88.3887C430.584 88.5318 430.243 88.7941 429.933 89.0644C429.48 89.4619 429.122 89.7958 428.844 90.3284C428.677 90.6543 428.614 90.9961 428.598 91.3618C428.574 91.8785 428.717 92.3316 428.995 92.7688C429.218 93.1106 429.575 93.3809 429.933 93.5637C430.171 93.683 430.441 93.7545 430.688 93.8102C431.18 93.9135 431.681 93.9135 432.166 93.8102C432.515 93.7307 432.817 93.6114 433.119 93.3889C433.445 93.1504 433.691 92.8324 433.882 92.4747C433.985 92.2919 434.041 92.0693 434.097 91.8626C434.105 91.8149 434.121 91.7751 434.121 91.7354C434.168 91.322 434.136 90.9087 433.985 90.5192C433.771 89.9786 433.358 89.5573 432.857 89.295C432.484 89.1042 432.086 89.0485 431.673 89.0644C431.538 89.0644 431.427 89.1121 431.292 89.1439C431.006 89.2075 430.759 89.3029 430.505 89.4857C430.155 89.7322 429.965 90.0263 429.742 90.384L429.718 90.3204Z" fill="#010101"/>
<path d="M486.184 98.1903C455.011 93.9851 451.491 99.3747 451.491 99.3747C451.491 99.3747 454.852 102.682 466.112 104.907C477.364 107.141 486.177 98.1903 486.177 98.1903H486.184Z" fill="#F6A032" stroke="black" stroke-width="3" stroke-miterlimit="10"/>
<path d="M447.828 91.33C447.828 91.33 452.921 105.138 453.374 99.0726C453.827 93.0073 504.278 101.354 504.008 98.6275C503.73 95.9008 498.986 86.5206 486.979 76.4647C473.939 65.5502 447.836 91.33 447.836 91.33H447.828Z" fill="#F6A032" stroke="black" stroke-width="3" stroke-miterlimit="10"/>
<path d="M327.839 57.903C318.558 71.8064 308.069 36.0423 308.069 36.0423" stroke="black" stroke-width="4" stroke-miterlimit="10"/>
<path d="M356.438 221.659C356.144 220.618 354.801 220.157 353.871 220.507C352.798 220.92 352.433 222.041 352.719 223.074L354.165 228.234C354.388 229.036 354.61 229.831 354.833 230.626C354.88 230.809 355.063 231.755 355.007 231.755C355.047 231.755 355.309 231.548 355.341 231.525C355.715 231.27 355.707 231.779 355.301 231.334C354.896 230.889 354.467 230.507 354.086 230.03C352.918 228.591 351.749 227.144 350.581 225.706C349.938 224.903 348.674 224.545 347.808 225.253C346.481 226.326 346.441 227.701 346.712 229.251C346.799 229.72 346.719 229.672 346.267 230.125C345.758 230.634 345.313 231.199 345.011 231.866C343.787 234.569 345.178 237.336 345.321 240.086C345.4 241.517 344.757 242.86 344.105 244.1C343.295 245.635 342.389 247.113 341.531 248.616C339.687 251.811 337.843 255.015 336.008 258.218L338.646 257.249C334.903 255.206 331.78 252.169 329.5 248.576C328.507 246.994 327.696 245.317 327.076 243.544C326.456 241.771 326.218 239.768 325.074 238.226C322.309 234.498 317.35 236.493 315.213 239.768C314.132 241.422 313.647 243.377 312.582 245.031C312.566 245.046 311.247 246.604 311.184 246.398C311.216 246.509 311.581 246.485 311.581 246.525C311.581 246.493 311.303 246.135 311.255 246.072C310.882 245.539 310.54 244.991 310.183 244.45C307.465 240.332 304.739 236.207 302.03 232.097C300.623 229.959 297.397 232.288 298.803 234.418C300.377 236.795 301.974 239.228 303.524 241.573C305.073 243.918 306.535 246.366 308.188 248.632C309.666 250.651 312.129 250.834 314.06 249.299C315.713 247.98 316.603 246.032 317.43 244.148C318.073 242.67 318.741 241.104 320.274 240.364C320.791 240.118 321.22 240.022 321.633 240.34C322.142 240.714 322.332 241.541 322.507 242.129C323.683 246.032 325.161 249.641 327.672 252.908C330.191 256.191 333.354 258.87 336.969 260.858C337.979 261.406 339.099 260.762 339.608 259.888C341.411 256.748 343.231 253.6 345.035 250.46C346.592 247.749 348.642 244.935 349.175 241.787C349.413 240.348 349.246 238.957 348.96 237.542C348.73 236.413 348.277 235.038 348.507 233.901C348.73 232.828 349.922 232.24 350.391 231.246C350.716 230.555 350.764 229.752 350.677 228.997C350.645 228.742 350.597 228.504 350.558 228.249C350.438 227.439 350.661 228.035 350.113 228.472L347.339 228.019C348.921 229.967 350.399 232.129 352.187 233.878C353.736 235.404 356.334 236.191 357.995 234.355C359.465 232.717 358.901 230.531 358.377 228.639C357.725 226.302 357.073 223.973 356.422 221.636V221.659H356.438Z" fill="black"/>
<path d="M408.669 271.343C408.168 270.381 407.199 269.777 406.102 270.19C405.18 270.54 404.449 271.812 404.95 272.758C405.935 274.658 406.785 276.653 406.897 278.815C406.992 280.715 406.34 282.567 405.665 284.316C404.934 286.208 404.131 288.1 403.694 290.072C403.257 292.043 403.178 294.134 403.448 296.129C403.686 297.91 404.195 299.73 404.95 301.336C405.705 302.942 406.761 305.112 408.454 305.915C410.25 306.765 412.229 305.946 413.325 304.452C414.422 302.957 414.43 301.344 414.883 299.627C415.137 298.665 415.574 298.458 416.4 299.102C417.592 300.032 417.648 301.948 417.902 303.299C418.53 306.63 420.524 310.533 424.545 310.04C426.262 309.834 427.668 308.737 428.749 307.449C429.337 306.757 429.829 305.978 430.314 305.207C430.37 305.12 430.847 304.428 430.807 304.388L429.925 304.476L429.996 304.515C429.996 304.515 430.497 304.945 430.473 304.929C431.649 306.034 432.364 307.552 433.389 308.784C434.542 310.191 435.988 311.376 437.768 311.853C441.614 312.878 444.792 309.293 447.025 306.678C449.393 303.903 451.3 300.716 452.651 297.329C453.597 294.952 449.989 293.291 449.044 295.66C447.621 299.229 445.595 302.465 442.965 305.263C442.043 306.24 440.557 308.132 439.055 308.061C437.641 307.997 436.576 306.487 435.845 305.453C434.867 304.078 433.962 302.608 432.619 301.542C431.013 300.263 428.892 300.175 427.636 301.988C426.834 303.148 424.792 307.481 423.004 305.684C421.994 304.674 421.851 303.053 421.613 301.733C421.295 299.976 420.882 298.156 419.658 296.789C417.282 294.142 412.928 293.959 411.37 297.568C410.798 298.887 410.981 300.477 410.337 301.725C410.29 301.829 409.932 302.242 409.924 302.298C409.924 302.266 410.17 302.496 410.147 302.321C410.123 302.147 409.702 301.741 409.606 301.598C409.392 301.28 409.177 300.962 408.994 300.628C407.469 297.91 406.904 294.634 407.421 291.558C407.969 288.267 409.757 285.342 410.496 282.09C411.354 278.354 410.361 274.666 408.629 271.335H408.653L408.669 271.343Z" fill="black"/>
<path d="M207.874 274.244C207.159 273.434 206.039 273.108 205.101 273.791C204.283 274.372 203.941 275.763 204.648 276.566C207.382 279.658 210.115 282.742 212.849 285.835C213.794 286.908 215.066 288.052 215.519 289.444C215.709 290.048 215.63 291.065 215.129 291.224C214.74 291.351 213.977 291.065 213.516 291.017C212.658 290.93 211.855 290.97 211.085 291.359C209.519 292.154 209.106 293.903 209.305 295.533C209.63 298.275 211.14 300.604 212.769 302.743C213.58 303.808 214.422 304.841 215.169 305.962C215.765 306.853 216.599 308.061 216.56 309.166L216.734 308.14C216.822 307.878 217.219 307.918 216.536 307.981C216.011 308.029 215.495 308.077 214.97 308.124C213.866 308.22 212.745 308.315 211.641 308.419C210.6 308.514 209.551 308.593 208.51 308.697C207.564 308.784 206.571 308.896 205.777 309.468C202.598 311.733 205.451 315.414 206.77 317.775C208.184 320.303 209.336 323.634 208.47 326.527C208.232 327.338 207.731 328.403 206.778 328.181C205.951 327.99 205.141 327.505 204.362 327.163C203.536 326.805 202.701 326.432 201.875 326.066C198.442 324.548 195.009 323.022 191.577 321.511C189.232 320.47 187.572 324.087 189.908 325.12C193.992 326.925 198.085 328.729 202.169 330.534C204.012 331.344 205.999 332.529 208.081 332.084C209.885 331.694 211.236 330.255 211.927 328.594C213.31 325.319 212.714 321.424 211.395 318.22C210.719 316.591 209.797 315.12 208.876 313.625C208.741 313.403 208.264 312.234 208.335 312.234C208.447 312.234 208.002 312.823 208.033 312.719C208.002 312.815 208.009 312.719 208.232 312.711C208.454 312.703 208.693 312.664 208.915 312.648C210.878 312.465 212.833 312.298 214.796 312.123C216.528 311.964 218.753 312.115 219.953 310.613C222.003 308.053 218.721 303.895 217.179 301.876C215.638 299.857 213.524 297.647 213.286 295C213.286 294.929 213.286 294.642 213.262 294.579C213.159 294.38 213.182 294.619 213.008 294.817C212.706 295.159 212.674 294.817 212.992 294.905C213.182 294.96 212.054 294.778 213.302 294.96C214.057 295.064 214.819 295.223 215.574 295.143C217.195 294.976 218.562 293.824 219.198 292.345C220.755 288.736 218.109 285.723 215.876 283.195C213.23 280.206 210.584 277.209 207.938 274.221L207.906 274.236L207.874 274.244Z" fill="black"/>
<path d="M163.979 302.624C118.638 382.014 145.353 425.194 145.353 425.194C145.353 425.194 121.554 414.701 115.022 405.846C108.49 396.998 104.605 385.988 92.8919 382.371C81.1791 378.754 86.7097 357.379 102.57 343.133C118.431 328.888 102.658 296.145 87.8619 309.905C73.0739 323.665 54.4637 287.488 36.5687 258.87C18.6737 230.253 21.9794 205.292 44.507 183.24C67.0347 161.189 43.7442 165.307 105.399 185.951C167.054 206.595 163.987 302.631 163.987 302.631H163.979V302.624Z" fill="#F9F5E2" stroke="black" stroke-width="4" stroke-miterlimit="10"/>
<path d="M236.346 464.941C241.225 459.424 288.489 463.749 359.632 483.487C430.767 503.225 492.494 487.215 494.838 512.264C497.182 537.312 484.198 586.574 436.632 591.113C389.065 595.66 43.927 552.821 40.82 546.803C37.713 540.786 13.6199 473.582 55.9417 467.016C98.2635 460.442 236.346 464.941 236.346 464.941Z" fill="black"/>
<path d="M209.217 83.4522C184.401 105.758 141.444 140.942 135.444 126.609C129.445 112.277 199.102 78.9131 209.027 81.4172C218.951 83.9212 209.217 83.4522 209.217 83.4522Z" fill="white" stroke="black" stroke-width="4" stroke-miterlimit="10"/>
<path d="M162.819 87.6812C146.863 102.022 119.242 124.646 115.388 115.432C111.534 106.219 156.319 84.7638 162.7 86.3776C169.081 87.9913 162.827 87.6812 162.827 87.6812H162.819Z" fill="white" stroke="black" stroke-width="4" stroke-miterlimit="10"/>
<path d="M185.005 568.457C185.005 568.457 186.324 658.317 194.954 672.657C203.583 686.998 169.422 710.162 161.937 684.343C154.452 658.524 164.027 565.842 168.215 566.367C172.402 566.891 185.005 568.457 185.005 568.457Z" fill="black" stroke="black" stroke-width="4" stroke-miterlimit="10"/>
<path d="M195.089 664.112C195.089 664.112 276.8 669.971 291.493 684.955C306.186 699.94 189.089 673.405 193.539 685.678C197.997 697.952 211.291 761.126 194.699 749.448C178.108 737.763 178.878 688.898 170.598 695.13C162.318 701.363 68.4332 690.432 78.8905 680.909C89.3478 671.378 158.782 665.694 159.013 662.824" fill="black"/>
<path d="M195.089 664.112C195.089 664.112 276.8 669.971 291.493 684.955C306.186 699.94 189.089 673.405 193.539 685.678C197.997 697.952 211.291 761.126 194.699 749.448C178.108 737.763 178.878 688.898 170.598 695.13C162.318 701.363 68.4332 690.432 78.8905 680.909C89.3478 671.378 158.782 665.694 159.013 662.824" stroke="black" stroke-width="4" stroke-miterlimit="10"/>
<path d="M274.496 705.146C278.924 705.146 282.514 701.555 282.514 697.126C282.514 692.696 278.924 689.105 274.496 689.105C270.068 689.105 266.478 692.696 266.478 697.126C266.478 701.555 270.068 705.146 274.496 705.146Z" fill="black" stroke="black" stroke-width="4" stroke-miterlimit="10"/>
<path d="M190.52 759.13C194.992 759.13 198.617 755.504 198.617 751.03C198.617 746.556 194.992 742.93 190.52 742.93C186.048 742.93 182.422 746.556 182.422 751.03C182.422 755.504 186.048 759.13 190.52 759.13Z" fill="black" stroke="black" stroke-width="4" stroke-miterlimit="10"/>
<path d="M83.5788 702.539C87.6602 702.539 90.9689 699.229 90.9689 695.146C90.9689 691.063 87.6602 687.753 83.5788 687.753C79.4974 687.753 76.1888 691.063 76.1888 695.146C76.1888 699.229 79.4974 702.539 83.5788 702.539Z" fill="black" stroke="black" stroke-width="4" stroke-miterlimit="10"/>
<path d="M579.029 240.73C579.029 240.73 136.191 504.267 102.348 511.119C68.5048 517.971 76.3159 739.368 76.1809 787.168C76.0458 834.967 369.382 804.776 406.301 807.295C443.219 809.815 797.813 594.841 815.414 511.119C833.015 427.396 850.624 261.056 850.624 261.056C850.624 261.056 828.549 232.868 579.021 240.722L579.029 240.73Z" fill="#533217" stroke="black" stroke-width="4" stroke-miterlimit="10"/>
<path d="M94.5526 517.351C94.5526 517.351 413.484 535.587 417.664 539.991C421.844 544.395 850.632 261.064 850.632 261.064C850.632 261.064 819.411 224.203 579.029 240.73L94.5526 517.351Z" fill="#79471E" stroke="black" stroke-width="4" stroke-miterlimit="10"/>
<path d="M569.644 343.682C567.697 343.094 560.983 346.909 558.599 346.909C556.215 346.909 557.081 347.434 553.839 345.264C550.597 343.094 548.857 343.38 546.258 345.296C543.66 347.211 543.445 350.733 538.026 348.38C532.614 346.027 533.044 340.621 528.498 343.626C523.953 346.631 523.301 351.027 522.006 351.321C520.711 351.607 515.514 350.439 512.042 349.262C508.577 348.086 508.362 339.262 504.675 347.044C500.988 354.827 499.479 353.96 495.362 352.776C491.246 351.599 489.514 347.792 488.648 351.305C487.782 354.819 483.014 360.996 485.183 362.458C487.353 363.929 495.362 360.399 497.746 360.701C500.13 361.003 499.916 362.76 502.729 364.223C505.541 365.678 507.282 367.45 508.792 365.392C510.301 363.333 510.961 358.937 513.551 361.576C516.142 364.215 517.668 368.142 520.043 366.33C522.427 364.517 522.213 361.29 524.16 360.988C526.106 360.686 526.83 361.576 529.507 362.744C532.185 363.913 532.4 365.686 534.132 363.627C535.864 361.568 539.059 355.701 541.03 358.929C543 362.156 540.624 361.87 544.089 362.744C547.553 363.627 553.187 362.744 553.616 359.517C554.046 356.29 554.181 355.995 556.39 358.348C558.599 360.701 562.929 361.29 564.662 358.062C566.394 354.835 564.376 350.725 568.412 353.364C572.449 356.003 577.654 359.533 579.609 357.776C581.563 356.019 585.314 353.364 583.328 350.725C581.341 348.086 579.172 343.253 575.922 342.728C572.672 342.203 570.963 344.556 570.963 344.556L569.644 343.674V343.682Z" fill="white"/>
<path d="M566.259 313.061C564.312 312.473 557.598 316.288 555.214 316.288C552.83 316.288 553.696 316.813 550.454 314.643C547.212 312.473 545.472 312.759 542.873 314.675C540.275 316.591 540.06 320.112 534.641 317.759C529.229 315.406 529.658 310.001 525.113 313.005C520.568 316.01 519.916 320.406 518.621 320.7C517.326 320.987 512.129 319.818 508.656 318.641C505.184 317.465 504.977 308.641 501.29 316.424C497.603 324.206 496.093 323.34 491.977 322.155C487.861 320.971 486.129 317.171 485.263 320.684C484.389 324.206 479.629 330.375 481.798 331.837C483.967 333.308 491.977 329.778 494.361 330.081C496.745 330.383 496.53 332.139 499.343 333.602C502.156 335.057 503.897 336.83 505.406 334.771C506.916 332.712 507.576 328.316 510.166 330.955C512.765 333.594 514.282 337.521 516.658 335.709C519.042 333.896 518.828 330.669 520.775 330.367C522.721 330.065 523.444 330.955 526.122 332.124C528.8 333.292 529.015 335.065 530.747 333.006C532.479 330.947 535.674 325.08 537.644 328.308C539.615 331.535 537.239 331.249 540.704 332.124C544.168 333.006 549.802 332.124 550.231 328.896C550.66 325.669 550.796 325.375 553.005 327.728C555.214 330.081 559.544 330.669 561.277 327.441C563.009 324.214 560.991 320.104 565.027 322.743C569.064 325.382 574.269 328.912 576.224 327.155C578.178 325.398 581.929 322.743 579.942 320.104C577.956 317.465 575.787 312.632 572.537 312.107C569.287 311.582 567.578 313.935 567.578 313.935L566.259 313.053V313.061Z" fill="white"/>
<path d="M576.414 378.635C574.467 378.047 567.753 381.863 565.369 381.863C562.985 381.863 563.851 382.387 560.609 380.217C557.367 378.047 555.627 378.333 553.028 380.249C550.43 382.165 550.215 385.686 544.796 383.333C539.385 380.98 539.814 375.575 535.269 378.579C530.723 381.584 530.072 385.98 528.776 386.274C527.481 386.561 522.284 385.392 518.812 384.216C515.347 383.039 515.133 374.215 511.446 381.998C507.759 389.78 506.249 388.914 502.133 387.729C498.016 386.545 496.284 382.745 495.418 386.259C494.544 389.78 489.784 395.949 491.953 397.411C494.123 398.874 502.133 395.353 504.516 395.655C506.9 395.957 506.686 397.714 509.499 399.176C512.312 400.631 514.052 402.404 515.562 400.345C517.072 398.286 517.731 393.89 520.322 396.529C522.92 399.168 524.438 403.095 526.814 401.283C529.198 399.47 528.983 396.243 530.93 395.941C532.877 395.639 533.6 396.529 536.278 397.698C538.956 398.866 539.17 400.639 540.902 398.58C542.635 396.521 545.829 390.655 547.8 393.882C549.77 397.109 547.395 396.823 550.859 397.698C554.324 398.572 559.958 397.698 560.387 394.47C560.816 391.243 560.951 390.949 563.16 393.302C565.369 395.655 569.7 396.243 571.432 393.015C573.164 389.788 571.146 385.678 575.183 388.317C579.219 390.957 584.424 394.486 586.379 392.729C588.334 390.973 592.084 388.317 590.098 385.678C588.111 383.039 585.942 378.206 582.692 377.681C579.442 377.157 577.733 379.51 577.733 379.51L576.414 378.627V378.635Z" fill="white"/>
<path d="M421.502 347.211C418.403 349.318 415.01 380.106 419.555 383.619C424.108 387.141 440.128 389.486 444.029 385.376C447.931 381.266 447.494 351.313 445.976 347.195C444.459 343.078 432.325 339.858 421.502 347.195V347.211Z" fill="#7F9395" stroke="black" stroke-miterlimit="10"/>
<path d="M420.914 347.927C420.914 347.927 415.105 342.37 419.436 339.723C423.767 337.076 445.976 335.311 447.065 340.009C448.146 344.707 448.376 349.119 447.065 349.119C445.754 349.119 423.361 345.256 420.906 347.927H420.914Z" fill="#7F9395" stroke="black" stroke-miterlimit="10"/>
<path d="M417.839 370.845C417.839 370.845 422.67 367.872 424.132 368.977C425.594 370.082 428.312 370.622 430.06 370.249C431.808 369.867 432.984 370.853 434.446 371.52C435.908 372.188 437.776 371.966 439.039 372.236C440.303 372.506 440.581 372.236 441.312 372.896C442.043 373.556 443.219 374.541 443.751 374.653C444.284 374.764 445.134 375.591 445.214 375.757C445.293 375.924 445.984 376.584 445.984 376.918C445.984 377.252 444.848 384.303 443.791 385.066C442.734 385.837 438.674 387.491 435.384 387.046C431.935 386.879 424.943 385.44 422.066 384.351C420.397 383.524 418.816 383.58 418.371 380.217C417.926 376.854 417.576 376.083 417.847 370.853L417.839 370.845Z" fill="white"/>
<path d="M292.748 482.756C297.778 481.078 297.778 473.534 301.966 469.337C306.154 465.14 309.094 465.561 312.86 460.116C316.627 454.671 317.469 448.796 319.988 444.599C322.507 440.402 327.116 447.532 330.883 437.89C334.649 428.247 330.461 424.471 337.589 423.215C344.717 421.959 348.484 417.348 351.837 416.084C355.19 414.821 356.867 420.043 355.611 425.194C354.356 430.346 361.476 437.055 363.573 438.311C365.671 439.567 366.506 452.985 371.536 455.084C376.566 457.183 373.276 453.407 380.578 454.663C387.881 455.919 388.715 463.669 391.656 462.731C394.596 461.793 401.485 456.125 403.273 462.731C405.061 469.337 402.971 471.499 395.843 473.566C388.715 475.633 381.174 477.732 373.626 482.756C366.077 487.78 369.017 489.044 362.31 489.044C355.603 489.044 351.829 495.331 345.122 497.43C338.416 499.529 316.198 502.041 312.431 505.395C308.665 508.75 303.301 510.427 298.438 507.907C293.575 505.387 289.776 517.129 284.127 512.518C278.477 507.907 272.191 497.001 279.74 494.489C287.289 491.977 292.733 482.748 292.733 482.748L292.748 482.756Z" fill="white"/>
<path d="M323.453 449.106C322.507 450.68 321.879 458.224 321.879 459.17C321.879 460.116 319.996 462.477 318.423 464.75C316.849 467.024 316.54 464.512 315.912 472.692C315.284 480.872 309.308 481.182 307.425 483.702C305.542 486.222 306.17 491.564 308.999 492.82C311.827 494.075 314.346 495.331 317.803 490.307C321.26 485.284 324.406 488.423 325.034 485.594C325.662 482.764 324.716 474.663 325.034 474.623C325.352 474.584 327.052 472.7 328.713 468.296C330.374 463.892 329.881 462.008 328.713 457.922C327.545 453.836 325.034 449.114 325.034 449.114H323.461L323.453 449.106Z" fill="#F2F2F2"/>
<path d="M331.781 480.236C331.431 480.816 331.2 483.622 331.2 483.972C331.2 484.322 330.501 485.196 329.921 486.047C329.341 486.897 329.222 485.959 328.991 488.996C328.761 492.032 326.544 492.144 325.845 493.082C325.145 494.02 325.376 495.999 326.425 496.468C327.474 496.937 328.411 497.398 329.691 495.538C330.97 493.678 332.138 494.839 332.377 493.789C332.615 492.74 332.257 489.735 332.377 489.719C332.496 489.703 333.123 489.004 333.743 487.374C334.363 485.745 334.18 485.037 333.743 483.527C333.306 482.016 332.377 480.26 332.377 480.26H331.796L331.781 480.236Z" fill="#F2F2F2"/>
<path d="M417.664 539.991C417.664 539.991 426.858 803.448 416.583 805.372" stroke="black" stroke-width="4" stroke-miterlimit="10"/>
</g>
<defs>
<clipPath id="clip0_16_302">
<rect width="853" height="816" fill="white"/>
</clipPath>
</defs>
</svg>
