<svg width="179" height="31" viewBox="0 0 179 31" fill="none" xmlns="http://www.w3.org/2000/svg">
<g clip-path="url(#clip0_2_114)">
<path d="M10.1 7.5C10.14 11.8 9.12 16.01 8.98 20.3C8.91 22.37 9 24.63 9.64 26.62C10.48 29.23 12.55 30.1 15.1 30.32C16.45 30.44 17.6 29.09 17.6 27.82C17.6 26.37 16.45 25.44 15.1 25.32C15.04 25.32 14.23 25.25 14.24 25.16C14.24 25.14 14.6 25.43 14.51 25.45C14.39 25.47 14.1 23.57 14.06 23.28C13.88 21.55 13.96 19.79 14.13 18.06C14.46 14.54 15.14 11.06 15.1 7.51C15.07 4.29 10.07 4.29 10.1 7.51V7.5Z" fill="white"/>
<path d="M2.5 13.4C8.09 14.14 13.85 13.04 19.36 14.09C20.68 14.34 22.06 13.72 22.44 12.34C22.78 11.12 22.03 9.51999 20.69 9.25999C14.66 8.10999 8.55 9.17999 2.5 8.38999C1.16 8.20999 0 9.66999 0 10.89C0 12.39 1.16 13.21 2.5 13.39V13.4Z" fill="white"/>
<path d="M31.18 15.94C35.78 16.78 41.16 15.79 43.52 11.27C44.67 9.06 45.14 5.8 42.59 4.36C40.46 3.16 37.55 3.96 35.26 4.13C34.03 4.22 32.74 4.31 31.56 4.7C30.38 5.09 29.31 5.7 28.28 6.4C26.19 7.83 24.29 9.31 23.44 11.79C21.96 16.1 22.81 21.64 25.12 25.51C25.82 26.68 26.81 27.8 28.16 28.2C29.58 28.63 30.79 28.1 32.12 27.7C34.49 26.98 37.05 26.73 39.51 27.1C40.84 27.3 42.2 26.77 42.59 25.35C42.91 24.17 42.19 22.47 40.84 22.27C37.03 21.71 33.31 22 29.65 23.25C29.51 23.3 29.29 23.37 29.29 23.38C29.29 23.38 29.79 23.55 29.87 23.55C29.8 23.55 29.69 23.37 29.58 23.22C29.15 22.61 28.83 21.88 28.58 21.18C28.05 19.7 27.78 18.21 27.77 16.65C27.77 15.34 27.77 13.66 28.55 12.57C29.37 11.42 31 10.47 32.24 9.82C33.6 9.1 35.16 9.17 36.65 9.02C37.58 8.93 38.51 8.79 39.44 8.77C39.63 8.77 39.81 8.77 40 8.77C41 8.79 40.24 8.76 40.19 8.77L40.31 8.8C40.93 9 40.65 8.58 39.46 7.54C39.44 7.57 39.46 8 39.48 7.74C39.34 9.07 38.38 10.11 37.14 10.71C35.72 11.39 33.99 11.39 32.49 11.12C31.16 10.88 29.79 11.48 29.41 12.87C29.08 14.08 29.82 15.7 31.16 15.95L31.18 15.94Z" fill="white"/>
<path d="M49.51 5.81C49.19 9.21 48.98 12.61 48.9 16.03C48.82 19.45 48.54 22.87 49.56 26.03C49.97 27.32 51.29 28.14 52.64 27.78C53.9 27.43 54.8 26 54.39 24.7C53.48 21.87 53.85 18.57 53.92 15.64C54.01 12.36 54.21 9.08 54.52 5.81C54.65 4.46 53.28 3.31 52.02 3.31C50.56 3.31 49.65 4.46 49.52 5.81H49.51Z" fill="white"/>
<path d="M62.95 18.15C67.19 18.53 70.78 15.25 72.83 11.86C74.26 9.50999 73.36 6.86999 71.2 5.34999C69.56 4.19999 67.23 3.73999 65.26 3.76999C63.02 3.80999 61.14 4.79999 59.38 6.11999C58.49 6.78999 57.64 7.40999 57 8.34999C56.4 9.22999 56.13 10.27 55.97 11.31C55.39 15.19 54.9 20.04 57.82 23.15C59.37 24.81 61.6 25.41 63.77 25.68C66.09 25.97 68.47 25.96 70.81 25.87C72.16 25.82 73.31 24.76 73.31 23.37C73.31 22.06 72.17 20.82 70.81 20.87C69.15 20.93 67.49 20.93 65.84 20.85C65.2 20.82 64.54 20.79 63.9 20.7C64.27 20.75 63.54 20.62 63.42 20.6C63.05 20.52 62.68 20.42 62.32 20.29C62.65 20.41 62.01 20.13 61.91 20.07C61.81 20.01 61.7 19.94 61.6 19.87C61.89 20.08 61.57 19.84 61.53 19.79C61.41 19.67 61.29 19.56 61.19 19.42C61.23 19.47 61.36 19.66 61.22 19.42C61.13 19.28 61.05 19.14 60.98 18.99C60.8 18.64 61.1 19.47 60.9 18.78C60.82 18.5 60.74 18.22 60.68 17.92C60.65 17.79 60.63 17.67 60.61 17.54C60.63 17.66 60.64 17.94 60.61 17.44C60.57 16.77 60.56 16.1 60.58 15.43C60.62 14.02 60.62 12.55 61.09 11.25C61.09 11.24 61.3 10.93 61.18 11.07C61.32 10.91 61.71 10.58 61.72 10.57C62.11 10.26 62.89 9.69999 63.48 9.34999C64.45 8.77999 65.43 8.65999 66.53 8.84999C66.89 8.90999 67.24 8.98999 67.59 9.08999C67.91 9.18999 68.05 9.25999 68.12 9.28999C68.24 9.35999 68.36 9.41999 68.47 9.48999C68.21 9.31999 68.52 9.53999 68.56 9.57999C68.4 9.39999 68.64 9.41999 68.63 9.66999C68.63 9.57999 68.59 9.42999 68.58 9.32999C68.59 9.53999 68.65 9.02999 68.67 9.06999C68.71 9.13999 68.33 9.60999 68.29 9.66999C68.13 9.89999 67.83 10.33 67.75 10.43C67.4 10.88 66.78 11.54 66.26 12.02C66.28 12 65.94 12.29 66.08 12.18C66.16 12.12 65.73 12.42 65.65 12.47C65.49 12.57 65.33 12.66 65.17 12.75C65.14 12.77 64.79 12.94 65.01 12.85C64.74 12.97 64.12 13.14 64.01 13.16C64.22 13.13 63.78 13.18 63.79 13.18C63.51 13.18 63.24 13.18 62.96 13.15C61.61 13.03 60.46 14.38 60.46 15.65C60.46 17.1 61.61 18.03 62.96 18.15H62.95Z" fill="white"/>
<path d="M84.47 3.89999C82.04 5.03999 80.18 7.51999 80.55 10.29C80.92 13.06 83.21 15.23 85.92 16.05C88.45 16.82 91.28 16.71 93.9 16.66C95.34 16.63 96.83 16.34 97.8 15.17C98.86 13.9 99.1 12.33 98.8 10.73C98.24 7.67999 95.54 5.62999 92.85 4.47999C91.65 3.96999 90.11 4.07999 89.43 5.37999C88.86 6.44999 89.04 8.24999 90.33 8.79999C90.89 9.03999 91.44 9.28999 91.97 9.59999C92.17 9.70999 92.35 9.83999 92.55 9.95999C92.78 10.13 92.8 10.13 92.59 9.96999C92.71 10.06 92.82 10.16 92.93 10.26C93.14 10.45 93.34 10.66 93.52 10.88C93.24 10.55 93.54 10.93 93.63 11.07C93.7 11.19 93.77 11.32 93.83 11.44C93.73 11.17 93.72 11.16 93.83 11.44C93.88 11.63 93.99 11.86 93.99 12.06C93.95 11.73 93.94 11.71 93.95 11.98C93.93 12.27 93.95 12.23 93.98 11.88C93.96 12 93.92 12.12 93.88 12.24C93.92 12.05 94.01 11.89 94.15 11.77C93.9 12.07 94.3 11.69 94.44 11.62C94.16 11.68 94.18 11.68 94.51 11.63C94.37 11.64 94.24 11.65 94.1 11.65C92.87 11.69 91.63 11.69 90.4 11.65C89.79 11.63 89.18 11.59 88.57 11.52C87.85 11.44 89.06 11.63 88.34 11.48C88.05 11.42 87.75 11.36 87.47 11.28C87.37 11.25 86.52 10.94 87.02 11.16C86.82 11.07 86.62 10.97 86.43 10.85C86.31 10.78 86.19 10.7 86.07 10.62C86.3 10.81 86.31 10.81 86.1 10.62C86 10.53 85.9 10.43 85.81 10.33C85.65 10.14 85.63 10.12 85.75 10.26C85.92 10.52 85.55 9.88999 85.52 9.81999C85.8 10.35 85.45 9.63999 85.46 9.46999C85.41 10.18 85.48 9.39999 85.51 9.33999C85.46 9.66999 85.47 9.69999 85.53 9.42999C85.62 9.15999 85.6 9.18999 85.48 9.48999C85.56 9.34999 86.02 8.74999 85.62 9.18999C85.75 9.03999 85.9 8.90999 86.03 8.76999C86.24 8.58999 86.23 8.59999 85.99 8.78999C86.1 8.70999 86.21 8.63999 86.32 8.56999C86.54 8.42999 86.78 8.30999 87.02 8.19999C88.21 7.63999 88.6 5.83999 87.92 4.77999C87.13 3.55999 85.77 3.28999 84.5 3.87999L84.47 3.89999Z" fill="white"/>
<path d="M95.74 13.59C95.75 15.59 95.76 17.6 95.75 19.6C95.75 20.64 95.75 21.69 95.73 22.73C95.73 23.21 95.73 23.69 95.72 24.17C95.72 24.39 95.72 24.6 95.71 24.82C95.68 25.41 95.73 24.63 95.71 24.85C95.69 25.19 95.61 25.06 95.75 24.79C95.94 24.46 96.21 24.24 96.55 24.14L96.83 24.11C96.74 24.25 95.61 24.14 95.41 24.15C94.43 24.17 93.45 24.19 92.46 24.21C92.03 24.21 91.61 24.22 91.19 24.21C90.64 24.2 91.45 24.34 90.99 24.16C90.91 24.13 90.31 23.86 90.79 24.1C89.95 23.67 89.09 23.28 88.25 22.86C87.08 22.29 85.49 22.5 84.83 23.76C84.24 24.88 84.47 26.57 85.73 27.18C86.83 27.72 87.93 28.29 89.07 28.76C90.12 29.19 91.22 29.24 92.34 29.21C93.54 29.19 94.73 29.16 95.93 29.14C97.4 29.11 98.81 28.94 99.78 27.69C100.56 26.69 100.7 25.52 100.72 24.29C100.74 23.06 100.74 21.94 100.75 20.76C100.76 18.37 100.75 15.97 100.75 13.58C100.75 12.27 99.61 11.02 98.25 11.08C96.89 11.14 95.74 12.18 95.75 13.58L95.74 13.59Z" fill="white"/>
<path d="M110.78 25.42C110.19 21.67 110.25 17.84 110.37 14.06C110.49 10.28 110.65 6.30001 110.79 2.42001H105.79C105.67 5.94001 105.55 9.46001 105.43 12.98C105.33 15.91 109.46 16.22 110.34 13.64C110.75 12.46 111.14 11.26 111.67 10.14C111.96 9.53001 112.32 8.43001 112.96 8.22001C113.83 7.94001 115.5 8.34001 116.31 8.67001C117.12 9.00001 117.71 9.55001 118.1 10.36C118.69 11.58 120.42 11.9 121.52 11.26C122.76 10.53 123.01 9.06001 122.42 7.84001C120.69 4.26001 116.26 2.90001 112.54 3.26001C108.13 3.68001 106.73 8.78001 105.52 12.32L110.43 12.98C110.55 9.46001 110.67 5.94001 110.79 2.42001C110.9 -0.79999 105.91 -0.78999 105.79 2.42001C105.5 10.49 104.71 18.73 105.96 26.75C106.17 28.09 107.84 28.82 109.04 28.5C110.46 28.11 111 26.76 110.79 25.42H110.78Z" fill="white"/>
<path d="M130.32 7.21C131.77 7.21 133.21 7.19 134.66 7.2C135.76 7.2 136.42 7.5 137.18 8.29C138.67 9.86 139.04 12.14 139.02 14.2C138.99 17.12 137.97 19.95 137.96 22.86C137.95 25.77 139.99 29.1 143.34 28.91C144.69 28.84 145.84 27.81 145.84 26.41C145.84 25.11 144.69 23.83 143.34 23.91C142.53 23.95 143.17 23.9 143.21 23.92C143.27 23.96 143.3 24.08 143.16 23.85C142.97 23.51 142.95 22.97 142.98 22.46C143.07 21.11 143.42 19.76 143.62 18.41C144.05 15.49 144.29 12.5 143.45 9.63C142.73 7.15 141.29 4.89 139.13 3.43C136.58 1.7 133.25 2.21 130.32 2.22C127.1 2.23 127.1 7.23 130.32 7.22V7.21Z" fill="white"/>
<path d="M139.13 11.58C136.58 11.88 134.02 12.18 131.5 12.69C130.27 12.94 128.97 13.21 127.87 13.84C126.58 14.59 125.79 15.79 125.29 17.16C124.87 18.31 124.73 19.6 124.6 20.81C124.45 22.18 124.33 23.67 124.98 24.94C125.57 26.08 126.75 26.78 127.88 27.3C129.01 27.82 130.07 28.21 131.24 28.43C133.88 28.94 136.64 28.82 139.17 27.86C140.39 27.4 141.36 26.15 140.92 24.78C140.53 23.59 139.15 22.54 137.84 23.03C137.43 23.18 137.02 23.32 136.6 23.43C136.25 23.52 135.69 23.74 135.33 23.69C135.33 23.69 135.8 23.65 135.5 23.66C135.4 23.66 135.3 23.68 135.2 23.69C134.97 23.71 134.73 23.72 134.5 23.73C134.07 23.73 133.63 23.73 133.2 23.69C133.1 23.69 133 23.67 132.9 23.66C132.6 23.64 133.06 23.69 133.07 23.69C132.89 23.73 132.56 23.6 132.38 23.57C131.96 23.48 131.54 23.37 131.12 23.24C130.93 23.18 130.74 23.11 130.55 23.04C130.09 22.88 130.52 23.05 130.59 23.06C130.5 23.04 130.4 22.97 130.32 22.94C129.93 22.76 129.57 22.55 129.2 22.33C129.1 22.27 128.98 22.11 129.17 22.32C129.47 22.67 129 21.99 129.26 22.39C129.33 22.51 129.43 22.6 129.48 22.73C129.5 22.78 129.48 23.17 129.52 22.91C129.57 22.44 129.53 21.96 129.57 21.48C129.59 21.22 129.62 20.96 129.64 20.69C129.66 20.39 129.63 20.75 129.62 20.79C129.64 20.68 129.65 20.57 129.67 20.45C129.74 20 129.82 19.55 129.94 19.11C130 18.89 130.08 18.68 130.14 18.47C130.22 18.18 130.09 18.64 130.07 18.63C130.06 18.62 130.19 18.4 130.2 18.38C130.21 18.36 130.33 18.14 130.35 18.14C130.39 18.15 130.01 18.47 130.25 18.28C130.28 18.26 130.42 18.07 130.45 18.08C130.3 18.05 130.15 18.37 130.5 18.08C130.71 17.91 130.37 18.11 130.34 18.13C130.41 18.08 130.53 18.06 130.62 18.03C130.81 17.97 131 17.91 131.19 17.86C131.7 17.72 132.22 17.61 132.73 17.5C133.84 17.27 134.96 17.08 136.08 16.92C136.2 16.9 136.31 16.89 136.43 16.87C136.83 16.81 136.06 16.92 136.46 16.87C136.73 16.84 137 16.8 137.28 16.77C137.9 16.69 138.52 16.62 139.14 16.55C140.43 16.4 141.71 15.51 141.64 14.05C141.59 12.83 140.53 11.39 139.14 11.55L139.13 11.58Z" fill="white"/>
<path d="M156.6 24.93C155.8 21.85 155.54 18.7 155.8 15.52C155.93 13.99 156.22 12.48 156.61 10.99C156.89 9.95999 157.21 8.84999 157.88 8.26999C157.96 8.19999 158.29 8.05999 158.01 8.16999C158.63 7.91999 158.21 8.29999 158.11 8.16999C157.9 7.91999 158.06 8.12999 158.11 8.26999C158.23 8.64999 158.17 8.34999 158.29 8.71999C158.78 10.21 159.01 11.83 159.32 13.36C159.96 16.55 160.45 19.74 160.48 23C160.51 25.73 164.8 26.5 165.39 23.66C166.15 19.98 166.59 16.21 166.62 12.45C166.62 11.68 166.56 10.89 166.62 10.12C166.64 9.78999 166.65 9.65999 166.78 9.35999C166.67 9.60999 167.09 9.09999 166.86 9.25999C166.93 9.20999 167.5 8.93999 167.29 9.01999C167.29 9.01999 168.09 8.87999 167.76 8.90999C168.36 8.85999 168.97 9.04999 169.51 9.28999C170.59 9.77999 171.82 10.53 172.27 11.67C172.75 12.88 172.82 14.36 172.93 15.65C173.21 19.1 173.03 22.58 172.35 25.98C172.09 27.3 172.73 28.68 174.1 29.06C175.33 29.4 176.91 28.64 177.18 27.31C177.85 23.93 178.17 20.48 178.02 17.03C177.88 13.85 177.7 10.23 175.61 7.65999C173.52 5.08999 169.96 3.52999 166.81 4.01999C165.43 4.22999 164.03 4.91999 163.11 5.98999C161.92 7.37999 161.61 9.05999 161.62 10.85C161.64 14.72 161.36 18.52 160.58 22.32L165.49 22.98C165.45 18.62 164.65 14.31 163.74 10.05C163.39 8.40999 163.12 6.65999 162.13 5.26999C160.85 3.46999 158.62 2.68999 156.5 3.40999C152.53 4.74999 151.58 9.61999 151.07 13.26C150.46 17.6 150.68 21.97 151.78 26.21C152.59 29.32 157.41 28 156.6 24.88V24.93Z" fill="white"/>
<path d="M155.42 13.87C155.12 10.18 154.73 6.49999 154.25 2.82999C154.16 2.13999 154.03 1.56999 153.52 1.05999C153.09 0.629989 152.37 0.299989 151.75 0.329989C150.54 0.379989 149.07 1.43999 149.25 2.82999C149.73 6.49999 150.12 10.18 150.42 13.87C150.53 15.17 151.49 16.43 152.92 16.37C154.18 16.31 155.53 15.27 155.42 13.87Z" fill="white"/>
</g>
<defs>
<clipPath id="clip0_2_114">
<rect width="178.06" height="30.33" fill="white"/>
</clipPath>
</defs>
</svg>
