<svg width="156" height="34" viewBox="0 0 156 34" fill="none" xmlns="http://www.w3.org/2000/svg">
<g clip-path="url(#clip0_3_138)">
<path d="M9.68 6.43001C8.15 11.48 7.37 16.79 7.43 22.07C7.49 26.41 7.89 33.12 13.39 33.97C14.72 34.18 16.08 33.63 16.47 32.22C16.8 31.04 16.07 29.35 14.72 29.14C13.26 28.91 12.87 27.55 12.67 26.23C12.38 24.26 12.39 22.2 12.44 20.22C12.55 15.97 13.26 11.81 14.5 7.75001C15.44 4.66001 10.61 3.35001 9.68 6.42001V6.43001Z" fill="white"/>
<path d="M2.5 14.84C8.11 14.7 13.72 14.84 19.31 15.25C20.66 15.35 21.81 14.03 21.81 12.75C21.81 11.31 20.66 10.35 19.31 10.25C13.71 9.83001 8.1 9.69001 2.5 9.84001C1.15 9.87001 0 10.96 0 12.34C0 13.72 1.14 14.87 2.5 14.84Z" fill="white"/>
<path d="M27.42 10.63L27.39 21.73C27.39 25.02 26.8 29.03 29.09 31.74C31.13 34.15 34.94 34.28 37.49 32.64C40.34 30.81 41.42 27.29 41.21 24.05L36.55 25.31C37.65 27.83 39.14 30.55 41.75 31.77C45.01 33.29 48.57 32 50.78 29.32C55.37 23.75 54.59 15.8 53.76 9.14002C53.59 7.80002 52.73 6.64001 51.26 6.64001C50.04 6.64001 48.59 7.79002 48.76 9.14002C49.38 14.15 50.4 20.31 47.77 24.94C47.29 25.78 46.67 26.59 45.87 27.08C45.18 27.5 44.57 27.58 43.98 27.32C43.51 27.11 42.82 26.42 42.43 25.81C41.81 24.86 41.32 23.83 40.87 22.79C39.88 20.5 36.06 21.68 36.21 24.05C36.32 25.72 36.05 27.8 34.6 28.54C34.09 28.8 33.56 28.83 32.97 28.6C33.24 28.71 32.77 28.32 32.91 28.53C32.91 28.53 32.71 28.26 32.74 28.33C32.55 28 32.45 27.57 32.41 27.18C32.27 26.09 32.37 24.8 32.37 23.66V19.39C32.39 16.47 32.4 13.55 32.41 10.64C32.41 7.42002 27.42 7.42002 27.41 10.64L27.42 10.63Z" fill="white"/>
<path d="M60.94 11.76C60.81 17.68 60.79 23.6 60.87 29.53C60.89 30.88 62.01 32.03 63.37 32.03C64.73 32.03 65.89 30.89 65.87 29.53C65.79 23.61 65.81 17.69 65.94 11.76C65.97 10.41 64.77 9.26001 63.44 9.26001C62.11 9.26001 60.97 10.4 60.94 11.76Z" fill="white"/>
<path d="M62.41 5C65.63 5 65.63 0 62.41 0C59.19 0 59.19 5 62.41 5Z" fill="white"/>
<path d="M73.99 4.90001C72.82 9.71001 72.21 14.67 72.23 19.62C72.23 21.95 72.38 24.27 72.68 26.58C72.98 28.89 73.69 30.93 75.66 32.44C76.73 33.26 78.46 32.6 79.08 31.54C79.83 30.25 79.26 28.94 78.18 28.12C77.87 27.88 77.76 26.94 77.7 26.62C77.55 25.87 77.5 25.1 77.43 24.34C77.25 22.3 77.19 20.25 77.23 18.2C77.31 14.15 77.85 10.16 78.8 6.23001C79.56 3.10001 74.74 1.77001 73.98 4.90001H73.99Z" fill="white"/>
<path d="M89.49 6C88.74 9.93 88.1 13.88 87.57 17.85C87.06 21.6 86.23 25.55 88.04 29.08C88.65 30.28 90.34 30.63 91.46 29.98C92.68 29.27 92.97 27.77 92.36 26.56C91.75 25.35 91.87 23.88 91.99 22.57C92.14 20.98 92.36 19.39 92.58 17.81C93.07 14.3 93.65 10.81 94.32 7.32C94.57 5.99 93.95 4.62 92.57 4.24C91.35 3.9 89.75 4.65 89.49 5.99V6Z" fill="white"/>
<path d="M73.04 16.14C75.04 15.5 77.37 15.79 79.45 15.78C81.69 15.78 83.92 15.76 86.16 15.75C90.72 15.73 95.27 15.71 99.83 15.7C103.05 15.69 103.05 10.69 99.83 10.7C95.11 10.72 90.39 10.74 85.67 10.76C83.35 10.76 81.03 10.78 78.71 10.79C76.39 10.8 73.95 10.61 71.72 11.32C68.67 12.3 69.97 17.13 73.05 16.14H73.04Z" fill="white"/>
<path d="M111.23 18.6C114.28 19.3 117.52 19.82 120.66 19.71C123.57 19.62 126.54 18.76 128.29 16.27C129.94 13.93 129.88 10.73 128.63 8.24C127.38 5.75 124.77 4.05 122.08 3.48C119.08 2.84 116.04 3.36 113.23 4.48C110.42 5.6 107.4 7.01 105.96 9.92C104.52 12.83 103.51 16.23 103.19 19.43C102.91 22.22 103.48 25.22 105.16 27.51C107.31 30.43 110.58 31.32 114.05 31.51C117.91 31.72 121.79 31.76 125.66 31.88C128.88 31.98 128.88 26.98 125.66 26.88C122.98 26.8 120.29 26.71 117.61 26.63C115.46 26.56 112.88 26.81 110.85 25.93C106.98 24.24 108.1 18.9 109.08 15.82C109.68 13.92 110.13 11.69 111.94 10.6C113.75 9.51 115.99 8.57 118.13 8.26C120.9 7.87 125.4 9.34 124.47 12.79C124.03 14.43 121.98 14.69 120.48 14.72C117.81 14.78 115.14 14.38 112.55 13.78C109.42 13.06 108.08 17.88 111.22 18.6H111.23Z" fill="white"/>
<path d="M140.01 30.94C139.35 28.78 139.29 26.6 139.25 24.36C139.21 22.12 139.19 19.7 139.17 17.38C139.13 12.56 139.14 7.73001 139.17 2.91001C139.2 -0.339991 134.38 -0.269991 134.17 2.91001C133.94 6.38001 133.9 9.86001 134.07 13.34C134.21 16.3 137.94 16.55 138.98 14C139.63 12.42 142.76 12.11 144.22 11.9C145.68 11.69 147.2 11.55 148.69 11.45C149.29 11.41 150.01 11.32 150.56 11.39C150.68 11.41 150.99 11.49 151.15 11.54C150.88 11.47 150.63 10.91 150.91 11.51C151.5 12.73 153.23 13.05 154.33 12.41C155.57 11.68 155.82 10.21 155.23 8.99001C154.32 7.10001 152.21 6.44001 150.26 6.39001C147.98 6.34001 145.62 6.70001 143.36 7.02001C139.49 7.56001 135.75 8.78001 134.16 12.67L139.07 13.33C138.9 9.85001 138.94 6.37001 139.17 2.90001H134.17C134.13 7.89001 134.13 12.88 134.17 17.87C134.21 22.58 133.78 27.71 135.18 32.27C136.12 35.34 140.95 34.03 140 30.94H140.01Z" fill="white"/>
</g>
<defs>
<clipPath id="clip0_3_138">
<rect width="155.55" height="34.01" fill="white"/>
</clipPath>
</defs>
</svg>
